SplineFontDB: 3.2
FontName: PhotonicoCode-Regular
FullName: Photonico Code Regular
FamilyName: Photonico Code
Weight: Regular
Copyright: Copyright 2022-2027 Lu Niu (https://github.com/Photonico)
Version: 0.8
ItalicAngle: 0
UnderlinePosition: -125
UnderlineWidth: 50
Ascent: 1560
Descent: 390
InvalidEm: 0
sfntRevision: 0x0000199a
LayerCount: 6
Layer: 0 1 "Back" 1
Layer: 1 1 "Fore" 0
Layer: 2 0 "Wo" 1
Layer: 3 0 "Wb" 1
Layer: 4 0 "wd" 1
Layer: 5 0 "we" 1
XUID: [1021 350 -1293522647 13888384]
StyleMap: 0x0040
FSType: 0
OS2Version: 4
OS2_WeightWidthSlopeOnly: 0
OS2_UseTypoMetrics: 1
CreationTime: 1638550126
ModificationTime: 1666966441
PfmFamily: 17
TTFWeight: 400
TTFWidth: 5
LineGap: 0
VLineGap: 0
Panose: 0 0 0 0 0 0 0 0 0 0
OS2TypoAscent: 1800
OS2TypoAOffset: 0
OS2TypoDescent: -600
OS2TypoDOffset: 0
OS2TypoLinegap: 0
OS2WinAscent: 1800
OS2WinAOffset: 0
OS2WinDescent: 600
OS2WinDOffset: 0
HheadAscent: 1800
HheadAOffset: 0
HheadDescent: -600
HheadDOffset: 0
OS2SubXSize: 1268
OS2SubYSize: 1170
OS2SubXOff: 0
OS2SubYOff: 146
OS2SupXSize: 1268
OS2SupYSize: 1170
OS2SupXOff: 0
OS2SupYOff: 683
OS2StrikeYSize: 50
OS2StrikeYPos: 318
OS2CapHeight: 1377
OS2XHeight: 1053
OS2Vendor: 'CTDB'
OS2CodePages: 6000009f.dfd70000
OS2UnicodeRanges: e00002ef.1201f9fb.02002038.00000000
Lookup: 1 0 0 "'aalt' Access All Alternates lookup 0" { "'aalt' Access All Alternates lookup 0 subtable"  } ['aalt' ('DFLT' <'dflt' > 'cyrl' <'dflt' > 'grek' <'dflt' > 'latn' <'AFK ' 'AZE ' 'CAT ' 'CRT ' 'KAZ ' 'MOL ' 'PLK ' 'ROM ' 'TAT ' 'TRK ' 'dflt' > 'zinh' <'dflt' > 'zyyy' <'dflt' > ) ]
Lookup: 3 0 0 "'aalt' Access All Alternates lookup 1" { "'aalt' Access All Alternates lookup 1 subtable"  } ['aalt' ('DFLT' <'dflt' > 'cyrl' <'dflt' > 'grek' <'dflt' > 'latn' <'AFK ' 'AZE ' 'CAT ' 'CRT ' 'KAZ ' 'MOL ' 'PLK ' 'ROM ' 'TAT ' 'TRK ' 'dflt' > 'zinh' <'dflt' > 'zyyy' <'dflt' > ) ]

StartChar: .notdef
Encoding: 256 -1 0
Width: 1200
GlyphClass: 1
Flags: W
LayerCount: 6
Fore
SplineSet
80 1478 m 1,0,-1
 1120 1478 l 1,1,-1
 1120 -104 l 1,2,-1
 80 -104 l 1,3,-1
 80 1478 l 1,0,-1
1012 0 m 1,4,-1
 1012 1374 l 1,5,-1
 190 1374 l 1,6,-1
 190 0 l 1,7,-1
 1012 0 l 1,4,-1
614 516 m 2,8,9
 614 494 614 494 598 481 c 128,-1,10
 582 468 582 468 564 468 c 0,11,12
 545 468 545 468 529.5 481 c 128,-1,13
 514 494 514 494 514 516 c 2,14,-1
 514 684 l 1,15,16
 622 690 622 690 659 724.5 c 128,-1,17
 696 759 696 759 696 838 c 0,18,19
 696 897 696 897 672.5 936.5 c 128,-1,20
 649 976 649 976 574 976 c 0,21,22
 543 976 543 976 519.5 970.5 c 128,-1,23
 496 965 496 965 470 954 c 0,24,25
 455 948 455 948 444 948 c 0,26,27
 422 948 422 948 409 961.5 c 128,-1,28
 396 975 396 975 396 994 c 0,29,30
 396 1021 396 1021 426.5 1038.5 c 128,-1,31
 457 1056 457 1056 500 1064 c 128,-1,32
 543 1072 543 1072 582 1072 c 0,33,34
 668 1072 668 1072 716.5 1039.5 c 128,-1,35
 765 1007 765 1007 784.5 954.5 c 128,-1,36
 804 902 804 902 804 842 c 0,37,38
 804 737 804 737 759.5 679 c 128,-1,39
 715 621 715 621 614 606 c 1,40,-1
 614 516 l 2,8,9
494 340 m 0,41,42
 494 370 494 370 514 390 c 128,-1,43
 534 410 534 410 564 410 c 256,44,45
 594 410 594 410 614 390 c 128,-1,46
 634 370 634 370 634 340 c 0,47,48
 634 309 634 309 614 287.5 c 128,-1,49
 594 266 594 266 564 266 c 256,50,51
 534 266 534 266 514 287.5 c 128,-1,52
 494 309 494 309 494 340 c 0,41,42
EndSplineSet
Validated: 1
EndChar

StartChar: A
Encoding: 65 65 1
Width: 1200
GlyphClass: 2
Flags: W
AnchorPoint: "Anchor-1" 596 1 basechar 0
AnchorPoint: "Anchor-0" 600 1378 basechar 0
LayerCount: 6
Fore
SplineSet
779.587890625 440 m 1,0,-1
 420.412109375 440 l 1,1,-1
 340 140 l 1,2,-1
 420 140 l 2,3,4
 449 140 449 140 469.5 119.5 c 128,-1,5
 490 99 490 99 490 70 c 128,-1,6
 490 41 490 41 469.5 20.5 c 128,-1,7
 449 0 449 0 420 0 c 2,8,9
 420 0 420 0 100 0 c 2,10,11
 71 0 71 0 50.5 20.5 c 128,-1,12
 30 41 30 41 30 70 c 128,-1,13
 30 99 30 99 50.5 119.5 c 128,-1,14
 71 140 71 140 100 140 c 2,15,16
 100 140 100 140 195 140 c 1,17,-1
 497 1267 l 2,18,19
 503 1291 503 1291 521.5 1305.5 c 128,-1,20
 540 1320 540 1320 565 1320 c 2,21,22
 565 1320 565 1320 600 1320 c 5,23,-1
 635 1320 l 2,24,25
 660 1320 660 1320 678.5 1305.5 c 128,-1,26
 697 1291 697 1291 703 1267 c 2,27,28
 703 1267 703 1267 1005 140 c 1,29,-1
 1100 140 l 2,30,31
 1129 140 1129 140 1149.5 119.5 c 128,-1,32
 1170 99 1170 99 1170 70 c 128,-1,33
 1170 41 1170 41 1149.5 20.5 c 128,-1,34
 1129 0 1129 0 1100 0 c 2,35,36
 1100 0 1100 0 780 0 c 2,37,38
 751 0 751 0 730.5 20.5 c 128,-1,39
 710 41 710 41 710 70 c 128,-1,40
 710 99 710 99 730.5 119.5 c 128,-1,41
 751 140 751 140 780 140 c 2,42,43
 780 140 780 140 860 140 c 1,44,-1
 779.587890625 440 l 1,0,-1
742.061523438 580 m 1,45,-1
 600 1110 l 1,46,-1
 457.938476562 580 l 1,47,-1
 742.061523438 580 l 1,45,-1
EndSplineSet
Validated: 1
Layer: 2
SplineSet
779.587890625 440 m 5
 779.587628866 440 860 140 860 140 c 5
 780 140 l 5
 741 140 710 109 710 70 c 7
 710 31 741 0 780 0 c 5
 1100 0 l 5
 1139 0 1170 31 1170 70 c 7
 1170 109 1139 140 1100 140 c 5
 1005 140 l 5
 703 1267 l 5
 695 1298 669 1320 635 1320 c 4
 600 1320 l 4
 565 1320 l 4
 531 1320 505 1298 497 1267 c 5
 195 140 l 5
 100 140 l 5
 61 140 30 109 30 70 c 7
 30 31 61 0 100 0 c 5
 420 0 l 5
 459 0 490 31 490 70 c 7
 490 109 459 140 420 140 c 5
 340 140 l 5
 340 140 420.412371134 440 420.412109375 440 c 5
 779.587890625 440 l 5
742.061523438 580 m 5
 742.06185567 580 600 1110 600 1110 c 5
 600 1110 457.93814433 580 457.938476562 580 c 5
 742.061523438 580 l 5
EndSplineSet
Layer: 4
SplineSet
703 1266 m 5
 1005 139 l 5
 1100 139 l 5
 1139 139 1170 108 1170 69 c 7
 1170 30 1139 -1 1100 -1 c 5
 780 -1 l 5
 741 -1 710 30 710 69 c 7
 710 108 741 139 780 139 c 5
 860 139 l 5
 780 440 l 1029
EndSplineSet
Substitution2: "Single Substitution lookup 12 subtable" ordfeminine
Substitution2: "'aalt' Access All Alternates lookup 0 subtable" ordfeminine
EndChar

StartChar: AE
Encoding: 198 198 11
Width: 1200
GlyphClass: 2
Flags: W
AnchorPoint: "Anchor-1" 600 0 basechar 0
AnchorPoint: "Anchor-0" 723 1377 basechar 0
LayerCount: 6
Fore
SplineSet
781 751 m 1,0,-1
 1088 751 l 2,1,2
 1117 751 1117 751 1137.5 730.5 c 128,-1,3
 1158 710 1158 710 1158 681 c 128,-1,4
 1158 652 1158 652 1137.5 631.5 c 128,-1,5
 1117 611 1117 611 1088 611 c 2,6,-1
 818 611 l 1,7,-1
 945 140 l 1,8,-1
 1215 140 l 2,9,10
 1244 140 1244 140 1264.5 119.5 c 128,-1,11
 1285 99 1285 99 1285 70 c 128,-1,12
 1285 41 1285 41 1264.5 20.5 c 128,-1,13
 1244 0 1244 0 1215 0 c 2,14,-1
 720 0 l 2,15,16
 691 0 691 0 670.5 20.5 c 128,-1,17
 650 41 650 41 650 70 c 128,-1,18
 650 99 650 99 670.5 119.5 c 128,-1,19
 691 140 691 140 720 140 c 2,20,-1
 800 140 l 1,21,-1
 720 441 l 1,22,-1
 360 441 l 1,23,-1
 280 140 l 1,24,-1
 360 140 l 2,25,26
 389 140 389 140 409.5 119.5 c 128,-1,27
 430 99 430 99 430 70 c 128,-1,28
 430 41 430 41 409.5 20.5 c 128,-1,29
 389 0 389 0 360 0 c 2,30,-1
 40 0 l 2,31,32
 11 0 11 0 -9.5 20.5 c 128,-1,33
 -30 41 -30 41 -30 70 c 128,-1,34
 -30 99 -30 99 -9.5 119.5 c 128,-1,35
 11 140 11 140 40 140 c 2,36,-1
 135 140 l 1,37,-1
 437 1267 l 2,38,39
 443 1290 443 1290 461.5 1305.5 c 0,40,41
 480 1320 480 1320 505 1320 c 2,42,-1
 540 1320 l 1,43,-1
 575 1320 l 1,44,-1
 966 1320 l 2,45,46
 995 1320 995 1320 1015.5 1299.5 c 128,-1,47
 1036 1279 1036 1279 1036 1250 c 128,-1,48
 1036 1221 1036 1221 1015.5 1200.5 c 128,-1,49
 995 1180 995 1180 966 1180 c 2,50,-1
 666 1180 l 1,51,-1
 781 751 l 1,0,-1
682 581 m 1,52,-1
 540 1110 l 1,53,-1
 398 581 l 1,54,-1
 682 581 l 1,52,-1
EndSplineSet
Validated: 1
Layer: 2
SplineSet
781 751 m 1
 1088 751 l 1
 1127 751 1158 720 1158 681 c 0
 1158 642 1127 611 1088 611 c 1
 818 611 l 1
 945 140 l 1
 1215 140 l 1
 1254 140 1285 109 1285 70 c 0
 1285 31 1254 0 1215 0 c 1
 720 0 l 1
 681 0 650 31 650 70 c 3
 650 109 681 140 720 140 c 1
 800 140 l 1
 720 441 l 1
 360 441 l 1
 280 140 l 1
 360 140 l 1
 399 140 430 109 430 70 c 3
 430 31 399 0 360 0 c 1
 40 0 l 1
 1 0 -30 31 -30 70 c 3
 -30 109 1 140 40 140 c 1
 135 140 l 1
 437 1267 l 1
 445 1298 471 1320 505 1320 c 0
 540 1320 l 0
 575 1320 l 1
 966 1320 l 1
 1005 1320 1036 1289 1036 1250 c 0
 1036 1211 1005 1180 966 1180 c 1
 666 1180 l 1
 781 751 l 1
682 581 m 1
 398 581 l 1
 540 1110 l 1
 682 581 l 1
EndSplineSet
EndChar

StartChar: B
Encoding: 66 66 13
Width: 1200
GlyphClass: 2
Flags: W
AnchorPoint: "Anchor-1" 600 0 basechar 0
AnchorPoint: "Anchor-0" 600 1377 basechar 0
LayerCount: 6
Fore
SplineSet
914 693 m 1,0,1
 971 741 971 741 1003 809.5 c 128,-1,2
 1035 878 1035 878 1035 955 c 0,3,4
 1035 1098 1035 1098 933.5 1199 c 128,-1,5
 832 1300 832 1300 690 1300 c 2,6,-1
 220 1300 l 2,7,8
 191 1300 191 1300 170.5 1279.5 c 128,-1,9
 150 1259 150 1259 150 1230 c 128,-1,10
 150 1201 150 1201 170.5 1180.5 c 128,-1,11
 191 1160 191 1160 220 1160 c 2,12,-1
 310 1160 l 1,13,-1
 310 140 l 1,14,-1
 220 140 l 2,15,16
 191 140 191 140 170.5 119.5 c 128,-1,17
 150 99 150 99 150 70 c 128,-1,18
 150 41 150 41 170.5 20.5 c 128,-1,19
 191 0 191 0 220 0 c 2,20,-1
 715 0 l 2,21,22
 870 0 870 0 979.846837944 109.846837945 c 0,23,24
 1090 220 1090 220 1090 375 c 0,25,26
 1090 474 1090 474 1042.5 558.5 c 128,-1,27
 995 643 995 643 914 693 c 1,0,1
450 140 m 1,28,-1
 450 610 l 1,29,-1
 715 610 l 2,30,31
 812 610 812 610 881 541 c 128,-1,32
 950 472 950 472 950 375 c 128,-1,33
 950 278 950 278 881 209 c 128,-1,34
 812 140 812 140 715 140 c 2,35,-1
 450 140 l 1,28,-1
450 750 m 1,36,-1
 450 1160 l 1,37,-1
 690 1160 l 2,38,39
 775 1160 775 1160 835 1100 c 128,-1,40
 895 1040 895 1040 895 955 c 128,-1,41
 895 870 895 870 835 810 c 128,-1,42
 775 750 775 750 690 750 c 2,43,-1
 450 750 l 1,36,-1
450 140 m 1025,44,-1
EndSplineSet
Validated: 9
Layer: 2
SplineSet
914 693 m 5
 988 756 1035 850 1035 955 c 4
 1035 1145 880 1300 690 1300 c 5
 220 1300 l 5
 181 1300 150 1269 150 1230 c 7
 150 1191 181 1160 220 1160 c 5
 310 1160 l 5
 310 140 l 5
 220 140 l 5
 181 140 150 109 150 70 c 7
 150 31 181 0 220 0 c 5
 715 0 l 5
 922 0 1090 168 1090 375 c 4
 1090 509 1020 627 914 693 c 5
450 140 m 5
 450 610 l 5
 715 610 l 5
 845 610 950 505 950 375 c 4
 950 245 845 140 715 140 c 5
 450 140 l 5
450 750 m 5
 450 1160 l 5
 690 1160 l 5
 803 1160 895 1068 895 955 c 4
 895 842 803 750 690 750 c 5
 450 750 l 5
450 140 m 1029
EndSplineSet
Layer: 4
SplineSet
885 693 m 1
 885 693 881 693 874 693 c 1025
EndSplineSet
EndChar

StartChar: C
Encoding: 67 67 14
Width: 1200
GlyphClass: 2
Flags: W
AnchorPoint: "Anchor-1" 699 0 basechar 0
AnchorPoint: "Anchor-0" 731 1377 basechar 0
LayerCount: 6
Fore
SplineSet
0 0 m 1049,0,-1
1040 1031 m 2,1,-1
 1040 890 l 2,2,3
 1040 861 1040 861 1019.5 840.5 c 128,-1,4
 999 820 999 820 970 820 c 128,-1,5
 941 820 941 820 920.5 840.5 c 128,-1,6
 900 861 900 861 900 890 c 2,7,-1
 900 1002 l 1,8,9
 795 1180 795 1180 620 1180 c 0,10,11
 512 1180 512 1180 427 1108.5 c 128,-1,12
 342 1037 342 1037 296 916.5 c 128,-1,13
 250 796 250 796 250 650 c 128,-1,14
 250 504 250 504 296 383.5 c 128,-1,15
 342 263 342 263 427 191.5 c 128,-1,16
 512 120 512 120 620 120 c 0,17,18
 711 120 711 120 785 171 c 128,-1,19
 859 222 859 222 909 314 c 0,20,21
 929 350 929 350 970 350 c 0,22,23
 999 350 999 350 1019.5 329.5 c 128,-1,24
 1040 309 1040 309 1040 280 c 0,25,26
 1040 261 1040 261 1031 246 c 0,27,28
 962 122 962 122 855.5 51 c 128,-1,29
 749 -20 749 -20 620 -20 c 0,30,31
 474 -20 474 -20 356.5 70 c 128,-1,32
 239 160 239 160 174.5 313 c 128,-1,33
 110 466 110 466 110 650 c 128,-1,34
 110 834 110 834 174.5 987 c 128,-1,35
 239 1140 239 1140 356.5 1230 c 128,-1,36
 474 1320 474 1320 620 1320 c 0,37,38
 790 1320 790 1320 920 1198 c 1,39,-1
 930 1237 l 2,40,41
 935 1260 935 1260 954 1275 c 128,-1,42
 973 1290 973 1290 998 1290 c 0,43,44
 1027 1290 1027 1290 1047.5 1269.5 c 128,-1,45
 1068 1249 1068 1249 1068 1220 c 0,46,47
 1068 1213 1068 1213 1066 1203 c 2,48,-1
 1057.33333333 1169 l 2,49,50
 1040 1113.1860056 1040 1113.1860056 1040 1031 c 2,1,-1
0 0 m 1049,51,-1
EndSplineSet
Validated: 1
Layer: 2
SplineSet
0 0 m 1053
1040 1031 m 5
 1040 890 l 5
 1040 851 1009 820 970 820 c 4
 931 820 900 851 900 890 c 5
 900 1002 l 5
 835 1112 739 1180 620 1180 c 4
 399 1180 250 943 250 650 c 4
 250 357 399 120 620 120 c 4
 745 120 844 195 909 314 c 5
 921 336 943 350 970 350 c 4
 1009 350 1040 319 1040 280 c 4
 1040 268 1037 256 1031 246 c 5
 941 84 796 -20 620 -20 c 4
 322 -20 110 280 110 650 c 4
 110 1020 322 1320 620 1320 c 4
 735.657180506 1320 837.927734375 1274.76855469 920 1198 c 5
 930 1237 l 5
 937 1268 965 1290 998 1290 c 4
 1037 1290 1068 1259 1068 1220 c 4
 1068 1214 1067 1208 1066 1203 c 5
 1057.33333333 1169 l 5
 1045.06382863 1129.49172692 1040 1087 1040 1031 c 5
0 0 m 1053
EndSplineSet
Layer: 3
SplineSet
0 0 m 1025
EndSplineSet
EndChar

StartChar: D
Encoding: 68 68 20
Width: 1200
GlyphClass: 2
Flags: W
AnchorPoint: "Anchor-2" 600 689 basechar 0
AnchorPoint: "Anchor-1" 600 0 basechar 0
AnchorPoint: "Anchor-0" 567 1377 basechar 0
LayerCount: 6
Fore
SplineSet
565 140 m 2,0,1
 672 140 672 140 749 178.5 c 128,-1,2
 826 217 826 217 870 288.5 c 128,-1,3
 914 360 914 360 934.5 449 c 128,-1,4
 955 538 955 538 955 650 c 128,-1,5
 955 762 955 762 934.5 851 c 128,-1,6
 914 940 914 940 870 1011.5 c 128,-1,7
 826 1083 826 1083 749 1121.5 c 128,-1,8
 672 1160 672 1160 565 1160 c 2,9,-1
 445 1160 l 1,10,-1
 445 140 l 1,11,-1
 565 140 l 2,0,1
565 0 m 2,12,-1
 215 0 l 2,13,14
 186 0 186 0 165.5 20.5 c 128,-1,15
 145 41 145 41 145 70 c 128,-1,16
 145 99 145 99 165.5 119.5 c 128,-1,17
 186 140 186 140 215 140 c 2,18,-1
 305 140 l 1,19,-1
 305 1160 l 1,20,-1
 215 1160 l 2,21,22
 186 1160 186 1160 165.5 1180.5 c 128,-1,23
 145 1201 145 1201 145 1230 c 128,-1,24
 145 1259 145 1259 165.5 1279.5 c 128,-1,25
 186 1300 186 1300 215 1300 c 2,26,-1
 565 1300 l 2,27,28
 683 1300 683 1300 773 1267 c 0,29,30
 864 1234 864 1234 924 1176 c 128,-1,31
 984 1118 984 1118 1023 1035 c 128,-1,32
 1062 952 1062 952 1078.5 857.5 c 128,-1,33
 1095 763 1095 763 1095 650 c 128,-1,34
 1095 537 1095 537 1078.5 442.5 c 128,-1,35
 1062 348 1062 348 1023 265 c 128,-1,36
 984 182 984 182 924 124 c 0,37,38
 860 62 860 62 773 33 c 0,39,40
 672 0 672 0 565 0 c 2,12,-1
445 140 m 1025,41,-1
EndSplineSet
Validated: 1
Layer: 2
SplineSet
565 140 m 5
 858 140 955 364.001953125 955 650 c 132
 955 935.998046875 858 1160 565 1160 c 5
 445 1160 l 5
 445 140 l 5
 565 140 l 5
  Spiro
    565 140 v
    796.16 208.536 o
    919.076 390.894 o
    955 650 o
    919.076 909.106 o
    796.16 1091.46 o
    565 1160 v
    445 1160 v
    445 140 v
    0 0 z
  EndSpiro
565 0 m 5
 215 0 l 5
 176 0 145 31 145 70 c 7
 145 109 176 140 215 140 c 5
 305 140 l 5
 305 1160 l 5
 215 1160 l 5
 176 1160 145 1191 145 1230 c 7
 145 1269 176 1300 215 1300 c 5
 565 1300 l 5
 964 1300 1095 1012.62792969 1095 650 c 132
 1095 287.372070312 964 0 565 0 c 5
445 140 m 1029
  Spiro
    445 140 {
    0 0 z
  EndSpiro
EndSplineSet
EndChar

StartChar: Eth
Encoding: 208 208 21
Width: 1200
GlyphClass: 2
Flags: W
AnchorPoint: "Anchor-2" 619 689 basechar 0
AnchorPoint: "Anchor-1" 619 0 basechar 0
AnchorPoint: "Anchor-0" 586 1377 basechar 0
LayerCount: 6
Fore
SplineSet
665 650 m 132,-1,1
 665 621 665 621 644.5 600.5 c 132,-1,2
 624 580 624 580 595 580 c 6,3,-1
 155 580 l 6,4,5
 126 580 126 580 105.5 600.5 c 132,-1,6
 85 621 85 621 85 650 c 132,-1,7
 85 679 85 679 105.5 699.5 c 132,-1,8
 126 720 126 720 155 720 c 6,9,-1
 595 720 l 6,10,11
 624 720 624 720 644.5 699.5 c 132,-1,0
 665 679 665 679 665 650 c 132,-1,1
565 140 m 6,12,13
 672 140 672 140 749 178.5 c 132,-1,14
 826 217 826 217 870 288.5 c 132,-1,15
 914 360 914 360 934.5 449 c 132,-1,16
 955 538 955 538 955 650 c 132,-1,17
 955 762 955 762 934.5 851 c 132,-1,18
 914 940 914 940 870 1011.5 c 132,-1,19
 826 1083 826 1083 749 1121.5 c 132,-1,20
 672 1160 672 1160 565 1160 c 6,21,-1
 445 1160 l 5,22,-1
 445 140 l 5,23,-1
 565 140 l 6,12,13
565 0 m 6,24,-1
 215 0 l 6,25,26
 186 0 186 0 165.5 20.5 c 132,-1,27
 145 41 145 41 145 70 c 132,-1,28
 145 99 145 99 165.5 119.5 c 132,-1,29
 186 140 186 140 215 140 c 6,30,-1
 305 140 l 5,31,-1
 305 1160 l 5,32,-1
 215 1160 l 6,33,34
 186 1160 186 1160 165.5 1180.5 c 132,-1,35
 145 1201 145 1201 145 1230 c 132,-1,36
 145 1259 145 1259 165.5 1279.5 c 132,-1,37
 186 1300 186 1300 215 1300 c 6,38,-1
 565 1300 l 6,39,40
 682 1300 682 1300 773 1267 c 132,-1,41
 864 1234 864 1234 924 1176 c 132,-1,42
 984 1118 984 1118 1023 1035 c 132,-1,43
 1062 952 1062 952 1078.5 857.5 c 132,-1,44
 1095 763 1095 763 1095 650 c 132,-1,45
 1095 537 1095 537 1078.5 442.5 c 132,-1,46
 1062 348 1062 348 1023 265 c 132,-1,47
 984 182 984 182 924 124 c 132,-1,48
 864 66 864 66 773 33 c 132,-1,49
 682 0 682 0 565 0 c 6,24,-1
445 140 m 1029,50,-1
EndSplineSet
Validated: 5
Layer: 2
SplineSet
665 650 m 132
 665 610.958984375 634.04296875 580 595 580 c 6
 155 580 l 6
 115.959960938 580 85 610.95703125 85 650 c 132
 85 689.041015625 115.958007812 720 155 720 c 6
 595 720 l 6
 634.041015625 720 665 689.04296875 665 650 c 132
565 140 m 5
 858 140 955 364.001953125 955 650 c 132
 955 935.998046875 858 1160 565 1160 c 5
 445 1160 l 5
 445 140 l 5
 565 140 l 5
  Spiro
    565 140 v
    796.16 208.536 o
    919.076 390.894 o
    955 650 o
    919.076 909.106 o
    796.16 1091.46 o
    565 1160 v
    445 1160 v
    445 140 v
    0 0 z
  EndSpiro
565 0 m 5
 215 0 l 5
 176 0 145 31 145 70 c 7
 145 109 176 140 215 140 c 5
 305 140 l 5
 305 1160 l 5
 215 1160 l 5
 176 1160 145 1191 145 1230 c 7
 145 1269 176 1300 215 1300 c 5
 565 1300 l 5
 964 1300 1095 1012.62792969 1095 650 c 132
 1095 287.372070312 964 0 565 0 c 5
445 140 m 1029
  Spiro
    445 140 {
    0 0 z
  EndSpiro
EndSplineSet
EndChar

StartChar: E
Encoding: 69 69 24
Width: 1200
GlyphClass: 2
Flags: W
AnchorPoint: "Anchor-2" 600 689 basechar 0
AnchorPoint: "Anchor-1" 651 0 basechar 0
AnchorPoint: "Anchor-0" 642 1377 basechar 0
LayerCount: 6
Fore
SplineSet
760 610 m 5,0,-1
 420 610 l 5,1,-1
 420 140 l 5,2,-1
 950 140 l 5,3,-1
 950 270 l 6,4,5
 950 299 950 299 970.5 319.5 c 132,-1,6
 991 340 991 340 1020 340 c 132,-1,7
 1049 340 1049 340 1069.5 319.5 c 132,-1,8
 1090 299 1090 299 1090 270 c 6,9,10
 1090 270 1090 270 1090 70 c 6,11,12
 1090 40 1090 40 1070 20 c 132,-1,13
 1050 0 1050 0 1020 0 c 6,14,15
 1020 0 1020 0 190 0 c 6,16,17
 160 0 160 0 140 20 c 132,-1,18
 120 40 120 40 120 70 c 132,-1,19
 120 100 120 100 140 120 c 132,-1,20
 160 140 160 140 190 140 c 6,21,22
 190 140 190 140 280 140 c 5,23,-1
 280 1160 l 5,24,-1
 190 1160 l 6,25,26
 160 1160 160 1160 140 1180 c 132,-1,27
 120 1200 120 1200 120 1230 c 132,-1,28
 120 1260 120 1260 140 1280 c 132,-1,29
 160 1300 160 1300 190 1300 c 6,30,31
 190 1300 190 1300 1020 1300 c 6,32,33
 1050 1300 1050 1300 1070 1280 c 132,-1,34
 1090 1260 1090 1260 1090 1230 c 6,35,36
 1090 1230 1090 1230 1090 1030 c 6,37,38
 1090 1001 1090 1001 1069.5 980.5 c 132,-1,39
 1049 960 1049 960 1020 960 c 132,-1,40
 991 960 991 960 970.5 980.5 c 132,-1,41
 950 1001 950 1001 950 1030 c 6,42,43
 950 1030 950 1030 950 1160 c 5,44,-1
 420 1160 l 5,45,-1
 420 750 l 5,46,-1
 760 750 l 5,47,-1
 760 820 l 6,48,49
 760 849 760 849 780.5 869.5 c 132,-1,50
 801 890 801 890 830 890 c 132,-1,51
 859 890 859 890 879.5 869.5 c 132,-1,52
 900 849 900 849 900 820 c 6,53,54
 900 820 900 820 900 540 c 6,55,56
 900 510 900 510 880 490 c 132,-1,57
 860 470 860 470 830 470 c 4,58,59
 801 470 801 470 780.5 490.5 c 132,-1,60
 760 511 760 511 760 540 c 6,61,62
 760 540 760 540 760 610 c 5,0,-1
EndSplineSet
Validated: 1
Layer: 2
SplineSet
760 610 m 5
 760 540 l 1
 760 501 791 470 830 470 c 0
 870.333984375 470 900 499.666992188 900 540 c 1
 900 820 l 1
 900 859 869 890 830 890 c 0
 791 890 760 859 760 820 c 1
 760 750 l 5
 420 750 l 5
 420 1160 l 1
 950 1160 l 1
 950 1030 l 1
 950 991 981 960 1020 960 c 0
 1059 960 1090 991 1090 1030 c 1
 1090 1230 l 1
 1090 1270.33300781 1060.33398438 1300 1020 1300 c 1
 190 1300 l 1
 149.669921875 1300 120 1270.33300781 120 1230 c 128
 120 1189.66503906 149.671875 1160 190 1160 c 1
 280 1160 l 1
 280 140 l 1
 190 140 l 1
 149.669921875 140 120 110.333007812 120 70 c 128
 120 29.6650390625 149.671875 0 190 0 c 1
 1020 0 l 1
 1060.33398438 0 1090 29.6669921875 1090 70 c 1
 1090 270 l 1
 1090 309 1059 340 1020 340 c 0
 981 340 950 309 950 270 c 1
 950 140 l 1
 420 140 l 1
 420 610 l 5
 760 610 l 5
EndSplineSet
Layer: 3
SplineSet
1050 70 m 1152
EndSplineSet
EndChar

StartChar: F
Encoding: 70 70 34
Width: 1200
GlyphClass: 2
Flags: W
AnchorPoint: "Anchor-1" 470 0 basechar 0
AnchorPoint: "Anchor-0" 600 1377 basechar 0
LayerCount: 6
Fore
SplineSet
750 750 m 1,0,-1
 420 750 l 1,1,-1
 420 1160 l 1,2,-1
 940 1160 l 1,3,-1
 940 1030 l 2,4,5
 940 1001 940 1001 960.5 980.5 c 128,-1,6
 981 960 981 960 1010 960 c 128,-1,7
 1039 960 1039 960 1059.5 980.5 c 128,-1,8
 1080 1001 1080 1001 1080 1030 c 2,9,-1
 1080 1230 l 2,10,11
 1080 1260 1080 1260 1060 1280 c 128,-1,12
 1040 1300 1040 1300 1010 1300 c 2,13,-1
 190 1300 l 2,14,15
 160 1300 160 1300 140 1280 c 128,-1,16
 120 1260 120 1260 120 1230 c 128,-1,17
 120 1200 120 1200 140 1180 c 128,-1,18
 160 1160 160 1160 190 1160 c 2,19,-1
 280 1160 l 1,20,-1
 280 140 l 1,21,-1
 190 140 l 2,22,23
 160 140 160 140 140 120 c 128,-1,24
 120 100 120 100 120 70 c 128,-1,25
 120 40 120 40 140 20 c 128,-1,26
 160 0 160 0 190 0 c 2,27,-1
 600 0 l 2,28,29
 630 0 630 0 650 20 c 128,-1,30
 670 40 670 40 670 70 c 128,-1,31
 670 100 670 100 650 120 c 128,-1,32
 630 140 630 140 600 140 c 2,33,-1
 420 140 l 1,34,-1
 420 610 l 1,35,-1
 750 610 l 1,36,-1
 750 540 l 2,37,38
 750 511 750 511 770.5 490.5 c 128,-1,39
 791 470 791 470 820 470 c 0,40,41
 850 470 850 470 870 490 c 128,-1,42
 890 510 890 510 890 540 c 2,43,-1
 890 820 l 2,44,45
 890 849 890 849 869.5 869.5 c 128,-1,46
 849 890 849 890 820 890 c 128,-1,47
 791 890 791 890 770.5 869.5 c 128,-1,48
 750 849 750 849 750 820 c 2,49,-1
 750 750 l 1,0,-1
698 1578 m 1049,50,-1
EndSplineSet
Validated: 9
Layer: 2
SplineSet
750 750 m 1
 420 750 l 1
 420 1160 l 1
 940 1160 l 5
 940 1030 l 5
 940 991 971 960 1010 960 c 4
 1049 960 1080 991 1080 1030 c 5
 1080 1230 l 5
 1080 1270.33300781 1050.33398438 1300 1010 1300 c 5
 190 1300 l 1
 149.669921875 1300 120 1270.33300781 120 1230 c 128
 120 1189.66503906 149.671875 1160 190 1160 c 1
 280 1160 l 1
 280 140 l 1
 190 140 l 2
 150 140 120 110.333007812 120 70 c 128
 120 29.6650390625 149.672763872 0 190 0 c 2
 600 0 l 2
 640.334960938 0 670 29.6669921875 670 70 c 128
 670 110.334960938 640 140 600 140 c 2
 420 140 l 1
 420 610 l 1
 750 610 l 1
 750 540 l 1
 750 501 781 470 820 470 c 0
 860.333984375 470 890 499.666992188 890 540 c 1
 890 820 l 1
 890 859 859 890 820 890 c 0
 781 890 750 859 750 820 c 1
 750 750 l 1
EndSplineSet
Substitution2: "Single Substitution lookup 344 subtable" F.spacer
Substitution2: "'aalt' Access All Alternates lookup 0 subtable" F.spacer
EndChar

StartChar: G
Encoding: 71 71 35
Width: 1200
GlyphClass: 2
Flags: W
AnchorPoint: "Anchor-1" 661 0 basechar 0
AnchorPoint: "Anchor-0" 660 1377 basechar 0
LayerCount: 6
Fore
SplineSet
910 93 m 5,0,1
 782 -20 782 -20 620 -20 c 4,2,3
 474 -20 474 -20 356.5 70 c 132,-1,4
 239 160 239 160 174.5 313 c 132,-1,5
 110 466 110 466 110 650 c 132,-1,6
 110 834 110 834 174.5 987 c 132,-1,7
 239 1140 239 1140 356.5 1230 c 132,-1,8
 474 1320 474 1320 620 1320 c 4,9,10
 789 1320 789 1320 918 1199 c 5,11,-1
 927 1237 l 6,12,13
 932 1260 932 1260 951 1275 c 132,-1,14
 970 1290 970 1290 995 1290 c 4,15,16
 1024 1290 1024 1290 1044.5 1269.5 c 132,-1,17
 1065 1249 1065 1249 1065 1220 c 4,18,19
 1065 1213 1065 1213 1063 1203 c 6,20,-1
 1052 1167 l 6,21,22
 1040 1123 1040 1123 1040 1031 c 6,23,-1
 1040 890 l 6,24,25
 1040 861 1040 861 1019.5 840.5 c 132,-1,26
 999 820 999 820 970 820 c 132,-1,27
 941 820 941 820 920.5 840.5 c 132,-1,28
 900 861 900 861 900 890 c 6,29,-1
 900 1002 l 5,30,31
 795 1180 795 1180 620 1180 c 4,32,33
 512 1180 512 1180 427 1108.5 c 132,-1,34
 342 1037 342 1037 296 916.5 c 132,-1,35
 250 796 250 796 250 650 c 132,-1,36
 250 504 250 504 296 383.5 c 132,-1,37
 342 263 342 263 427 191.5 c 132,-1,38
 512 120 512 120 620 120 c 4,39,40
 711 120 711 120 785.5 170.5 c 132,-1,41
 860 221 860 221 910 311 c 5,42,-1
 910 440 l 5,43,-1
 710 440 l 6,44,45
 681 440 681 440 660.5 460.5 c 132,-1,46
 640 481 640 481 640 510 c 132,-1,47
 640 539 640 539 660.5 559.5 c 132,-1,48
 681 580 681 580 710 580 c 6,49,-1
 980 580 l 6,50,51
 1010 580 1010 580 1030 560 c 132,-1,52
 1050 540 1050 540 1050 510 c 6,53,-1
 1050 440 l 5,54,-1
 1050 30 l 6,55,56
 1050 1 1050 1 1029.5 -19.5 c 132,-1,57
 1009 -40 1009 -40 980 -40 c 132,-1,58
 951 -40 951 -40 930.5 -19.5 c 132,-1,59
 910 1 910 1 910 30 c 6,60,-1
 910 93 l 5,0,1
179 -911 m 1053,61,-1
179 -911 m 1053,62,-1
0 0 m 1053,63,-1
0 0 m 1053,64,-1
179 -911 m 1049,65,-1
179 -911 m 1049,66,-1
0 0 m 1049,67,-1
0 0 m 1049,68,-1
0 0 m 1049,69,-1
0 0 m 1049,70,-1
0 0 m 1049,71,-1
0 0 m 1049,72,-1
EndSplineSet
Validated: 1
Layer: 2
SplineSet
910 93 m 5
 829.372070312 21.6298828125 731.008796986 -20 620 -20 c 4
 322 -20 110 280 110 650 c 4
 110 1020 322 1320 620 1320 c 4
 735.657180506 1320 835.927734375 1275.76855469 918 1199 c 5
 927 1237 l 5
 934 1268 962 1290 995 1290 c 4
 1034 1290 1065 1259 1065 1220 c 4
 1065 1214 1064 1208 1063 1203 c 5
 1052 1167 l 5
 1041 1127 1040 1087 1040 1031 c 5
 1040 890 l 5
 1040 851 1009 820 970 820 c 4
 931 820 900 851 900 890 c 5
 900 1002 l 5
 835 1112 739 1180 620 1180 c 4
 399 1180 250 943 250 650 c 4
 250 357 399 120 620 120 c 4
 743.695346539 120 845 194 910 311 c 5
 910 440 l 5
 710 440 l 4
 671 440 640 471 640 510 c 4
 640 549 671 580 710 580 c 4
 980 580 l 5
 1020.33398438 580 1050 550.333007812 1050 510 c 5
 1050 440 l 5
 1050 30 l 5
 1050 -9 1019 -40 980 -40 c 4
 941 -40 910 -9 910 30 c 5
 910 93 l 5
179 -911 m 1053
179 -911 m 1053
0 0 m 1053
0 0 m 1053
EndSplineSet
EndChar

StartChar: H
Encoding: 72 72 40
Width: 1200
GlyphClass: 2
Flags: W
AnchorPoint: "Anchor-2" 600 689 basechar 0
AnchorPoint: "Anchor-1" 600 0 basechar 0
AnchorPoint: "Anchor-0" 600 1377 basechar 0
LayerCount: 6
Fore
SplineSet
980 140 m 1,0,-1
 1070 140 l 2,1,2
 1100 140 1100 140 1120 120 c 128,-1,3
 1140 100 1140 100 1140 70 c 128,-1,4
 1140 40 1140 40 1120 20 c 128,-1,5
 1100 0 1100 0 1070 0 c 2,6,-1
 750 0 l 2,7,8
 720 0 720 0 700 20 c 128,-1,9
 680 40 680 40 680 70 c 128,-1,10
 680 100 680 100 700 120 c 128,-1,11
 720 140 720 140 750 140 c 2,12,-1
 840 140 l 1,13,-1
 840 610 l 1,14,-1
 360 610 l 1,15,-1
 360 140 l 1,16,-1
 450 140 l 2,17,18
 480 140 480 140 500 120 c 128,-1,19
 520 100 520 100 520 70 c 128,-1,20
 520 40 520 40 500 20 c 128,-1,21
 480 0 480 0 450 0 c 2,22,-1
 130 0 l 2,23,24
 100 0 100 0 80 20 c 128,-1,25
 60 40 60 40 60 70 c 128,-1,26
 60 100 60 100 80 120 c 128,-1,27
 100 140 100 140 130 140 c 2,28,-1
 220 140 l 1,29,-1
 220 1160 l 1,30,-1
 130 1160 l 2,31,32
 100 1160 100 1160 80 1180 c 128,-1,33
 60 1200 60 1200 60 1230 c 128,-1,34
 60 1260 60 1260 80 1280 c 128,-1,35
 100 1300 100 1300 130 1300 c 2,36,-1
 450 1300 l 2,37,38
 480 1300 480 1300 500 1280 c 128,-1,39
 520 1260 520 1260 520 1230 c 128,-1,40
 520 1200 520 1200 500 1180 c 128,-1,41
 480 1160 480 1160 450 1160 c 2,42,-1
 360 1160 l 1,43,-1
 360 750 l 1,44,-1
 840 750 l 1,45,-1
 840 1160 l 1,46,-1
 750 1160 l 2,47,48
 720 1160 720 1160 700 1180 c 128,-1,49
 680 1200 680 1200 680 1230 c 128,-1,50
 680 1260 680 1260 700 1280 c 128,-1,51
 720 1300 720 1300 750 1300 c 2,52,-1
 1070 1300 l 2,53,54
 1100 1300 1100 1300 1120 1280 c 128,-1,55
 1140 1260 1140 1260 1140 1230 c 128,-1,56
 1140 1200 1140 1200 1120 1180 c 128,-1,57
 1100 1160 1100 1160 1070 1160 c 2,58,-1
 980 1160 l 1,59,-1
 980 140 l 1,0,-1
EndSplineSet
Validated: 1
Layer: 2
SplineSet
980 140 m 5
 1070 140 l 5
 1110.33203125 140 1140 110.334960938 1140 70 c 132
 1140 29.6669921875 1110.33300781 0 1070 0 c 6
 750 0 l 6
 709.672851562 0 680 29.6650390625 680 70 c 132
 680 110.333007812 709.670898438 140 750 140 c 5
 840 140 l 5
 840 610 l 5
 360 610 l 5
 360 140 l 5
 450 140 l 5
 490.33203125 140 520 110.334960938 520 70 c 132
 520 29.6669921875 490.333007812 0 450 0 c 6
 130 0 l 6
 89.6728515625 0 60 29.6650390625 60 70 c 132
 60 110.333007812 89.669921875 140 130 140 c 5
 220 140 l 5
 220 1160 l 5
 130 1160 l 5
 89.671875 1160 60 1189.66503906 60 1230 c 132
 60 1270.33300781 89.6708984375 1300 130 1300 c 6
 450 1300 l 6
 490.331054688 1300 520 1270.33496094 520 1230 c 132
 520 1189.66699219 490.333984375 1160 450 1160 c 5
 360 1160 l 5
 360 750 l 5
 840 750 l 5
 840 1160 l 5
 750 1160 l 5
 709.672851562 1160 680 1189.66503906 680 1230 c 132
 680 1270.33300781 709.670898438 1300 750 1300 c 6
 1070 1300 l 6
 1110.33105469 1300 1140 1270.33496094 1140 1230 c 132
 1140 1189.66699219 1110.33398438 1160 1070 1160 c 5
 980 1160 l 5
 980 140 l 5
EndSplineSet
EndChar

StartChar: Hbar
Encoding: 276 294 41
Width: 1200
GlyphClass: 1
Flags: W
LayerCount: 6
Fore
SplineSet
1190 960 m 128,-1,1
 1190 931 1190 931 1169.5 910.5 c 128,-1,2
 1149 890 1149 890 1120 890 c 2,3,-1
 80 890 l 2,4,5
 51 890 51 890 30.5 910.5 c 128,-1,6
 10 931 10 931 10 960 c 128,-1,7
 10 989 10 989 30.5 1009.5 c 128,-1,8
 51 1030 51 1030 80 1030 c 2,9,-1
 1120 1030 l 2,10,11
 1149 1030 1149 1030 1169.5 1009.5 c 128,-1,0
 1190 989 1190 989 1190 960 c 128,-1,1
980 140 m 1,12,-1
 1070 140 l 2,13,14
 1100 140 1100 140 1120 120 c 128,-1,15
 1140 100 1140 100 1140 70 c 128,-1,16
 1140 40 1140 40 1120 20 c 128,-1,17
 1100 0 1100 0 1070 0 c 2,18,-1
 750 0 l 2,19,20
 720 0 720 0 700 20 c 128,-1,21
 680 40 680 40 680 70 c 128,-1,22
 680 100 680 100 700 120 c 128,-1,23
 720 140 720 140 750 140 c 2,24,-1
 840 140 l 1,25,-1
 840 610 l 1,26,-1
 360 610 l 1,27,-1
 360 140 l 1,28,-1
 450 140 l 2,29,30
 480 140 480 140 500 120 c 128,-1,31
 520 100 520 100 520 70 c 128,-1,32
 520 40 520 40 500 20 c 128,-1,33
 480 0 480 0 450 0 c 2,34,-1
 130 0 l 2,35,36
 100 0 100 0 80 20 c 128,-1,37
 60 40 60 40 60 70 c 128,-1,38
 60 100 60 100 80 120 c 128,-1,39
 100 140 100 140 130 140 c 2,40,-1
 220 140 l 1,41,-1
 220 1160 l 1,42,-1
 130 1160 l 2,43,44
 100 1160 100 1160 80 1180 c 128,-1,45
 60 1200 60 1200 60 1230 c 128,-1,46
 60 1260 60 1260 80 1280 c 128,-1,47
 100 1300 100 1300 130 1300 c 2,48,-1
 450 1300 l 2,49,50
 480 1300 480 1300 500 1280 c 128,-1,51
 520 1260 520 1260 520 1230 c 128,-1,52
 520 1200 520 1200 500 1180 c 128,-1,53
 480 1160 480 1160 450 1160 c 2,54,-1
 360 1160 l 1,55,-1
 360 750 l 1,56,-1
 840 750 l 1,57,-1
 840 1160 l 1,58,-1
 750 1160 l 2,59,60
 720 1160 720 1160 700 1180 c 128,-1,61
 680 1200 680 1200 680 1230 c 128,-1,62
 680 1260 680 1260 700 1280 c 128,-1,63
 720 1300 720 1300 750 1300 c 2,64,-1
 1070 1300 l 2,65,66
 1100 1300 1100 1300 1120 1280 c 128,-1,67
 1140 1260 1140 1260 1140 1230 c 128,-1,68
 1140 1200 1140 1200 1120 1180 c 128,-1,69
 1100 1160 1100 1160 1070 1160 c 2,70,-1
 980 1160 l 1,71,-1
 980 140 l 1,12,-1
EndSplineSet
Validated: 5
Layer: 2
SplineSet
1190 960 m 132
 1190 920.958984375 1159.04296875 890 1120 890 c 6
 80 890 l 6
 40.9590308032 890 10 920.95703125 10 960 c 132
 10 999.041015625 40.9570776805 1030 80 1030 c 6
 1120 1030 l 6
 1159.04101562 1030 1190 999.04296875 1190 960 c 132
980 140 m 5
 1070 140 l 5
 1110.33203125 140 1140 110.334960938 1140 70 c 132
 1140 29.6669921875 1110.33300781 0 1070 0 c 6
 750 0 l 6
 709.672851562 0 680 29.6650390625 680 70 c 132
 680 110.333007812 709.670898438 140 750 140 c 5
 840 140 l 5
 840 610 l 5
 360 610 l 5
 360 140 l 5
 450 140 l 5
 490.33203125 140 520 110.334960938 520 70 c 132
 520 29.6669921875 490.333007812 0 450 0 c 6
 130 0 l 6
 89.6728515625 0 60 29.6650390625 60 70 c 132
 60 110.333007812 89.669921875 140 130 140 c 5
 220 140 l 5
 220 1160 l 5
 130 1160 l 5
 89.671875 1160 60 1189.66503906 60 1230 c 132
 60 1270.33300781 89.6708984375 1300 130 1300 c 6
 450 1300 l 6
 490.331054688 1300 520 1270.33496094 520 1230 c 132
 520 1189.66699219 490.333984375 1160 450 1160 c 5
 360 1160 l 5
 360 750 l 5
 840 750 l 5
 840 1160 l 5
 750 1160 l 5
 709.672851562 1160 680 1189.66503906 680 1230 c 132
 680 1270.33300781 709.670898438 1300 750 1300 c 6
 1070 1300 l 6
 1110.33105469 1300 1140 1270.33496094 1140 1230 c 132
 1140 1189.66699219 1110.33398438 1160 1070 1160 c 5
 980 1160 l 5
 980 140 l 5
EndSplineSet
Layer: 3
SplineSet
339 797 m 5
 861 797 l 5
 861 1018 l 5
 339 1018 l 5
 339 797 l 5
1196 1151 m 1
 1196 1018 l 1
 1035 1018 l 1
 1035 0 l 1
 861 0 l 1
 861 653 l 1
 339 653 l 1
 339 0 l 1
 165 0 l 1
 165 1018 l 1
 4 1018 l 1
 4 1151 l 1
 165 1151 l 1
 165 1377 l 1
 339 1377 l 1
 339 1151 l 1
 861 1151 l 1
 861 1377 l 1
 1035 1377 l 1
 1035 1151 l 1
 1196 1151 l 1
EndSplineSet
EndChar

StartChar: I
Encoding: 73 73 43
Width: 1200
GlyphClass: 2
Flags: W
AnchorPoint: "Anchor-1" 600 0 basechar 0
AnchorPoint: "Anchor-0" 600 1377 basechar 0
LayerCount: 6
Fore
SplineSet
530 140 m 5,0,-1
 530 1160 l 5,1,-1
 260 1160 l 6,2,3
 230 1160 230 1160 210 1180 c 132,-1,4
 190 1200 190 1200 190 1230 c 132,-1,5
 190 1260 190 1260 210 1280 c 132,-1,6
 230 1300 230 1300 260 1300 c 6,7,-1
 940 1300 l 6,8,9
 970 1300 970 1300 990 1280 c 132,-1,10
 1010 1260 1010 1260 1010 1230 c 132,-1,11
 1010 1200 1010 1200 990 1180 c 132,-1,12
 970 1160 970 1160 940 1160 c 6,13,-1
 670 1160 l 5,14,-1
 670 140 l 5,15,-1
 940 140 l 6,16,17
 970 140 970 140 990 120 c 132,-1,18
 1010 100 1010 100 1010 70 c 132,-1,19
 1010 40 1010 40 990 20 c 132,-1,20
 970 0 970 0 940 0 c 6,21,-1
 260 0 l 6,22,23
 230 0 230 0 210 20 c 132,-1,24
 190 40 190 40 190 70 c 132,-1,25
 190 100 190 100 210 120 c 132,-1,26
 230 140 230 140 260 140 c 6,27,-1
 530 140 l 5,0,-1
EndSplineSet
Validated: 1
Layer: 2
SplineSet
530 140 m 5
 530 1160 l 5
 260 1160 l 6
 220 1160 190 1189.66503906 190 1230 c 132
 190 1270.33300781 219.665039062 1300 260 1300 c 6
 940 1300 l 6
 980.333007812 1300 1010 1270.33496094 1010 1230 c 132
 1010 1189.66699219 980 1160 940 1160 c 6
 670 1160 l 5
 670 140 l 5
 940 140 l 6
 980 140 1010 110.334960938 1010 70 c 132
 1010 29.6669921875 980.334960938 0 940 0 c 6
 260 0 l 6
 219.666992188 0 190 29.6650390625 190 70 c 132
 190 110.333007812 220 140 260 140 c 6
 530 140 l 5
EndSplineSet
EndChar

StartChar: IJ
Encoding: 278 306 44
Width: 1200
GlyphClass: 1
Flags: W
LayerCount: 6
Fore
SplineSet
660 1160 m 5,0,-1
 390 1160 l 5,1,-1
 390 140 l 5,2,-1
 570 140 l 6,3,4
 600 140 600 140 620 120 c 132,-1,5
 640 100 640 100 640 70 c 132,-1,6
 640 40 640 40 620 20 c 132,-1,7
 600 0 600 0 570 0 c 6,8,-1
 70 0 l 6,9,10
 40 0 40 0 20 20 c 132,-1,11
 0 40 0 40 0 70 c 132,-1,12
 0 100 0 100 20 120 c 132,-1,13
 40 140 40 140 70 140 c 6,14,-1
 250 140 l 5,15,-1
 250 1160 l 5,16,-1
 70 1160 l 6,17,18
 40 1160 40 1160 20 1180 c 132,-1,19
 0 1200 0 1200 0 1230 c 132,-1,20
 0 1260 0 1260 20 1280 c 132,-1,21
 40 1300 40 1300 70 1300 c 6,22,-1
 660 1300 l 5,23,-1
 1130 1300 l 6,24,25
 1160 1300 1160 1300 1180 1280 c 132,-1,26
 1200 1260 1200 1260 1200 1230 c 132,-1,27
 1200 1200 1200 1200 1180 1180 c 132,-1,28
 1160 1160 1160 1160 1130 1160 c 6,29,-1
 950 1160 l 5,30,-1
 950 79 l 6,31,32
 950 -0 950 -0 932.5 -60.5 c 132,-1,33
 915 -121 915 -121 886 -158.5 c 132,-1,34
 857 -196 857 -196 815 -219 c 132,-1,35
 773 -242 773 -242 728.5 -251 c 132,-1,36
 684 -260 684 -260 630 -260 c 4,37,38
 530 -260 530 -260 419 -227 c 4,39,40
 397 -220 397 -220 383.5 -202 c 132,-1,41
 370 -184 370 -184 370 -160 c 4,42,43
 370 -131 370 -131 390.5 -110.5 c 132,-1,44
 411 -90 411 -90 440 -90 c 4,45,46
 452 -90 452 -90 461 -93 c 4,47,48
 552 -120 552 -120 630 -120 c 4,49,50
 739 -120 739 -120 774.5 -72 c 132,-1,51
 810 -24 810 -24 810 79 c 6,52,-1
 810 1160 l 5,53,-1
 660 1160 l 5,0,-1
EndSplineSet
Validated: 1
Layer: 2
SplineSet
660 1160 m 6
 390 1160 l 5
 390 140 l 5
 570 140 l 6
 610 140 640 110.334960938 640 70 c 132
 640 29.6669921875 610.334960938 0 570 0 c 6
 70 0 l 6
 29.6669921875 0 0 29.6650390625 0 70 c 132
 0 110.333007812 30 140 70 140 c 6
 250 140 l 5
 250 1160 l 5
 70 1160 l 6
 30 1160 0 1189.66503906 0 1230 c 132
 0 1270.33300781 30 1300 70 1300 c 6
 660 1300 l 6
 1130 1300 l 6
 1169.99902344 1300 1200 1270 1200 1230 c 132
 1200 1190 1170 1160 1130 1160 c 6
 950 1160 l 5
 950 79 l 5
 950 -194.001953125 798 -260 630 -260 c 7
 566.801757812 -260 493 -249 419 -227 c 5
 390 -218 370 -192 370 -160 c 4
 370 -121 401 -90 440 -90 c 4
 447 -90 455 -91 461 -93 c 5
 516.645507812 -109.475585938 574.374023438 -120 630 -120 c 7
 786.002929688 -120 810 -43 810 79 c 5
 810 1160 l 5
 660 1160 l 6
EndSplineSet
Layer: 3
SplineSet
389 -142 m 5
 524.333333333 -128.666666667 628.166666667 -99.1666666667 700.5 -53.5 c 132
 772.833333333 -7.83333333333 822.5 52.1666666667 849.5 126.5 c 132
 876.5 200.833333333 890 287.666666667 890 387 c 6
 890 1233 l 5
 401 1233 l 5
 401 143 l 5
 561 143 l 5
 561 0 l 5
 23 0 l 5
 23 143 l 5
 223 143 l 5
 223 1233 l 5
 23 1233 l 5
 23 1377 l 5
 1065 1377 l 5
 1065 376 l 6
 1065 298 1055.5 222.833333333 1036.5 150.5 c 132
 1017.5 78.1666666667 984.166666667 12.5 936.5 -46.5 c 132
 888.833333333 -105.5 822.333333333 -154.833333333 737 -194.5 c 132
 651.666666667 -234.166666667 542.333333333 -260 409 -272 c 5
 389 -142 l 5
EndSplineSet
EndChar

StartChar: J
Encoding: 74 74 54
Width: 1200
GlyphClass: 2
Flags: W
AnchorPoint: "Anchor-1" 600 0 basechar 0
AnchorPoint: "Anchor-0" 699 1377 basechar 0
LayerCount: 6
Fore
SplineSet
287.96875 267 m 0,0,1
 305.494700743 203.07902904 305.494700743 203.07902904 358.711022247 161.53951452 c 128,-1,2
 411.92734375 120 411.92734375 120 480 120 c 0,3,4
 562 120 562 120 621 179 c 128,-1,5
 680 238 680 238 680 320 c 2,6,-1
 680 1160 l 1,7,-1
 360 1160 l 2,8,9
 330 1160 330 1160 310 1180 c 128,-1,10
 290 1200 290 1200 290 1230 c 128,-1,11
 290 1260 290 1260 310 1280 c 128,-1,12
 330 1300 330 1300 360 1300 c 2,13,-1
 1000 1300 l 2,14,15
 1030 1300 1030 1300 1050 1280 c 128,-1,16
 1070 1260 1070 1260 1070 1230 c 128,-1,17
 1070 1200 1070 1200 1050 1180 c 128,-1,18
 1030 1160 1030 1160 1000 1160 c 2,19,-1
 820 1160 l 1,20,-1
 820 320 l 2,21,22
 820 179 820 179 720.5 79.5 c 128,-1,23
 621 -20 621 -20 480 -20 c 0,24,25
 363 -20 363 -20 273 50.5 c 128,-1,26
 183 121 183 121 153 231 c 0,27,28
 150 242 150 242 150 250 c 0,29,30
 150 279 150 279 170.5 299.5 c 128,-1,31
 191 320 191 320 220 320 c 0,32,33
 244.611167844 320 244.611167844 320 263.453538055 305.102732955 c 128,-1,34
 282.295908266 290.20546591 282.295908266 290.20546591 287.96875 267 c 0,0,1
EndSplineSet
Validated: 1
Layer: 2
SplineSet
287.96875 267 m 5
 311 183 388 120 480 120 c 4
 590 120 680 210 680 320 c 5
 680 1160 l 5
 360 1160 l 6
 320 1160 290 1190 290 1230 c 132
 290 1270 320 1300 360 1300 c 6
 1000 1300 l 6
 1040 1300 1070 1270 1070 1230 c 132
 1070 1190 1040 1160 1000 1160 c 6
 820 1160 l 5
 820 320 l 5
 820 132 668 -20 480 -20 c 4
 323 -20 192 86 153 231 c 5
 151.3359375 237.030273438 150 243.400390625 150 250 c 4
 150 289 181 320 220 320 c 4
 253.125976562 320 280.479492188 297.635742188 287.96875 267 c 5
EndSplineSet
EndChar

StartChar: K
Encoding: 75 75 56
Width: 1200
GlyphClass: 2
Flags: W
AnchorPoint: "Anchor-1" 645 0 basechar 0
AnchorPoint: "Anchor-0" 653 1377 basechar 0
LayerCount: 6
Fore
SplineSet
595 767 m 5,0,-1
 988 1160 l 5,1,-1
 1050 1160 l 6,2,3
 1080 1160 1080 1160 1100 1180 c 132,-1,4
 1120 1200 1120 1200 1120 1230 c 132,-1,5
 1120 1260 1120 1260 1100 1280 c 132,-1,6
 1080 1300 1080 1300 1050 1300 c 6,7,-1
 730 1300 l 6,8,9
 700 1300 700 1300 680 1280 c 132,-1,10
 660 1260 660 1260 660 1230 c 132,-1,11
 660 1200 660 1200 680 1180 c 132,-1,12
 700 1160 700 1160 730 1160 c 6,13,-1
 792 1160 l 5,14,-1
 340 708 l 5,15,-1
 340 1160 l 5,16,-1
 430 1160 l 6,17,18
 460 1160 460 1160 480 1180 c 132,-1,19
 500 1200 500 1200 500 1230 c 4,20,21
 500 1259 500 1259 477.5 1279.5 c 132,-1,22
 455 1300 455 1300 430 1300 c 6,23,-1
 110 1300 l 6,24,25
 80 1300 80 1300 60 1280 c 132,-1,26
 40 1260 40 1260 40 1230 c 132,-1,27
 40 1200 40 1200 60 1180 c 132,-1,28
 80 1160 80 1160 110 1160 c 6,29,-1
 200 1160 l 5,30,-1
 200 140 l 5,31,-1
 110 140 l 6,32,33
 80 140 80 140 60 120 c 132,-1,34
 40 100 40 100 40 70 c 132,-1,35
 40 40 40 40 60 20 c 132,-1,36
 80 0 80 0 110 0 c 6,37,-1
 430 0 l 6,38,39
 455 0 455 0 477.5 20.5 c 132,-1,40
 500 41 500 41 500 70 c 4,41,42
 500 100 500 100 480 120 c 132,-1,43
 460 140 460 140 430 140 c 6,44,-1
 340 140 l 5,45,-1
 340 512 l 5,46,-1
 494 666 l 5,47,-1
 846 140 l 5,48,-1
 770 140 l 6,49,50
 740 140 740 140 720 120 c 132,-1,51
 700 100 700 100 700 70 c 132,-1,52
 700 40 700 40 720 20 c 132,-1,53
 740 0 740 0 770 0 c 6,54,-1
 1090 0 l 6,55,56
 1120 0 1120 0 1140 20 c 132,-1,57
 1160 40 1160 40 1160 70 c 132,-1,58
 1160 100 1160 100 1140 120 c 132,-1,59
 1120 140 1120 140 1090 140 c 6,60,-1
 1014 140 l 5,61,-1
 595 767 l 5,0,-1
EndSplineSet
Validated: 9
Layer: 2
SplineSet
595 767 m 5
 988 1160 l 1
 1050 1160 l 1
 1090.33398438 1160 1120 1189.66699219 1120 1230 c 128
 1120 1270.33496094 1090.33105469 1300 1050 1300 c 2
 730 1300 l 2
 689.672059551 1300 660 1270.33300781 660 1230 c 128
 660 1189.66503906 689.672851562 1160 730 1160 c 1
 792 1160 l 1
 340 708 l 1
 340 1160 l 1
 430 1160 l 1
 470.333984375 1160 500 1189.66699219 500 1230 c 128
 500 1270.33496094 460.9375 1300 430 1300 c 2
 110 1300 l 2
 69.6710830169 1300 40 1270.33300781 40 1230 c 128
 40 1189.66503906 69.671875 1160 110 1160 c 1
 200 1160 l 1
 200 140 l 1
 110 140 l 1
 69.669921875 140 40 110.333007812 40 70 c 128
 40 29.6650390625 69.6730360856 0 110 0 c 2
 430 0 l 2
 460.938476562 0 500 29.6669921875 500 70 c 128
 500 110.334960938 470.33203125 140 430 140 c 1
 340 140 l 1
 340 512 l 1
 494 666 l 5
 846 140 l 5
 770 140 l 1
 729.670898438 140 700 110.333007812 700 70 c 128
 700 29.6650390625 729.67401262 0 770 0 c 2
 1090 0 l 2
 1130.33300781 0 1160 29.6669921875 1160 70 c 128
 1160 110.334960938 1130.33203125 140 1090 140 c 1
 1014 140 l 5
 595 767 l 5
EndSplineSet
EndChar

StartChar: L
Encoding: 76 76 58
Width: 1200
GlyphClass: 2
Flags: W
AnchorPoint: "Anchor-2" 943 759 basechar 0
AnchorPoint: "Anchor-1" 663 0 basechar 0
AnchorPoint: "Anchor-0" 359 1377 basechar 0
LayerCount: 6
Fore
SplineSet
390 1160 m 1,0,-1
 390 140 l 1,1,-1
 950 140 l 1,2,-1
 950 270 l 2,3,4
 950 299 950 299 970.5 319.5 c 128,-1,5
 991 340 991 340 1020 340 c 128,-1,6
 1049 340 1049 340 1069.5 319.5 c 128,-1,7
 1090 299 1090 299 1090 270 c 2,8,-1
 1090 70 l 2,9,10
 1090 40 1090 40 1070 20 c 128,-1,11
 1050 0 1050 0 1020 0 c 2,12,-1
 160 0 l 2,13,14
 130 0 130 0 110 20 c 128,-1,15
 90 40 90 40 90 70 c 128,-1,16
 90 100 90 100 110 120 c 128,-1,17
 130 140 130 140 160 140 c 2,18,-1
 250 140 l 1,19,-1
 250 1160 l 1,20,-1
 160 1160 l 2,21,22
 130 1160 130 1160 110 1180 c 128,-1,23
 90 1200 90 1200 90 1230 c 128,-1,24
 90 1260 90 1260 110 1280 c 128,-1,25
 130 1300 130 1300 160 1300 c 2,26,-1
 570 1300 l 2,27,28
 600 1300 600 1300 620 1280 c 128,-1,29
 640 1260 640 1260 640 1230 c 128,-1,30
 640 1200 640 1200 620 1180 c 128,-1,31
 600 1160 600 1160 570 1160 c 2,32,-1
 390 1160 l 1,0,-1
EndSplineSet
Validated: 1
Layer: 2
SplineSet
390 1160 m 5
 390 140 l 5
 950 140 l 5
 950 270 l 5
 950 309 981 340 1020 340 c 4
 1059 340 1090 309 1090 270 c 5
 1090 70 l 5
 1090 29.6669921875 1060.33398438 0 1020 0 c 5
 160 0 l 5
 119.671875 0 90 29.6650390625 90 70 c 132
 90 110.333007812 119.669921875 140 160 140 c 5
 250 140 l 5
 250 1160 l 5
 160 1160 l 6
 120 1160 90 1189.66699219 90 1230 c 132
 90 1270.33496094 119.672343033 1299.90163986 160 1300 c 6
 570 1301 l 6
 610.333007812 1301 640 1271.33300781 640 1231 c 132
 640 1190.66503906 610 1161 570 1161 c 6
 390 1160 l 5
EndSplineSet
EndChar

StartChar: Lslash
Encoding: 290 321 63
Width: 1200
GlyphClass: 2
Flags: W
AnchorPoint: "Anchor-2" 939 759 basechar 0
AnchorPoint: "Anchor-1" 659 0 basechar 0
AnchorPoint: "Anchor-0" 356 1377 basechar 0
LayerCount: 6
Fore
SplineSet
151 487 m 2,0,1
 138 480 138 480 120 480 c 0,2,3
 91 480 91 480 70.5 500.5 c 128,-1,4
 50 521 50 521 50 550 c 0,5,6
 50 594 50 594 89 613 c 2,7,-1
 749 943 l 2,8,9
 762 950 762 950 780 950 c 0,10,11
 809 950 809 950 829.5 929.5 c 128,-1,12
 850 909 850 909 850 880 c 0,13,14
 850 836 850 836 811 817 c 2,15,-1
 151 487 l 2,0,1
390 1160 m 1,16,-1
 390 140 l 1,17,-1
 950 140 l 1,18,-1
 950 270 l 2,19,20
 950 299 950 299 970.5 319.5 c 128,-1,21
 991 340 991 340 1020 340 c 128,-1,22
 1049 340 1049 340 1069.5 319.5 c 128,-1,23
 1090 299 1090 299 1090 270 c 2,24,-1
 1090 70 l 2,25,26
 1090 40 1090 40 1070 20 c 128,-1,27
 1050 0 1050 0 1020 0 c 2,28,-1
 160 0 l 2,29,30
 130 0 130 0 110 20 c 128,-1,31
 90 40 90 40 90 70 c 128,-1,32
 90 100 90 100 110 120 c 128,-1,33
 130 140 130 140 160 140 c 2,34,-1
 250 140 l 1,35,-1
 250 1160 l 1,36,-1
 160 1160 l 2,37,38
 130 1160 130 1160 110 1180 c 128,-1,39
 90 1200 90 1200 90 1230 c 128,-1,40
 90 1260 90 1260 110 1280 c 128,-1,41
 130 1300 130 1300 160 1300 c 2,42,-1
 570 1301 l 2,43,44
 600 1301 600 1301 620 1281 c 128,-1,45
 640 1261 640 1261 640 1231 c 128,-1,46
 640 1201 640 1201 620 1181 c 128,-1,47
 600 1161 600 1161 570 1161 c 2,48,-1
 390 1160 l 1,16,-1
EndSplineSet
Validated: 5
Layer: 2
SplineSet
390 1160 m 1
 390 140 l 1
 950 140 l 1
 950 270 l 1
 950 309 981 340 1020 340 c 0
 1059 340 1090 309 1090 270 c 1
 1090 70 l 1
 1090 29.6669921875 1060.33398438 0 1020 0 c 1
 160 0 l 1
 119.671875 0 90 29.6650390625 90 70 c 128
 90 110.333007812 119.669921875 140 160 140 c 1
 250 140 l 1
 250 1160 l 1
 160 1160 l 2
 120 1160 90 1189.66699219 90 1230 c 128
 90 1270.33496094 119.672343033 1299.90163986 160 1300 c 2
 570 1301 l 2
 610.333007812 1301 640 1271.33300781 640 1231 c 128
 640 1190.66503906 610 1161 570 1161 c 2
 390 1160 l 1
749 943 m 1025
151 487 m 5
 142 482 131 480 120 480 c 4
 81 480 50 511 50 550 c 4
 50 578 66 602 89 613 c 5
 749 943 l 5
 758 948 769 950 780 950 c 4
 819 950 850 919 850 880 c 4
 850 852 834 828 811 817 c 5
 151 487 l 5
EndSplineSet
Layer: 3
SplineSet
267 0 m 5
 267 536 l 5
 153 465 l 5
 81 578 l 5
 267 694 l 5
 267 1377 l 5
 441 1377 l 5
 441 801 l 5
 769 1005 l 5
 844 893 l 5
 441 644 l 5
 441 155 l 5
 1070 155 l 5
 1050 0 l 5
 267 0 l 5
EndSplineSet
EndChar

StartChar: M
Encoding: 77 77 64
Width: 1200
GlyphClass: 2
Flags: W
AnchorPoint: "Anchor-1" 600 0 basechar 0
AnchorPoint: "Anchor-0" 600 1377 basechar 0
LayerCount: 6
Fore
SplineSet
665 484 m 2,0,1
 657 464 657 464 639.5 452 c 128,-1,2
 622 440 622 440 600 440 c 128,-1,3
 578 440 578 440 560.5 452 c 128,-1,4
 543 464 543 464 535 484 c 2,5,-1
 300 1048 l 1,6,-1
 300 140 l 1,7,-1
 390 140 l 2,8,9
 420 140 420 140 440 120 c 128,-1,10
 460 100 460 100 460 70 c 128,-1,11
 460 40 460 40 440 20 c 128,-1,12
 420 0 420 0 390 0 c 2,13,-1
 70 0 l 2,14,15
 40 0 40 0 20 20 c 128,-1,16
 0 40 0 40 0 70 c 128,-1,17
 0 100 0 100 20 120 c 128,-1,18
 40 140 40 140 70 140 c 2,19,-1
 160 140 l 1,20,-1
 160 1160 l 1,21,-1
 70 1160 l 2,22,23
 40 1160 40 1160 20 1180 c 128,-1,24
 0 1200 0 1200 0 1230 c 128,-1,25
 0 1260 0 1260 20 1280 c 128,-1,26
 40 1300 40 1300 70 1300 c 2,27,-1
 300 1300 l 2,28,29
 322 1300 322 1300 339.5 1288 c 128,-1,30
 357 1276 357 1276 365 1256 c 2,31,-1
 600 692 l 1,32,-1
 835 1256 l 2,33,34
 843 1276 843 1276 860.5 1288 c 128,-1,35
 878 1300 878 1300 900 1300 c 2,36,-1
 1130 1300 l 2,37,38
 1160 1300 1160 1300 1180 1280 c 128,-1,39
 1200 1260 1200 1260 1200 1230 c 128,-1,40
 1200 1200 1200 1200 1180 1180 c 128,-1,41
 1160 1160 1160 1160 1130 1160 c 2,42,-1
 1040 1160 l 1,43,-1
 1040 140 l 1,44,-1
 1130 140 l 2,45,46
 1160 140 1160 140 1180 120 c 128,-1,47
 1200 100 1200 100 1200 70 c 128,-1,48
 1200 40 1200 40 1180 20 c 128,-1,49
 1160 0 1160 0 1130 0 c 2,50,-1
 810 0 l 2,51,52
 780 0 780 0 760 20 c 128,-1,53
 740 40 740 40 740 70 c 128,-1,54
 740 100 740 100 760 120 c 128,-1,55
 780 140 780 140 810 140 c 2,56,-1
 900 140 l 1,57,-1
 900 1048 l 1,58,-1
 665 484 l 2,0,1
EndSplineSet
Validated: 1
Layer: 2
SplineSet
665 484 m 5
 654.79296875 458.08203125 629.786132812 440 600 440 c 4
 570.213867188 440 545.20703125 458.08203125 535 484 c 5
 300 1048 l 5
 300 140 l 5
 390 140 l 5
 430.33203125 140 460 110.334960938 460 70 c 132
 460 29.6669921875 430.333007812 0 390 0 c 6
 70 0 l 6
 29.6743315697 0 0 29.6650390625 0 70 c 132
 0 110.333007812 29.669921875 140 70 140 c 5
 160 140 l 5
 160 1160 l 5
 70 1160 l 5
 29.671875 1160 0 1189.66503906 0 1230 c 132
 0 1270.33300781 29.669921875 1300 70 1300 c 5
 300 1300 l 5
 329.785650153 1300 354.79296875 1281.91796875 365 1256 c 5
 600 692 l 5
 835 1256 l 5
 845.20703125 1281.91796875 870.213867188 1300 900 1300 c 5
 1130 1300 l 5
 1170.33007812 1300 1200 1270.33300781 1200 1230 c 132
 1200 1189.66503906 1170.328125 1160 1130 1160 c 5
 1040 1160 l 5
 1040 140 l 5
 1130 140 l 5
 1170.33007812 140 1200 110.333007812 1200 70 c 132
 1200 29.6650390625 1170.328125 0 1130 0 c 6
 810 0 l 6
 769.668472552 0 740 29.6669921875 740 70 c 132
 740 110.334960938 769.66796875 140 810 140 c 5
 900 140 l 5
 900 1048 l 5
 665 484 l 5
EndSplineSet
EndChar

StartChar: N
Encoding: 78 78 65
Width: 1200
GlyphClass: 2
Flags: W
AnchorPoint: "Anchor-1" 600 0 basechar 0
AnchorPoint: "Anchor-0" 597 1377 basechar 0
LayerCount: 6
Fore
SplineSet
424.288085938 1258 m 6,0,1
 416.152155452 1276.90993237 416.152155452 1276.90993237 398.807437139 1288.45496619 c 132,-1,2
 381.462718825 1300 381.462718825 1300 360 1300 c 6,3,-1
 130 1300 l 6,4,5
 100 1300 100 1300 80 1280 c 132,-1,6
 60 1260 60 1260 60 1230 c 132,-1,7
 60 1200 60 1200 80 1180 c 132,-1,8
 100 1160 100 1160 130 1160 c 6,9,-1
 220 1160 l 5,10,-1
 220 140 l 5,11,-1
 130 140 l 6,12,13
 100 140 100 140 80 120 c 132,-1,14
 60 100 60 100 60 70 c 132,-1,15
 60 40 60 40 80 20 c 132,-1,16
 100 0 100 0 130 0 c 6,17,-1
 450 0 l 6,18,19
 480 0 480 0 500 20 c 132,-1,20
 520 40 520 40 520 70 c 132,-1,21
 520 100 520 100 500 120 c 132,-1,22
 480 140 480 140 450 140 c 6,23,-1
 360 140 l 5,24,-1
 360 1049 l 5,25,-1
 775.711914062 42 l 6,26,27
 783.847844548 23.0900676276 783.847844548 23.0900676276 801.192562861 11.5450338138 c 132,-1,28
 818.537281174 0 818.537281174 0 840 0 c 6,29,-1
 910 0 l 6,30,31
 939 0 939 0 959.5 20.5 c 132,-1,32
 980 41 980 41 980 70 c 6,33,-1
 980 1160 l 5,34,-1
 1070 1160 l 6,35,36
 1100 1160 1100 1160 1120 1180 c 132,-1,37
 1140 1200 1140 1200 1140 1230 c 132,-1,38
 1140 1260 1140 1260 1120 1280 c 132,-1,39
 1100 1300 1100 1300 1070 1300 c 6,40,-1
 750 1300 l 6,41,42
 720 1300 720 1300 700 1280 c 132,-1,43
 680 1260 680 1260 680 1230 c 132,-1,44
 680 1200 680 1200 700 1180 c 132,-1,45
 720 1160 720 1160 750 1160 c 6,46,-1
 840 1160 l 5,47,-1
 840 251 l 5,48,-1
 424.288085938 1258 l 6,0,1
EndSplineSet
Validated: 9
Layer: 2
SplineSet
424.288085938 1258 m 5
 413.599264608 1282.84348764 389.013375834 1300 360 1300 c 5
 130 1300 l 5
 89.669921875 1300 60 1270.33300781 60 1230 c 132
 60 1189.66503906 89.671875 1160 130 1160 c 5
 220 1160 l 5
 220 140 l 5
 130 140 l 5
 89.669921875 140 60 110.333007812 60 70 c 132
 60 29.6650390625 89.6723142563 0 130 0 c 6
 450 0 l 6
 490.333984375 0 520 29.6669921875 520 70 c 132
 520 110.334960938 490.33203125 140 450 140 c 5
 360 140 l 5
 360 1049 l 5
 775.711914062 42 l 5
 786.400735392 17.1565123575 810.986624166 0 840 0 c 5
 910 0 l 5
 949 0 980 31 980 70 c 5
 980 1160 l 5
 1070 1160 l 5
 1110.33398438 1160 1140 1189.66699219 1140 1230 c 132
 1140 1270.33496094 1110.33203125 1300 1070 1300 c 6
 750 1300 l 6
 709.671337704 1300 680 1270.33300781 680 1230 c 132
 680 1189.66503906 709.672851562 1160 750 1160 c 5
 840 1160 l 5
 840 251 l 5
 424.288085938 1258 l 5
0 0 m 1025
840 1160 m 1025
EndSplineSet
EndChar

StartChar: Eng
Encoding: 294 330 70
Width: 1200
GlyphClass: 2
Flags: W
AnchorPoint: "Anchor-1" 600 0 basechar 0
AnchorPoint: "Anchor-0" 597 1377 basechar 0
LayerCount: 6
Fore
SplineSet
790 0 m 1,0,-1
 305 1211 l 1,1,2
 306 1181 306 1181 312 1097.5 c 128,-1,3
 318 1014 318 1014 323 905.5 c 128,-1,4
 328 797 328 797 328 690 c 2,5,-1
 328 0 l 1,6,-1
 167 0 l 1,7,-1
 167 1377 l 1,8,-1
 402 1377 l 1,9,-1
 895 161 l 1,10,11
 894 190 894 190 888 267.5 c 128,-1,12
 882 345 882 345 877 454.5 c 128,-1,13
 872 564 872 564 872 688 c 2,14,-1
 872 1377 l 1,15,-1
 1033 1377 l 1,16,-1
 1033 -123 l 2,17,18
 1033 -275 1033 -275 953.5 -350 c 128,-1,19
 874 -425 874 -425 743 -425 c 0,20,21
 665 -425 665 -425 609.5 -401.5 c 128,-1,22
 554 -378 554 -378 518 -351 c 1,23,-1
 584 -236 l 1,24,25
 619 -257 619 -257 652 -270 c 128,-1,26
 685 -283 685 -283 736 -283 c 0,27,28
 860 -283 860 -283 860 -133 c 2,29,-1
 860 0 l 1,30,-1
 790 0 l 1,0,-1
EndSplineSet
Validated: 1
EndChar

StartChar: O
Encoding: 79 79 71
Width: 1200
GlyphClass: 2
Flags: W
AnchorPoint: "Anchor-1" 600 0 basechar 0
AnchorPoint: "Anchor-0" 600 1377 basechar 0
LayerCount: 6
Fore
SplineSet
1999 1500 m 1025,0,-1
600 120 m 128,-1,2
 444 120 444 120 347 257 c 128,-1,3
 250 394 250 394 250 650 c 128,-1,4
 250 906 250 906 347 1043 c 128,-1,5
 444 1180 444 1180 600 1180 c 128,-1,6
 756 1180 756 1180 853 1043 c 128,-1,7
 950 906 950 906 950 650 c 128,-1,8
 950 394 950 394 853 257 c 128,-1,1
 756 120 756 120 600 120 c 128,-1,2
600 -20 m 128,-1,10
 706 -20 706 -20 794.5 22.5 c 128,-1,11
 883 65 883 65 949.5 147 c 128,-1,12
 1016 229 1016 229 1053 357.5 c 128,-1,13
 1090 486 1090 486 1090 650 c 128,-1,14
 1090 814 1090 814 1053 942.5 c 128,-1,15
 1016 1071 1016 1071 949.5 1153 c 128,-1,16
 883 1235 883 1235 794.5 1277.5 c 128,-1,17
 706 1320 706 1320 600 1320 c 128,-1,18
 494 1320 494 1320 405.5 1277.5 c 128,-1,19
 317 1235 317 1235 250.5 1153 c 128,-1,20
 184 1071 184 1071 147 942.5 c 128,-1,21
 110 814 110 814 110 650 c 128,-1,22
 110 486 110 486 147 357.5 c 128,-1,23
 184 229 184 229 250.5 147 c 128,-1,24
 317 65 317 65 405.5 22.5 c 128,-1,9
 494 -20 494 -20 600 -20 c 128,-1,10
600 650 m 1041,25,-1
EndSplineSet
Validated: 9
Layer: 2
SplineSet
600 120 m 132
 400 120 250 297 250 650 c 132
 250 1003 400 1180 600 1180 c 132
 800 1180 950 1003 950 650 c 132
 950 297 800 120 600 120 c 132
600 -20 m 132
 879 -20 1090 203 1090 650 c 132
 1090 1097 879 1320 600 1320 c 132
 321 1320 110 1097 110 650 c 132
 110 203 321 -20 600 -20 c 132
600 650 m 1041
EndSplineSet
Substitution2: "Single Substitution lookup 12 subtable" ordmasculine
Substitution2: "'aalt' Access All Alternates lookup 0 subtable" ordmasculine
EndChar

StartChar: Oslash
Encoding: 216 216 79
Width: 1200
GlyphClass: 2
Flags: W
AnchorPoint: "Anchor-1" 600 0 basechar 0
AnchorPoint: "Anchor-0" 600 1377 basechar 0
LayerCount: 6
Fore
SplineSet
915 1013 m 1,0,-1
 1021 1119 l 2,1,2
 1042 1140 1042 1140 1070 1140 c 0,3,4
 1099 1140 1099 1140 1119.5 1119.5 c 128,-1,5
 1140 1099 1140 1099 1140 1070 c 0,6,7
 1140 1041.99951172 1140 1041.99951172 1119 1021 c 2,8,-1
 1013 915 l 1,9,10
 1120 776 1120 776 1120 600 c 0,11,12
 1120 494 1120 494 1079 398 c 128,-1,13
 1038 302 1038 302 968 232 c 128,-1,14
 898 162 898 162 802 121 c 128,-1,15
 706 80 706 80 600 80 c 0,16,17
 424 80 424 80 285 187 c 1,18,-1
 179 81 l 2,19,20
 158 60 158 60 130 60 c 0,21,22
 101 60 101 60 80.5 80.5 c 128,-1,23
 60 101 60 101 60 130 c 0,24,25
 60 158.000488281 60 158.000488281 81 179 c 2,26,-1
 187 285 l 1,27,28
 80 424 80 424 80 600 c 0,29,30
 80 706 80 706 121 802 c 128,-1,31
 162 898 162 898 232 968 c 128,-1,32
 302 1038 302 1038 398 1079 c 128,-1,33
 494 1120 494 1120 600 1120 c 0,34,35
 776 1120 776 1120 915 1013 c 1,0,-1
913 815 m 1,36,-1
 385 287 l 1,37,38
 482 220 482 220 600 220 c 0,39,40
 758 220 758 220 869 331 c 128,-1,41
 980 442 980 442 980 600 c 0,42,43
 980 718 980 718 913 815 c 1,36,-1
815 913 m 5,44,45
 718 980 718 980 600 980 c 4,46,47
 442 980 442 980 331 869 c 132,-1,48
 220 758 220 758 220 600 c 4,49,50
 220 482 220 482 287 385 c 5,51,52
 287 385 287 385 815 913 c 5,44,45
EndSplineSet
Validated: 1
Layer: 2
SplineSet
915 1013 m 5
 1021 1119 l 5
 1035 1133 1051.33300781 1140 1070 1140 c 4
 1109.04882812 1140 1140 1109.04882812 1140 1070 c 4
 1140 1051.33300781 1133 1035 1119 1021 c 5
 1013 915 l 5
 1080 828 1120 718 1120 600 c 4
 1120 313 887 80 600 80 c 4
 482 80 372 120 285 187 c 5
 179 81 l 5
 165 67 148.666992188 60 130 60 c 4
 90.951171875 60 60 90.951171875 60 130 c 4
 60 148.666992188 67 165 81 179 c 5
 187 285 l 5
 120 372 80 482 80 600 c 4
 80 887 313 1120 600 1120 c 4
 718 1120 828 1080 915 1013 c 5
913 815 m 5
 385 287 l 5
 446 245 520 220 600 220 c 4
 810 220 980 390 980 600 c 4
 980 680 955 754 913 815 c 5
815 913 m 5
 287 385 l 5
 245 446 220 520 220 600 c 4
 220 810 390 980 600 980 c 4
 680 980 754 955 815 913 c 5
EndSplineSet
Layer: 3
SplineSet
600 1399 m 4
 646 1399 689 1393.66666667 729 1383 c 5
 793 1606 l 5
 944 1567 l 5
 867 1319 l 5
 946.333333333 1261.66666667 1006.16666667 1178.5 1046.5 1069.5 c 132
 1086.83333333 960.5 1107 833 1107 687 c 4
 1107 547.666666667 1088 424.666666667 1050 318 c 132
 1012 211.333333333 955.5 127.833333333 880.5 67.5 c 132
 805.5 7.16666666667 712 -23 600 -23 c 4
 555.333333333 -23 513 -18 473 -8 c 5
 409 -220 l 5
 259 -181 l 5
 333 56 l 5
 253.666666667 112.666666667 193.833333333 195.166666667 153.5 303.5 c 132
 113.166666667 411.833333333 93 539 93 685 c 4
 93 824.333333333 112 947.666666667 150 1055 c 132
 188 1162.33333333 244.5 1246.5 319.5 1307.5 c 132
 394.5 1368.5 488 1399 600 1399 c 4
600 1253 m 4
 484.666666667 1253 401.833333333 1204 351.5 1106 c 132
 301.166666667 1008 276 867.666666667 276 685 c 4
 276 558.333333333 285.666666667 455.333333333 305 376 c 132
 324.333333333 296.666666667 354.333333333 236.666666667 395 196 c 5
 697 1241 l 5
 668.333333333 1249 636 1253 600 1253 c 4
924 687 m 4
 924 939 884 1104 804 1182 c 5
 502 136 l 5
 531.333333333 128 564 124 600 124 c 4
 715.333333333 124 798.166666667 172 848.5 268 c 132
 898.833333333 364 924 503.666666667 924 687 c 4
EndSplineSet
Layer: 4
SplineSet
915.368599652 1013.36859965 m 5
 815.265014312 913.265014312 l 5
 853.617180509 886.87280995 886.87280995 853.617180509 913.265014312 815.265014312 c 5
 1013.36859965 915.368599652 l 1029
284.631400348 186.631400348 m 5
 384.734985688 286.734985688 l 5
 346.382819491 313.12719005 313.12719005 346.382819491 286.734985688 384.734985688 c 5
 186.631400348 284.631400348 l 1029
915.368599652 1013.36859965 m 5
 952.220119325 985.200814241 985.200814241 952.220119325 1013.36859965 915.368599652 c 1029
284.631400348 186.631400348 m 5
 247.779880675 214.799185759 214.799185759 247.779880675 186.631400348 284.631400348 c 1029
EndSplineSet
EndChar

StartChar: OE
Encoding: 299 338 82
Width: 1200
GlyphClass: 2
Flags: W
AnchorPoint: "Anchor-1" 600 0 basechar 0
AnchorPoint: "Anchor-0" 600 1377 basechar 0
LayerCount: 6
Fore
SplineSet
423 1399 m 0,0,1
 497 1399 497 1399 566 1377 c 1,2,-1
 1217 1377 l 1,3,-1
 1196 1236 l 1,4,-1
 709 1236 l 1,5,6
 764 1169 764 1169 797.5 1055 c 128,-1,7
 831 941 831 941 838 769 c 1,8,-1
 1145 769 l 1,9,-1
 1145 628 l 1,10,-1
 838 628 l 1,11,12
 834 450 834 450 798 331 c 128,-1,13
 762 212 762 212 701 141 c 1,14,-1
 1235 141 l 1,15,-1
 1235 0 l 1,16,-1
 560 0 l 1,17,18
 527 -10 527 -10 493.5 -16.5 c 128,-1,19
 460 -23 460 -23 423 -23 c 0,20,21
 -3 -23 -3 -23 -3 685 c 0,22,23
 -3 1030 -3 1030 103.5 1214.5 c 128,-1,24
 210 1399 210 1399 423 1399 c 0,0,1
423 1257 m 0,25,26
 301 1257 301 1257 242 1124 c 128,-1,27
 183 991 183 991 183 685 c 256,28,29
 183 379 183 379 244 249 c 128,-1,30
 305 119 305 119 423 119 c 0,31,32
 549 119 549 119 608 250 c 128,-1,33
 667 381 667 381 667 687 c 256,34,35
 667 993 667 993 609.5 1125 c 128,-1,36
 552 1257 552 1257 423 1257 c 0,25,26
EndSplineSet
Validated: 1
EndChar

StartChar: P
Encoding: 80 80 83
Width: 1200
GlyphClass: 2
Flags: W
AnchorPoint: "Anchor-1" 600 0 basechar 0
AnchorPoint: "Anchor-0" 600 1377 basechar 0
LayerCount: 6
Fore
SplineSet
675 530 m 2,0,-1
 450 530 l 1,1,-1
 450 140 l 1,2,-1
 630 140 l 2,3,4
 660 140 660 140 680 120 c 128,-1,5
 700 100 700 100 700 70 c 128,-1,6
 700 40 700 40 680 20 c 128,-1,7
 660 0 660 0 630 0 c 2,8,-1
 220 0 l 2,9,10
 191 0 191 0 170.5 20.5 c 128,-1,11
 150 41 150 41 150 70 c 128,-1,12
 150 99 150 99 170.5 119.5 c 128,-1,13
 191 140 191 140 220 140 c 2,14,-1
 310 140 l 1,15,-1
 310 1160 l 1,16,-1
 220 1160 l 2,17,18
 191 1160 191 1160 170.5 1180.5 c 128,-1,19
 150 1201 150 1201 150 1230 c 128,-1,20
 150 1259 150 1259 170.5 1279.5 c 128,-1,21
 191 1300 191 1300 220 1300 c 2,22,-1
 675 1300 l 2,23,24
 835 1300 835 1300 947.5 1187.5 c 128,-1,25
 1060 1075 1060 1075 1060 915 c 128,-1,26
 1060 755 1060 755 947.5 642.5 c 128,-1,27
 835 530 835 530 675 530 c 2,0,-1
675 670 m 2,28,29
 776 670 776 670 848 742 c 128,-1,30
 920 814 920 814 920 915 c 128,-1,31
 920 1016 920 1016 848 1088 c 128,-1,32
 776 1160 776 1160 675 1160 c 2,33,34
 675 1160 675 1160 450 1160 c 1,35,-1
 450 670 l 1,36,-1
 675 670 l 2,28,29
EndSplineSet
Validated: 1
Layer: 2
SplineSet
675 530 m 5
 450 530 l 5
 450 140 l 5
 630 140 l 6
 670 140 700 110.334960938 700 70 c 132
 700 29.6669921875 670.334960938 0 630 0 c 5
 220 0 l 5
 181 0 150 31 150 70 c 7
 150 109 181 140 220 140 c 5
 310 140 l 5
 310 1160 l 5
 220 1160 l 5
 181 1160 150 1191 150 1230 c 7
 150 1269 181 1300 220 1300 c 5
 675 1300 l 5
 888 1300 1060 1128 1060 915 c 4
 1060 702 888 530 675 530 c 5
675 670 m 5
 450 670 l 5
 450 1160 l 5
 675 1160 l 5
 810 1160 920 1050 920 915 c 4
 920 780 810 670 675 670 c 5
EndSplineSet
EndChar

StartChar: Thorn
Encoding: 222 222 84
Width: 1200
GlyphClass: 2
Flags: W
AnchorPoint: "Anchor-1" 600 0 basechar 0
AnchorPoint: "Anchor-0" 600 1377 basechar 0
LayerCount: 6
Fore
SplineSet
450 1035 m 1,0,-1
 675 1035 l 2,1,2
 835 1035 835 1035 947.5 922.5 c 128,-1,3
 1060 810 1060 810 1060 650 c 128,-1,4
 1060 490 1060 490 947.5 377.5 c 128,-1,5
 835 265 835 265 675 265 c 2,6,-1
 450 265 l 1,7,-1
 450 140 l 1,8,-1
 630 140 l 2,9,10
 660 140 660 140 680 120 c 128,-1,11
 700 100 700 100 700 70 c 128,-1,12
 700 40 700 40 680 20 c 128,-1,13
 660 0 660 0 630 0 c 2,14,-1
 220 0 l 2,15,16
 191 0 191 0 170.5 20.5 c 128,-1,17
 150 41 150 41 150 70 c 128,-1,18
 150 99 150 99 170.5 119.5 c 128,-1,19
 191 140 191 140 220 140 c 2,20,-1
 310 140 l 1,21,-1
 310 1160 l 1,22,-1
 220 1160 l 2,23,24
 191 1160 191 1160 170.5 1180.5 c 128,-1,25
 150 1201 150 1201 150 1230 c 128,-1,26
 150 1259 150 1259 170.5 1279.5 c 128,-1,27
 191 1300 191 1300 220 1300 c 2,28,-1
 630 1300 l 2,29,30
 660 1300 660 1300 680 1280 c 128,-1,31
 700 1260 700 1260 700 1230 c 128,-1,32
 700 1200 700 1200 680 1180 c 128,-1,33
 660 1160 660 1160 630 1160 c 2,34,-1
 450 1160 l 1,35,-1
 450 1035 l 1,0,-1
675 405 m 2,36,37
 776 405 776 405 848 477 c 128,-1,38
 920 549 920 549 920 650 c 128,-1,39
 920 751 920 751 848 823 c 128,-1,40
 776 895 776 895 675 895 c 2,41,42
 675 895 675 895 450 895 c 1,43,-1
 450 405 l 1,44,-1
 675 405 l 2,36,37
EndSplineSet
Validated: 1
Layer: 2
SplineSet
450 1035 m 5
 675 1035 l 5
 888 1035 1060 863 1060 650 c 4
 1060 437 888 265 675 265 c 5
 450 265 l 5
 450 140 l 5
 630 140 l 6
 670 140 700 110.334960938 700 70 c 132
 700 29.6669921875 670.334960938 0 630 0 c 5
 220 0 l 5
 181 0 150 31 150 70 c 7
 150 109 181 140 220 140 c 5
 310 140 l 5
 310 1160 l 5
 220 1160 l 5
 181 1160 150 1191 150 1230 c 7
 150 1269 181 1300 220 1300 c 5
 630 1300 l 5
 670.334960938 1300 700 1270.33300781 700 1230 c 132
 700 1189.66503906 670 1160 630 1160 c 6
 450 1160 l 5
 450 1035 l 5
675 405 m 5
 450 405 l 5
 450 895 l 5
 675 895 l 5
 810 895 920 785 920 650 c 4
 920 515 810 405 675 405 c 5
EndSplineSet
EndChar

StartChar: Q
Encoding: 81 81 85
Width: 1200
GlyphClass: 2
Flags: W
AnchorPoint: "Anchor-1" 600 0 basechar 0
AnchorPoint: "Anchor-0" 600 1377 basechar 0
LayerCount: 6
Fore
SplineSet
1001 -140 m 4,0,1
 1028.23156098 -140 1028.23156098 -140 1053.48118051 -135.29650692 c 132,-1,2
 1078.73080004 -130.593013839 1078.73080004 -130.593013839 1098.51621437 -122.159641723 c 132,-1,3
 1118.30162871 -113.726269607 1118.30162871 -113.726269607 1134.56320607 -104.731780471 c 132,-1,4
 1150.82478342 -95.737291335 1150.82478342 -95.737291335 1164.14488147 -84.380863024 c 132,-1,5
 1177.46497951 -73.024434713 1177.46497951 -73.024434713 1185.44837029 -65.4342278561 c 132,-1,6
 1193.43176106 -57.8440209992 1193.43176106 -57.8440209992 1200.99639841 -49.2598148279 c 132,-1,7
 1208.56103576 -40.6756086566 1208.56103576 -40.6756086566 1209.24707031 -40 c 4,8,9
 1230 -19.5625602743 1230 -19.5625602743 1230 10 c 4,10,11
 1230 39 1230 39 1209.5 59.5 c 132,-1,12
 1189 80 1189 80 1160 80 c 132,-1,13
 1131.0615668 80 1131.0615668 80 1110.75292969 60 c 4,14,15
 1110.14111324 59.3974845047 1110.14111324 59.3974845047 1100.95391427 49.3416699381 c 132,-1,16
 1091.76671529 39.2858553715 1091.76671529 39.2858553715 1084.47692167 32.9740175619 c 132,-1,17
 1077.18712805 26.6621797523 1077.18712805 26.6621797523 1065.18569552 17.9162949381 c 132,-1,18
 1053.18426298 9.17041012383 1053.18426298 9.17041012383 1039.07214042 4.58520506192 c 132,-1,19
 1024.96001786 0 1024.96001786 0 1010 0 c 4,20,21
 1001 0 1001 0 993 3 c 132,-1,22
 985 6 985 6 977.5 13 c 132,-1,23
 970 20 970 20 964 27 c 132,-1,24
 958 34 958 34 951.5 46.5 c 132,-1,25
 945 59 945 59 940.5 68 c 132,-1,26
 936 77 936 77 930.5 92.5 c 132,-1,27
 925 108 925 108 921.5 117 c 132,-1,28
 918 126 918 126 912.5 142.5 c 132,-1,29
 907 159 907 159 904 167 c 4,30,31
 857 301 857 301 776 380.5 c 132,-1,32
 695 460 695 460 580 460 c 132,-1,33
 465 460 465 460 384.5 380.5 c 132,-1,34
 304 301 304 301 256 167 c 5,35,-1
 385 115 l 5,36,37
 418 212 418 212 463.5 266 c 132,-1,38
 509 320 509 320 580 320 c 132,-1,39
 651 320 651 320 696.5 265.5 c 132,-1,40
 742 211 742 211 775 115 c 4,41,42
 798 47 798 47 824 -2 c 132,-1,43
 850 -51 850 -51 871.5 -77 c 132,-1,44
 893 -103 893 -103 918 -118 c 132,-1,45
 943 -133 943 -133 960.5 -136.5 c 132,-1,46
 978 -140 978 -140 1001 -140 c 4,0,1
580 120 m 128,-1,48
 424 120 424 120 327 257 c 128,-1,49
 230 394 230 394 230 650 c 128,-1,50
 230 906 230 906 327 1043 c 128,-1,51
 424 1180 424 1180 580 1180 c 128,-1,52
 736 1180 736 1180 833 1043 c 128,-1,53
 930 906 930 906 930 650 c 128,-1,54
 930 394 930 394 833 257 c 128,-1,47
 736 120 736 120 580 120 c 128,-1,48
580 -20 m 128,-1,56
 686 -20 686 -20 774.5 22.5 c 128,-1,57
 863 65 863 65 929.5 147 c 128,-1,58
 996 229 996 229 1033 357.5 c 128,-1,59
 1070 486 1070 486 1070 650 c 128,-1,60
 1070 814 1070 814 1033 942.5 c 128,-1,61
 996 1071 996 1071 929.5 1153 c 128,-1,62
 863 1235 863 1235 774.5 1277.5 c 128,-1,63
 686 1320 686 1320 580 1320 c 128,-1,64
 474 1320 474 1320 385.5 1277.5 c 128,-1,65
 297 1235 297 1235 230.5 1153 c 128,-1,66
 164 1071 164 1071 127 942.5 c 128,-1,67
 90 814 90 814 90 650 c 128,-1,68
 90 486 90 486 127 357.5 c 128,-1,69
 164 229 164 229 230.5 147 c 128,-1,70
 297 65 297 65 385.5 22.5 c 128,-1,55
 474 -20 474 -20 580 -20 c 128,-1,56
EndSplineSet
Validated: 5
Layer: 2
SplineSet
1001 -140 m 4
 1134 -140 1196.65234375 -52.4033203125 1209.24707031 -40 c 4
 1222.09472656 -27.34765625 1230 -9.693359375 1230 10 c 4
 1230 49 1199 80 1160 80 c 4
 1140.69335938 80 1123.34765625 72.4033203125 1110.75292969 60 c 4
 1097.90527344 47.34765625 1063 0 1010 0 c 4
 955 0 929 96 904 167 c 4
 845.801757812 332.284179688 742.517578125 460 580 460 c 4
 417.482421875 460 315 332 256 167 c 5
 385 115 l 5
 424 228 477.813476562 320 580 320 c 4
 682.186523438 320 736.113320847 228.039076122 775 115 c 4
 856.530593449 -122 938 -140 1001 -140 c 4
580 120 m 128
 380 120 230 297 230 650 c 128
 230 1003 380 1180 580 1180 c 128
 780 1180 930 1003 930 650 c 128
 930 297 780 120 580 120 c 128
580 -20 m 128
 859 -20 1070 203 1070 650 c 128
 1070 1097 859 1320 580 1320 c 128
 301 1320 90 1097 90 650 c 128
 90 203 301 -20 580 -20 c 128
EndSplineSet
Layer: 3
SplineSet
905 167 m 0
 930 96 955 0 1010 0 c 0
 1063 0 1097.90527344 47.34765625 1110.75292969 60 c 1024
1090 10 m 0
 1090 49 1121 80 1160 80 c 0
 1199 80 1230 49 1230 10 c 0
 1230 -29 1199 -60 1160 -60 c 0
 1121 -60 1090 -29 1090 10 c 0
1049 -30 m 0
 1049 9 1080 40 1119 40 c 0
 1158 40 1189 9 1189 -30 c 0
 1189 -69 1158 -100 1119 -100 c 0
 1080 -100 1049 -69 1049 -30 c 0
816 21 m 0
 816 60 847 91 886 91 c 0
 925 91 956 60 956 21 c 0
 956 -18 925 -49 886 -49 c 0
 847 -49 816 -18 816 21 c 0
872 -49 m 0
 872 -10 903 21 942 21 c 0
 981 21 1012 -10 1012 -49 c 0
 1012 -88 981 -119 942 -119 c 0
 903 -119 872 -88 872 -49 c 0
1010 -54 m 0
 1010 -15 1041 16 1080 16 c 0
 1119 16 1150 -15 1150 -54 c 0
 1150 -93 1119 -124 1080 -124 c 0
 1041 -124 1010 -93 1010 -54 c 0
797 62 m 0
 797 101 828 132 867 132 c 0
 906 132 937 101 937 62 c 0
 937 23 906 -8 867 -8 c 0
 828 -8 797 23 797 62 c 0
842 -20 m 4
 842 19 873 50 912 50 c 4
 951 50 982 19 982 -20 c 4
 982 -59 951 -90 912 -90 c 4
 873 -90 842 -59 842 -20 c 4
1071 -10 m 0
 1071 29 1102 60 1141 60 c 0
 1180 60 1211 29 1211 -10 c 0
 1211 -49 1180 -80 1141 -80 c 0
 1102 -80 1071 -49 1071 -10 c 0
EndSplineSet
EndChar

StartChar: R
Encoding: 82 82 86
Width: 1200
GlyphClass: 2
Flags: W
AnchorPoint: "Anchor-1" 597 0 basechar 0
AnchorPoint: "Anchor-0" 600 1377 basechar 0
LayerCount: 6
Fore
SplineSet
625 710 m 2,0,-1
 390 710 l 1,1,-1
 390 1160 l 1,2,-1
 625 1160 l 2,3,4
 718 1160 718 1160 784 1094 c 128,-1,5
 850 1028 850 1028 850 935 c 128,-1,6
 850 842 850 842 784 776 c 128,-1,7
 718 710 718 710 625 710 c 2,0,-1
804 617 m 1,8,9
 889 665 889 665 939.5 750 c 128,-1,10
 990 835 990 835 990 935 c 0,11,12
 990 1086 990 1086 883 1193 c 128,-1,13
 776 1300 776 1300 625 1300 c 2,14,-1
 160 1300 l 2,15,16
 131 1300 131 1300 110.5 1279.5 c 128,-1,17
 90 1259 90 1259 90 1230 c 128,-1,18
 90 1201 90 1201 110.5 1180.5 c 128,-1,19
 131 1160 131 1160 160 1160 c 2,20,-1
 250 1160 l 1,21,-1
 250 140 l 1,22,-1
 160 140 l 2,23,24
 131 140 131 140 110.5 119.5 c 128,-1,25
 90 99 90 99 90 70 c 128,-1,26
 90 41 90 41 110.5 20.5 c 128,-1,27
 131 0 131 0 160 0 c 2,28,-1
 480 0 l 2,29,30
 510 0 510 0 530 20 c 128,-1,31
 550 40 550 40 550 70 c 128,-1,32
 550 100 550 100 530 120 c 128,-1,33
 510 140 510 140 480 140 c 2,34,-1
 390 140 l 1,35,-1
 390 570 l 1,36,-1
 590 570 l 2,37,38
 646 570 646 570 681 537.5 c 128,-1,39
 716 505 716 505 732 453 c 128,-1,40
 748 401 748 401 758 338 c 128,-1,41
 768 275 768 275 779.5 212 c 128,-1,42
 791 149 791 149 810.5 97 c 128,-1,43
 830 45 830 45 872.5 12.5 c 128,-1,44
 915 -20 915 -20 980 -20 c 0,45,46
 1032 -20 1032 -20 1078 8.5 c 128,-1,47
 1124 37 1124 37 1151 85 c 0,48,49
 1160 101 1160 101 1160 120 c 0,50,51
 1160 149 1160 149 1139.5 169.5 c 128,-1,52
 1119 190 1119 190 1090 190 c 0,53,54
 1049 190 1049 190 1029 155 c 0,55,56
 1010 120 1010 120 980 120 c 0,57,58
 951 120 951 120 935 155 c 128,-1,59
 919 190 919 190 911 248 c 128,-1,60
 903 306 903 306 894.5 369.5 c 128,-1,61
 886 433 886 433 863.5 502.5 c 128,-1,62
 841 572 841 572 804 617 c 1,8,9
EndSplineSet
Validated: 9
Layer: 2
SplineSet
804 617 m 5
 915 680 990 798.960298314 990 935 c 4
 990 1136 826 1300 625 1300 c 5
 160 1300 l 5
 121 1300 90 1269 90 1230 c 7
 90 1191 121 1160 160 1160 c 5
 250 1160 l 5
 250 140 l 5
 160 140 l 5
 121 140 90 109 90 70 c 7
 90 31 121 0 160 0 c 5
 480 0 l 5
 520.334960938 0 550 29.6669921875 550 70 c 132
 550 110.334960938 520 140 480 140 c 6
 390 140 l 5
 390 570 l 5
 590 570 l 5
 865 570 659.998437504 -20 980 -20 c 7
 1050.0833492 -20 1115.25683594 21.810546875 1151 85 c 5
 1156.86523438 95.2626953125 1160 107.200672313 1160 120 c 4
 1160 159 1129 190 1090 190 c 4
 1063.79932769 190 1041.00585938 176.008789062 1029 155 c 5
 1017.98535156 134.237304688 998.98362021 120 980 120 c 7
 875.909100432 120 938 451 804 617 c 5
625 710 m 5
 390 710 l 5
 390 1160 l 5
 625 1160 l 5
 749 1160 850 1059 850 935 c 4
 850 811 749 710 625 710 c 5
EndSplineSet
EndChar

StartChar: S
Encoding: 83 83 90
Width: 1200
GlyphClass: 2
Flags: W
AnchorPoint: "Anchor-1" 593 0 basechar 0
AnchorPoint: "Anchor-0" 611 1353 basechar 0
LayerCount: 6
Fore
SplineSet
875 1212 m 1,0,1
 875 1212 875 1212 875 1230 c 2,2,3
 875 1259 875 1259 895.5 1279.5 c 128,-1,4
 916 1300 916 1300 945 1300 c 128,-1,5
 974 1300 974 1300 994.5 1279.5 c 128,-1,6
 1015 1259 1015 1259 1015 1230 c 2,7,8
 1015 1230 1015 1230 1015 910 c 2,9,10
 1015 881 1015 881 994.5 860.5 c 128,-1,11
 974 840 974 840 945 840 c 128,-1,12
 916 840 916 840 895.5 860.5 c 128,-1,13
 875 881 875 881 875 910 c 2,14,15
 875 910 875 910 875 940 c 2,16,17
 875 982.89289974 875 982.89289974 845.15940553 1031.66325124 c 128,-1,18
 815.31881106 1080.43360275 815.31881106 1080.43360275 774 1115.5 c 0,19,20
 698 1180 698 1180 590 1180 c 128,-1,21
 482.000488281 1180 482.000488281 1180 406 1115.5 c 128,-1,22
 330 1051.00048828 330 1051.00048828 330 960 c 0,23,24
 330 873.242979396 330 873.242979396 411 804.5 c 0,25,26
 442.571701735 777.705767384 442.571701735 777.705767384 490.493851378 768.058324733 c 128,-1,27
 538.41600102 758.410882083 538.41600102 758.410882083 590.153745267 758.286714895 c 128,-1,28
 641.891489514 758.162547707 641.891489514 758.162547707 696.601749015 755.128264924 c 128,-1,29
 751.312008516 752.093982141 751.312008516 752.093982141 811.343144811 730.051661813 c 128,-1,30
 871.374281105 708.009341484 871.374281105 708.009341484 921 663 c 0,31,32
 1060 537 1060 537 1060 380 c 0,33,34
 1060 214 1060 214 931 97 c 128,-1,35
 801.999511719 -20 801.999511719 -20 620 -20 c 0,36,37
 435 -20 435 -20 304 102 c 1,38,39
 304 102 304 102 304 70 c 2,40,41
 304 41 304 41 283.5 20.5 c 128,-1,42
 263 0 263 0 234 0 c 128,-1,43
 205 0 205 0 184.5 20.5 c 128,-1,44
 164 41 164 41 164 70 c 2,45,46
 164 70 164 70 164 400 c 2,47,48
 164 429 164 429 184.5 449.5 c 128,-1,49
 205 470 205 470 234 470 c 128,-1,50
 263 470 263 470 283.5 449.5 c 128,-1,51
 304 429 304 429 304 400 c 2,52,53
 304 400 304 400 304 380 c 2,54,55
 304 285.898222088 304 285.898222088 407.5 196 c 0,56,57
 495.000488281 120 495.000488281 120 620 120 c 128,-1,58
 745.000488281 119.999511719 745.000488281 119.999511719 832.5 196 c 128,-1,59
 920 272 920 272 920 380 c 0,60,61
 920 479.313269047 920 479.313269047 822.5 564 c 0,62,63
 786.677870259 595.113994521 786.677870259 595.113994521 736.059491939 607.445434471 c 128,-1,64
 685.44111362 619.77687442 685.44111362 619.77687442 633.149054936 620.310518654 c 128,-1,65
 580.856996251 620.844162889 580.856996251 620.844162889 526.885632564 623.036746971 c 128,-1,66
 472.914268878 625.229331052 472.914268878 625.229331052 415.463633061 644.619409279 c 128,-1,67
 358.012997243 664.009487506 358.012997243 664.009487506 312 705.5 c 0,68,69
 190 815.508971976 190 815.508971976 190 960 c 0,70,71
 190 1109.00048828 190 1109.00048828 307 1214.5 c 128,-1,72
 423.999511719 1320 423.999511719 1320 590 1320 c 0,73,74
 755 1320 755 1320 875 1212 c 1,0,1
600 36 m 1049,75,-1
  Spiro
    600 36 {
    0 0 z
  EndSpiro
601 1316 m 1049,76,-1
  Spiro
    601 1316 {
    0 0 z
  EndSpiro
EndSplineSet
Validated: 33
Layer: 2
SplineSet
875 1212 m 5
 797 1282.33300781 700.666992188 1320 590 1320 c 128
 479.333007812 1320 385 1284.83300781 307 1214.5 c 128
 229 1144.16699219 190 1059.33300781 190 960 c 128
 190 860.666992188 234.000297019 775.833337208 312 705.5 c 128
 478.534179688 555.333984375 691.430664062 677.842773438 822.5 564 c 128
 880.833007812 513.333007812 920 452 920 380 c 128
 920 308 890.833007812 246.666992188 832.5 196 c 128
 774.166992188 145.333007812 703.333007812 120 620 120 c 128
 536.666992188 120 465.833007812 145.333007812 407.5 196 c 128
 349.166992188 246.666992188 304 308 304 380 c 1
 304 400 l 1
 304 439 273 470 234 470 c 0
 195 470 164 439 164 400 c 1
 164 70 l 1
 164 31 195 0 234 0 c 0
 273 0 304 31 304 70 c 1
 304 102 l 1
 340.09375 68.4521484375 438.68359375 -20 620 -20 c 128
 741.333007812 -20 845 19 931 97 c 128
 1017 175 1060 269.333007812 1060 380 c 128
 1060 490.666992188 1007 585 921 663 c 128
 741.915039062 825.42578125 527.245369663 705.845024054 411 804.5 c 128
 360.333007812 847.5 330 899.333007812 330 960 c 128
 330 1020.66699219 355.333007812 1072.5 406 1115.5 c 128
 456.666992188 1158.5 518 1180 590 1180 c 128
 662 1180 723.333007812 1158.5 774 1115.5 c 128
 824.666992188 1072.5 875 1000.66699219 875 940 c 5
 875 910 l 5
 875 871 906 840 945 840 c 4
 984 840 1015 871 1015 910 c 5
 1015 1230 l 5
 1015 1269 984 1300 945 1300 c 4
 906 1300 875 1269 875 1230 c 5
 875 1212 l 5
620 380 m 1025
590 960 m 1025
EndSplineSet
Layer: 3
SplineSet
600 690 m 1025
EndSplineSet
EndChar

StartChar: Scedilla
Encoding: 305 350 93
Width: 1200
GlyphClass: 2
Flags: W
AnchorPoint: "Anchor-1" 593 0 basechar 0
AnchorPoint: "Anchor-0" 611 1377 basechar 0
LayerCount: 6
Fore
SplineSet
600 1268 m 1048
EndSplineSet
Refer: 90 83 S 1 0 0 1 0 0 3
Refer: 1991 -1 N 1 0 0 1 -7 0 2
Validated: 5
Substitution2: "'locl' Localized Forms in Latin lookup 20 subtable" uni0218
Substitution2: "'locl' Localized Forms in Latin lookup 19 subtable" uni0218
Substitution2: "'aalt' Access All Alternates lookup 0 subtable" uni0218
EndChar

StartChar: uni1E9E
Encoding: 308 7838 96
Width: 1200
GlyphClass: 1
Flags: W
LayerCount: 6
Fore
SplineSet
581 1411 m 0,0,1
 722 1411 722 1411 843 1371.5 c 128,-1,2
 964 1332 964 1332 1072 1273 c 1,3,-1
 1072 1176 l 1,4,-1
 713 786 l 1,5,6
 929 761 929 761 1044 664 c 128,-1,7
 1159 567 1159 567 1159 389 c 0,8,9
 1159 262 1159 262 1104.5 172 c 128,-1,10
 1050 82 1050 82 953 35 c 128,-1,11
 856 -12 856 -12 728 -12 c 0,12,13
 653 -12 653 -12 593 1 c 128,-1,14
 533 14 533 14 491 35 c 1,15,-1
 544 153 l 1,16,17
 577 140 577 140 617 131.5 c 128,-1,18
 657 123 657 123 714 123 c 0,19,20
 838 123 838 123 911 190 c 128,-1,21
 984 257 984 257 984 390 c 0,22,23
 984 535 984 535 877.5 604 c 128,-1,24
 771 673 771 673 557 685 c 1,25,-1
 557 801 l 1,26,-1
 916 1200 l 1,27,28
 842 1233 842 1233 761.5 1255 c 128,-1,29
 681 1277 681 1277 587 1277 c 0,30,31
 456 1277 456 1277 385 1208.5 c 128,-1,32
 314 1140 314 1140 314 992 c 2,33,-1
 314 12 l 1,34,-1
 147 12 l 1,35,-1
 147 993 l 2,36,37
 147 1192 147 1192 260 1301.5 c 128,-1,38
 373 1411 373 1411 581 1411 c 0,0,1
EndSplineSet
Validated: 1
EndChar

StartChar: T
Encoding: 84 84 97
Width: 1200
GlyphClass: 2
Flags: W
AnchorPoint: "Anchor-2" 600 689 basechar 0
AnchorPoint: "Anchor-1" 598 0 basechar 0
AnchorPoint: "Anchor-0" 598 1377 basechar 0
LayerCount: 6
Fore
SplineSet
670 140 m 1,0,-1
 850 140 l 2,1,2
 880 140 880 140 899.835176091 120.16483529 c 0,3,4
 920 100 920 100 920 70 c 128,-1,5
 920 40 920 40 900 20 c 128,-1,6
 880 0 880 0 850 0 c 2,7,8
 850 0 850 0 350 0 c 2,9,10
 320 0 320 0 300 20 c 128,-1,11
 280 40 280 40 280 70 c 128,-1,12
 280 100 280 100 300.001851623 120.166646093 c 0,13,14
 320 140 320 140 350 140 c 2,15,16
 350 140 350 140 530 140 c 1,17,-1
 530 1160 l 1,18,-1
 260 1160 l 1,19,-1
 260 1030 l 2,20,21
 260 1001 260 1001 239.5 980.5 c 128,-1,22
 219 960 219 960 190 960 c 128,-1,23
 161 960 161 960 140.5 980.5 c 128,-1,24
 120 1001 120 1001 120 1030 c 2,25,26
 120 1030 120 1030 120 1230 c 2,27,28
 120 1260 120 1260 140 1280 c 128,-1,29
 160 1300 160 1300 190 1300 c 2,30,31
 190 1300 190 1300 1010 1300 c 2,32,33
 1040 1300 1040 1300 1060 1280 c 128,-1,34
 1080 1260 1080 1260 1080 1230 c 2,35,36
 1080 1230 1080 1230 1080 1030 c 2,37,38
 1080 1001 1080 1001 1059.5 980.5 c 128,-1,39
 1039 960 1039 960 1010 960 c 128,-1,40
 981 960 981 960 960.5 980.5 c 128,-1,41
 940 1001 940 1001 940 1030 c 2,42,43
 940 1030 940 1030 940 1160 c 1,44,-1
 670 1160 l 1,45,-1
 670 140 l 1,0,-1
EndSplineSet
Validated: 1
Layer: 2
SplineSet
190 1300 m 5
 149.666015625 1300 120 1270.33300781 120 1230 c 5
 120 1030 l 5
 120 991 151 960 190 960 c 4
 229 960 260 991 260 1030 c 5
 260 1160 l 5
 530 1160 l 5
 530 140 l 5
 350 140 l 5
 309.669921875 140 280 110.333007812 280 70 c 132
 280 29.6650390625 309.673828125 0 350 0 c 6
 850 0 l 6
 890.333984375 -4.93948848617e-15 920 29.6669921875 920 70 c 132
 920 110.334960938 890.33203125 140 850 140 c 5
 670 140 l 5
 670 1160 l 5
 940 1160 l 5
 940 1030 l 5
 940 991 971 960 1010 960 c 4
 1049 960 1080 991 1080 1030 c 5
 1080 1230 l 5
 1080 1270.33300781 1050.33398438 1300 1010 1300 c 5
 190 1300 l 5
EndSplineSet
Substitution2: "Single Substitution lookup 342 subtable" T.spacer
Substitution2: "'aalt' Access All Alternates lookup 0 subtable" T.spacer
EndChar

StartChar: Tbar
Encoding: 309 358 98
Width: 1200
GlyphClass: 2
Flags: W
AnchorPoint: "Anchor-2" 600 689 basechar 0
AnchorPoint: "Anchor-1" 598 0 basechar 0
AnchorPoint: "Anchor-0" 598 1377 basechar 0
LayerCount: 6
Fore
SplineSet
670 660 m 5,0,-1
 875 660 l 6,1,2
 905 660 905 660 925 680 c 132,-1,3
 944.999511719 699.999511719 944.999511719 699.999511719 945 730 c 132,-1,4
 945 760 945 760 925 780 c 132,-1,5
 905.000488281 799.999511719 905.000488281 799.999511719 875 800 c 6,6,-1
 670 800 l 5,7,-1
 670 1160 l 5,8,-1
 940 1160 l 5,9,-1
 940 1030 l 6,10,11
 940 1001 940 1001 960.5 980.5 c 132,-1,12
 981 960 981 960 1010 960 c 132,-1,13
 1039 960 1039 960 1059.5 980.5 c 132,-1,14
 1080 1001 1080 1001 1080 1030 c 6,15,-1
 1080 1230 l 6,16,17
 1080 1260 1080 1260 1060 1280 c 132,-1,18
 1040 1300 1040 1300 1010 1300 c 6,19,-1
 190 1300 l 6,20,21
 160 1300 160 1300 140 1280 c 132,-1,22
 120 1260 120 1260 120 1230 c 6,23,-1
 120 1030 l 6,24,25
 120 1001 120 1001 140.5 980.5 c 132,-1,26
 161 960 161 960 190 960 c 132,-1,27
 219 960 219 960 239.5 980.5 c 132,-1,28
 260 1001 260 1001 260 1030 c 6,29,-1
 260 1160 l 5,30,-1
 530 1160 l 5,31,-1
 530 800 l 5,32,-1
 325 800 l 6,33,34
 295 800 295 800 275 780 c 132,-1,35
 255.000488281 760.000488281 255.000488281 760.000488281 255 730 c 132,-1,36
 255 700 255 700 275 680 c 132,-1,37
 294.999511719 660.000488281 294.999511719 660.000488281 325 660 c 6,38,-1
 530 660 l 5,39,-1
 530 140 l 5,40,-1
 350 140 l 6,41,42
 320 140 320 140 300 120 c 132,-1,43
 280 100 280 100 280 70 c 132,-1,44
 280 40 280 40 300 20 c 132,-1,45
 320 0 320 0 350 0 c 6,46,-1
 850 0 l 6,47,48
 880 0 880 0 900 20 c 132,-1,49
 920 40 920 40 920 70 c 132,-1,50
 920 100 920 100 900 120 c 132,-1,51
 880 140 880 140 850 140 c 6,52,-1
 670 140 l 5,53,-1
 670 660 l 5,0,-1
EndSplineSet
Validated: 9
Layer: 2
SplineSet
670 660 m 5
 875 660 l 6
 895 660 911.666992188 666.666992188 925 680 c 132
 938.333007812 693.333007812 945 710 945 730 c 132
 945 750 938.333007812 766.666992188 925 780 c 132
 911.666992188 793.333007812 895 800 875 800 c 6
 670 800 l 5
 670 1160 l 5
 940 1160 l 5
 940 1030 l 5
 940 991 971 960 1010 960 c 4
 1049 960 1080 991 1080 1030 c 5
 1080 1230 l 5
 1080 1270.33300781 1050.33398438 1300 1010 1300 c 5
 190 1300 l 5
 149.666015625 1300 120 1270.33300781 120 1230 c 5
 120 1030 l 5
 120 991 151 960 190 960 c 4
 229 960 260 991 260 1030 c 5
 260 1160 l 5
 530 1160 l 5
 530 800 l 5
 325 800 l 6
 305 800 288.333007812 793.333007812 275 780 c 132
 261.666992188 766.666992188 255 750 255 730 c 132
 255 710 261.666992188 693.333007812 275 680 c 132
 288.333007812 666.666992188 305 660 325 660 c 6
 530 660 l 5
 530 140 l 5
 350 140 l 5
 309.669921875 140 280 110.333007812 280 70 c 132
 280 29.6650390625 309.673828125 0 350 0 c 6
 850 0 l 6
 890.333984375 -4.93948848617e-15 920 29.6669921875 920 70 c 132
 920 110.334960938 890.33203125 140 850 140 c 5
 670 140 l 5
 670 660 l 5
EndSplineSet
EndChar

StartChar: U
Encoding: 85 85 102
Width: 1200
GlyphClass: 2
Flags: W
AnchorPoint: "Anchor-1" 600 0 basechar 0
AnchorPoint: "Anchor-0" 600 1377 basechar 0
LayerCount: 6
Fore
SplineSet
870 400 m 6,0,-1
 870 1160 l 5,1,-1
 780 1160 l 6,2,3
 750 1160 750 1160 730 1180 c 132,-1,4
 710 1200 710 1200 710 1230 c 132,-1,5
 710 1260 710 1260 730 1280 c 132,-1,6
 750 1300 750 1300 780 1300 c 6,7,-1
 1100 1300 l 6,8,9
 1130 1300 1130 1300 1150 1280 c 132,-1,10
 1170 1260 1170 1260 1170 1230 c 132,-1,11
 1170 1200 1170 1200 1150 1180 c 132,-1,12
 1130 1160 1130 1160 1100 1160 c 6,13,-1
 1010 1160 l 5,14,-1
 1010 400 l 6,15,16
 1010 225 1010 225 891.5 102.5 c 132,-1,17
 773 -20 773 -20 600 -20 c 132,-1,18
 427 -20 427 -20 308.5 102.5 c 132,-1,19
 190 225 190 225 190 400 c 6,20,-1
 190 1160 l 5,21,-1
 100 1160 l 6,22,23
 70 1160 70 1160 50 1180 c 132,-1,24
 30 1200 30 1200 30 1230 c 132,-1,25
 30 1260 30 1260 50 1280 c 132,-1,26
 70 1300 70 1300 100 1300 c 6,27,-1
 420 1300 l 6,28,29
 450 1300 450 1300 470 1280 c 132,-1,30
 490 1260 490 1260 490 1230 c 132,-1,31
 490 1200 490 1200 470 1180 c 132,-1,32
 450 1160 450 1160 420 1160 c 6,33,-1
 330 1160 l 5,34,-1
 330 400 l 6,35,36
 330 283 330 283 407.5 201.5 c 132,-1,37
 485 120 485 120 600 120 c 132,-1,38
 715 120 715 120 792.5 201.5 c 132,-1,39
 870 283 870 283 870 400 c 6,0,-1
EndSplineSet
Validated: 1
Layer: 2
SplineSet
870 400 m 5
 870 1160 l 5
 780 1160 l 5
 739.672851562 1160 710 1189.66503906 710 1230 c 132
 710 1270.33300781 739.670898438 1300 780 1300 c 6
 1100 1300 l 6
 1140.33007812 1300 1170 1270.33496094 1170 1230 c 132
 1170 1189.66699219 1140.33398438 1160 1100 1160 c 5
 1010 1160 l 5
 1010 400 l 5
 1010 168 832 -20 600 -20 c 4
 368 -20 190 168 190 400 c 5
 190 1160 l 5
 100 1160 l 5
 59.671875 1160 30 1189.66503906 30 1230 c 132
 30 1270.33300781 59.669921875 1300 100 1300 c 6
 420 1300 l 6
 460.330078125 1300 490 1270.33496094 490 1230 c 132
 490 1189.66699219 460.333984375 1160 420 1160 c 5
 330 1160 l 5
 330 400 l 5
 330 245 445 120 600 120 c 4
 755 120 870 245 870 400 c 5
EndSplineSet
EndChar

StartChar: V
Encoding: 86 86 113
Width: 1200
GlyphClass: 2
Flags: W
AnchorPoint: "Anchor-1" 600 0 basechar 0
AnchorPoint: "Anchor-0" 600 1377 basechar 0
LayerCount: 6
Fore
SplineSet
600 -20 m 1,0,-1
 565 -20 l 2,1,2
 540 -20 540 -20 521.5 -5.5 c 128,-1,3
 503 9 503 9 497 33 c 2,4,-1
 195 1160 l 1,5,-1
 100 1160 l 2,6,7
 71 1160 71 1160 50.5 1180.5 c 128,-1,8
 30 1201 30 1201 30 1230 c 128,-1,9
 30 1259 30 1259 50.5 1279.5 c 128,-1,10
 71 1300 71 1300 100 1300 c 2,11,-1
 420 1300 l 2,12,13
 449 1300 449 1300 469.5 1279.5 c 128,-1,14
 490 1259 490 1259 490 1230 c 128,-1,15
 490 1201 490 1201 469.5 1180.5 c 128,-1,16
 449 1160 449 1160 420 1160 c 2,17,-1
 340 1160 l 1,18,-1
 600 190 l 1,19,-1
 860 1160 l 1,20,-1
 780 1160 l 2,21,22
 751 1160 751 1160 730.5 1180.5 c 128,-1,23
 710 1201 710 1201 710 1230 c 128,-1,24
 710 1259 710 1259 730.5 1279.5 c 128,-1,25
 751 1300 751 1300 780 1300 c 2,26,-1
 1100 1300 l 2,27,28
 1129 1300 1129 1300 1149.5 1279.5 c 128,-1,29
 1170 1259 1170 1259 1170 1230 c 128,-1,30
 1170 1201 1170 1201 1149.5 1180.5 c 128,-1,31
 1129 1160 1129 1160 1100 1160 c 2,32,-1
 1005 1160 l 1,33,-1
 703 33 l 2,34,35
 697 9 697 9 678.5 -5.5 c 128,-1,36
 660 -20 660 -20 635 -20 c 2,37,-1
 600 -20 l 1,0,-1
EndSplineSet
Validated: 1
Layer: 2
SplineSet
600 -20 m 4
 565 -20 l 7
 531 -20 505 2 497 33 c 5
 195 1160 l 5
 100 1160 l 5
 61 1160 30 1191 30 1230 c 7
 30 1269 61 1300 100 1300 c 5
 420 1300 l 5
 459 1300 490 1269 490 1230 c 7
 490 1191 459 1160 420 1160 c 5
 340 1160 l 5
 600 190 l 5
 860 1160 l 5
 780 1160 l 5
 741 1160 710 1191 710 1230 c 7
 710 1269 741 1300 780 1300 c 5
 1100 1300 l 5
 1139 1300 1170 1269 1170 1230 c 7
 1170 1191 1139 1160 1100 1160 c 5
 1005 1160 l 5
 703 33 l 5
 695 2 669 -20 635 -20 c 20
 600 -20 l 4
EndSplineSet
EndChar

StartChar: W
Encoding: 87 87 114
Width: 1200
GlyphClass: 2
Flags: W
AnchorPoint: "Anchor-1" 600 0 basechar 0
AnchorPoint: "Anchor-0" 600 1377 basechar 0
LayerCount: 6
Fore
SplineSet
620.08203125 862 m 2,0,1
 645.196896115 862 645.196896115 862 664.089638508 847.436844406 c 128,-1,2
 682.9823809 832.873688811 682.9823809 832.873688811 689.08203125 810 c 2,3,-1
 825.08203125 287 l 1,4,-1
 950.08203125 1160 l 1,5,-1
 850.08203125 1160 l 2,6,7
 820.08203125 1160 820.08203125 1160 800.08203125 1180 c 128,-1,8
 780.08203125 1200 780.08203125 1200 780.08203125 1230 c 128,-1,9
 780.08203125 1260 780.08203125 1260 800.08203125 1280 c 128,-1,10
 820.08203125 1300 820.08203125 1300 850.08203125 1300 c 2,11,-1
 1170.08203125 1300 l 2,12,13
 1200.08203125 1300 1200.08203125 1300 1220.08203125 1280 c 128,-1,14
 1240.08203125 1260 1240.08203125 1260 1240.08203125 1230 c 128,-1,15
 1240.08203125 1200 1240.08203125 1200 1220.08203125 1180 c 128,-1,16
 1200.08203125 1160 1200.08203125 1160 1170.08203125 1160 c 2,17,-1
 1090.08203125 1160 l 1,18,-1
 930.08203125 43 l 2,19,20
 927.08203125 16 927.08203125 16 907.08203125 -2 c 128,-1,21
 887.08203125 -20 887.08203125 -20 860.08203125 -20 c 2,22,-1
 820.08203125 -20 l 2,23,24
 796.321161685 -20 796.321161685 -20 778.112362363 -6.49024566474 c 128,-1,25
 759.903563042 7.01950867052 759.903563042 7.01950867052 753.08203125 29 c 2,26,-1
 600.041015625 617 l 1,27,-1
 447 29 l 2,28,29
 440 7 440 7 422 -6.5 c 128,-1,30
 404 -20 404 -20 380 -20 c 2,31,-1
 340 -20 l 2,32,33
 313 -20 313 -20 293 -2 c 128,-1,34
 273 16 273 16 270 43 c 2,35,-1
 110 1160 l 1,36,-1
 30 1160 l 2,37,38
 0 1160 0 1160 -20 1180 c 128,-1,39
 -40 1200 -40 1200 -40 1230 c 128,-1,40
 -40 1260 -40 1260 -20 1280 c 128,-1,41
 0 1300 0 1300 30 1300 c 2,42,-1
 350 1300 l 2,43,44
 380 1300 380 1300 400 1280 c 128,-1,45
 420 1260 420 1260 420 1230 c 128,-1,46
 420 1200 420 1200 400 1180 c 128,-1,47
 380 1160 380 1160 350 1160 c 2,48,-1
 250 1160 l 1,49,-1
 375 287 l 1,50,-1
 511 810 l 2,51,52
 517 833 517 833 536 847.5 c 128,-1,53
 555 862 555 862 580 862 c 2,54,-1
 620.08203125 862 l 2,0,1
EndSplineSet
Validated: 1
Layer: 2
SplineSet
620.08203125 862 m 1
 654.08203125 862 681.08203125 840 689.08203125 810 c 1
 825.08203125 287 l 1
 950.08203125 1160 l 1
 850.08203125 1160 l 1
 810.08203125 1160 780.08203125 1190 780.08203125 1230 c 129
 780.08203125 1270 810.08203125 1300 850.08203125 1300 c 1
 1170.08203125 1300 l 1
 1210.08203125 1300 1240.08203125 1270 1240.08203125 1230 c 129
 1240.08203125 1190 1210.08203125 1160 1170.08203125 1160 c 1
 1090.08203125 1160 l 1
 930.08203125 43 l 1
 926.08203125 7 896.08203125 -20 860.08203125 -20 c 1
 820.08203125 -20 l 1
 788.08203125 -20 762.08203125 0 753.08203125 29 c 1
 600.041015625 617 l 1
 600.04109589 617 447 29 447 29 c 1
 438 0 412 -20 380 -20 c 1
 340 -20 l 1
 304 -20 274 7 270 43 c 1
 110 1160 l 1
 30 1160 l 1
 -10 1160 -40 1190 -40 1230 c 129
 -40 1270 -10 1300 30 1300 c 1
 350 1300 l 1
 390 1300 420 1270 420 1230 c 129
 420 1190 390 1160 350 1160 c 1
 250 1160 l 1
 375 287 l 1
 511 810 l 1
 519 840 546 862 580 862 c 1
 620.08203125 862 l 1
EndSplineSet
Layer: 3
SplineSet
135 1160 m 1
 55 1160 l 17
 15 1160 -15 1190 -15 1230 c 129
 -15 1270 15 1300 55 1300 c 1
 375 1300 l 1
 415 1300 445 1270 445 1230 c 129
 445 1190 415 1160 375 1160 c 9
 275 1160 l 1025
925 1160 m 1
 825 1160 l 17
 785 1160 755 1190 755 1230 c 129
 755 1270 785 1300 825 1300 c 1
 1145 1300 l 1
 1185 1300 1215 1270 1215 1230 c 129
 1215 1190 1185 1160 1145 1160 c 9
 1065 1160 l 1025
600 540 m 1
 467 29 l 1
 458 0 432 -20 400 -20 c 1
 360 -20 l 17
 324 -20 294 7 290 43 c 9
 135 1160 l 1
 55 1160 l 17
 15 1160 -15 1190 -15 1230 c 129
 -15 1270 15 1300 55 1300 c 1
 375 1300 l 1
 415 1300 445 1270 445 1230 c 129
 445 1190 415 1160 375 1160 c 9
 275 1160 l 1
 396 291 l 1
 512 738 l 21
 520 768 546 790 580 790 c 13
 620 790 l 21
 654 790 680 768 688 738 c 9
 804 291 l 1
 925 1160 l 1
 825 1160 l 17
 785 1160 755 1190 755 1230 c 129
 755 1270 785 1300 825 1300 c 1
 1145 1300 l 1
 1185 1300 1215 1270 1215 1230 c 129
 1215 1190 1185 1160 1145 1160 c 9
 1065 1160 l 1
 910 43 l 17
 906 7 876 -20 840 -20 c 9
 800 -20 l 1
 768 -20 742 0 733 29 c 1
 600 540 l 1
EndSplineSet
EndChar

StartChar: X
Encoding: 88 88 119
Width: 1200
GlyphClass: 2
Flags: W
AnchorPoint: "Anchor-1" 600 0 basechar 0
AnchorPoint: "Anchor-0" 600 1377 basechar 0
LayerCount: 6
Fore
SplineSet
600 804 m 5,0,-1
 827 1160 l 5,1,-1
 750 1160 l 6,2,3
 721 1160 721 1160 700.5 1180.5 c 132,-1,4
 680 1201 680 1201 680 1230 c 132,-1,5
 680 1259 680 1259 700.5 1279.5 c 132,-1,6
 721 1300 721 1300 750 1300 c 6,7,8
 750 1300 750 1300 1070 1300 c 6,9,10
 1099 1300 1099 1300 1119.5 1279.5 c 132,-1,11
 1140 1259 1140 1259 1140 1230 c 132,-1,12
 1140 1201 1140 1201 1119.5 1180.5 c 132,-1,13
 1099 1160 1099 1160 1070 1160 c 6,14,15
 1070 1160 1070 1160 993 1160 c 5,16,-1
 683 674 l 5,17,-1
 1023 140 l 5,18,-1
 1100 140 l 6,19,20
 1129 140 1129 140 1149.5 119.5 c 132,-1,21
 1170 99 1170 99 1170 70 c 132,-1,22
 1170 41 1170 41 1149.5 20.5 c 132,-1,23
 1129 0 1129 0 1100 0 c 6,24,25
 1100 0 1100 0 780 0 c 6,26,27
 751 0 751 0 730.5 20.5 c 132,-1,28
 710 41 710 41 710 70 c 132,-1,29
 710 99 710 99 730.5 119.5 c 132,-1,30
 751 140 751 140 780 140 c 6,31,32
 780 140 780 140 857 140 c 5,33,-1
 600 543 l 5,34,-1
 343 140 l 5,35,-1
 420 140 l 6,36,37
 449 140 449 140 469.5 119.5 c 132,-1,38
 490 99 490 99 490 70 c 132,-1,39
 490 41 490 41 469.5 20.5 c 132,-1,40
 449 0 449 0 420 0 c 6,41,42
 420 0 420 0 100 0 c 6,43,44
 71 0 71 0 50.5 20.5 c 132,-1,45
 30 41 30 41 30 70 c 132,-1,46
 30 99 30 99 50.5 119.5 c 132,-1,47
 71 140 71 140 100 140 c 6,48,49
 100 140 100 140 177 140 c 5,50,-1
 517 674 l 5,51,-1
 207 1160 l 5,52,-1
 130 1160 l 6,53,54
 101 1160 101 1160 80.5 1180.5 c 132,-1,55
 60 1201 60 1201 60 1230 c 132,-1,56
 60 1259 60 1259 80.5 1279.5 c 132,-1,57
 101 1300 101 1300 130 1300 c 6,58,59
 130 1300 130 1300 450 1300 c 6,60,61
 479 1300 479 1300 499.5 1279.5 c 132,-1,62
 520 1259 520 1259 520 1230 c 132,-1,63
 520 1201 520 1201 499.5 1180.5 c 132,-1,64
 479 1160 479 1160 450 1160 c 6,65,66
 450 1160 450 1160 373 1160 c 5,67,-1
 600 804 l 5,0,-1
450 1230 m 1049,68,-1
EndSplineSet
Validated: 1
Layer: 2
SplineSet
750 1230 m 1049
600 804 m 5
 373 1160 l 5
 450 1160 l 5
 489 1160 520 1191 520 1230 c 7
 520 1269 489 1300 450 1300 c 5
 130 1300 l 5
 91 1300 60 1269 60 1230 c 7
 60 1191 91 1160 130 1160 c 5
 207 1160 l 5
 517 674 l 5
 177 140 l 5
 100 140 l 5
 61 140 30 109 30 70 c 7
 30 31 61 0 100 0 c 5
 420 0 l 5
 459 0 490 31 490 70 c 7
 490 109 459 140 420 140 c 5
 343 140 l 5
 600 543 l 5
 857 140 l 5
 780 140 l 5
 741 140 710 109 710 70 c 7
 710 31 741 0 780 0 c 5
 1100 0 l 5
 1139 0 1170 31 1170 70 c 7
 1170 109 1139 140 1100 140 c 5
 1023 140 l 5
 683 674 l 5
 993 1160 l 5
 1070 1160 l 5
 1109 1160 1140 1191 1140 1230 c 7
 1140 1269 1109 1300 1070 1300 c 5
 750 1300 l 5
 711 1300 680 1269 680 1230 c 7
 680 1191 711 1160 750 1160 c 5
 827 1160 l 5
 600 804 l 5
450 1230 m 1053
EndSplineSet
Layer: 4
SplineSet
0 0 m 5
 0 1600 l 5
 600 1600 l 5
 600 0 l 5
 0 0 l 5
EndSplineSet
EndChar

StartChar: Y
Encoding: 89 89 120
Width: 1200
GlyphClass: 2
Flags: W
AnchorPoint: "Anchor-1" 600 0 basechar 0
AnchorPoint: "Anchor-0" 607 1377 basechar 0
LayerCount: 6
Fore
SplineSet
350 140 m 2,0,1
 350 140 350 140 530 140 c 1,2,-1
 530 588 l 1,3,-1
 177 1160 l 1,4,-1
 100 1160 l 2,5,6
 71 1160 71 1160 50.5 1180.5 c 128,-1,7
 30 1201 30 1201 30 1230 c 128,-1,8
 30 1259 30 1259 50.5 1279.5 c 128,-1,9
 71 1300 71 1300 100 1300 c 2,10,11
 100 1300 100 1300 420 1300 c 2,12,13
 449 1300 449 1300 469.5 1279.5 c 128,-1,14
 490 1259 490 1259 490 1230 c 128,-1,15
 490 1201 490 1201 469.5 1180.5 c 128,-1,16
 449 1160 449 1160 420 1160 c 2,17,18
 420 1160 420 1160 343 1160 c 1,19,-1
 600 740 l 1,20,-1
 857 1160 l 1,21,-1
 780 1160 l 2,22,23
 751 1160 751 1160 730.5 1180.5 c 128,-1,24
 710 1201 710 1201 710 1230 c 128,-1,25
 710 1259 710 1259 730.5 1279.5 c 128,-1,26
 751 1300 751 1300 780 1300 c 2,27,28
 780 1300 780 1300 1100 1300 c 2,29,30
 1129 1300 1129 1300 1149.5 1279.5 c 128,-1,31
 1170 1259 1170 1259 1170 1230 c 128,-1,32
 1170 1201 1170 1201 1149.5 1180.5 c 128,-1,33
 1129 1160 1129 1160 1100 1160 c 2,34,35
 1100 1160 1100 1160 1023 1160 c 1,36,-1
 670 588 l 1,37,-1
 670 140 l 1,38,-1
 850 140 l 2,39,40
 880 140 880 140 900 120 c 128,-1,41
 920 100 920 100 920 70 c 128,-1,42
 920 40 920 40 900 20 c 128,-1,43
 880 0 880 0 850 0 c 2,44,45
 850 0 850 0 350 0 c 2,46,47
 320 0 320 0 300 20 c 128,-1,48
 280 40 280 40 280 70 c 128,-1,49
 280 100 280 100 300 120 c 128,-1,50
 320 140 320 140 350 140 c 2,0,1
EndSplineSet
Validated: 1
Layer: 2
SplineSet
350 140 m 5
 309.669921875 140 280 110.333007812 280 70 c 132
 280 29.6650390625 309.673828125 0 350 0 c 6
 850 0 l 6
 890.333810765 -4.93946722506e-15 920 29.6669921875 920 70 c 132
 920 110.334960938 890.33203125 140 850 140 c 5
 670 140 l 5
 670 588 l 5
 1023 1160 l 5
 1100 1160 l 5
 1139 1160 1170 1191 1170 1230 c 7
 1170 1269 1139 1300 1100 1300 c 5
 780 1300 l 5
 741 1300 710 1269 710 1230 c 7
 710 1191 741 1160 780 1160 c 5
 857 1160 l 5
 600 740 l 5
 343 1160 l 5
 420 1160 l 5
 459 1160 490 1191 490 1230 c 7
 490 1269 459 1300 420 1300 c 5
 100 1300 l 5
 61 1300 30 1269 30 1230 c 7
 30 1191 61 1160 100 1160 c 5
 177 1160 l 5
 530 588 l 5
 530 140 l 5
 350 140 l 5
EndSplineSet
EndChar

StartChar: Z
Encoding: 90 90 125
Width: 1200
GlyphClass: 2
Flags: W
AnchorPoint: "Anchor-1" 600 0 basechar 0
AnchorPoint: "Anchor-0" 637 1377 basechar 0
LayerCount: 6
Fore
SplineSet
190 106 m 2,0,1
 180 88 180 88 180 70 c 0,2,3
 180 40 180 40 200 20 c 128,-1,4
 220 0 220 0 250 0 c 2,5,-1
 1020 0 l 2,6,7
 1050 0 1050 0 1070 20 c 128,-1,8
 1090 40 1090 40 1090 70 c 2,9,-1
 1090 270 l 2,10,11
 1090 299 1090 299 1069.5 319.5 c 128,-1,12
 1049 340 1049 340 1020 340 c 128,-1,13
 991 340 991 340 970.5 319.5 c 128,-1,14
 950 299 950 299 950 270 c 2,15,-1
 950 140 l 1,16,-1
 374 140 l 1,17,-1
 1010 1194 l 2,18,19
 1020 1212 1020 1212 1020 1230 c 0,20,21
 1020 1260 1020 1260 1000 1280 c 128,-1,22
 980 1300 980 1300 950 1300 c 2,23,-1
 180 1300 l 2,24,25
 150 1300 150 1300 130 1280 c 128,-1,26
 110 1260 110 1260 110 1230 c 2,27,-1
 110 1030 l 2,28,29
 110 1001 110 1001 130.5 980.5 c 128,-1,30
 151 960 151 960 180 960 c 128,-1,31
 209 960 209 960 229.5 980.5 c 128,-1,32
 250 1001 250 1001 250 1030 c 2,33,-1
 250 1160 l 5,34,-1
 826 1160 l 1,35,-1
 190 106 l 2,0,1
EndSplineSet
Validated: 9
Layer: 2
SplineSet
190 106 m 5
 184.13671875 95.6455078125 180 83.4124025232 180 70 c 132
 180 29.6650390625 209.671875 0 250 0 c 5
 1020 0 l 5
 1060.33398438 0 1090 29.6669921875 1090 70 c 5
 1090 270 l 5
 1090 309 1059 340 1020 340 c 4
 981 340 950 309 950 270 c 5
 950 140 l 5
 950 140 374.034179688 140 374 140 c 5
 1010 1194 l 5
 1015.86328125 1204.35449219 1020 1216.58759748 1020 1230 c 132
 1020 1270.33496094 990.328125 1300 950 1300 c 5
 180 1300 l 5
 139.666015625 1300 110 1270.33300781 110 1230 c 5
 110 1030 l 5
 110 991 141 960 180 960 c 4
 219 960 250 991 250 1030 c 5
 250 1160 l 5
 250 1160 825.965820312 1160 826 1160 c 5
 190 106 l 5
EndSplineSet
Layer: 3
SplineSet
373.965517241 140 m 5
 1010 1194 l 1029
190 106 m 5
 826.034482759 1160 l 1029
950 1230 m 1025
250 70 m 1
 950 1230 l 1
 250 70 l 1
EndSplineSet
Layer: 4
SplineSet
950 1230 m 1025
250 70 m 1025
180 70 m 0
 180 109 211 140 250 140 c 0
 289 140 320 109 320 70 c 0
 320 31 289 0 250 0 c 0
 211 0 180 31 180 70 c 0
880 1230 m 0
 880 1269 911 1300 950 1300 c 0
 989 1300 1020 1269 1020 1230 c 0
 1020 1191 989 1160 950 1160 c 0
 911 1160 880 1191 880 1230 c 0
EndSplineSet
EndChar

StartChar: F_l.liga.ss10
Encoding: 336 -1 136
Width: 1200
GlyphClass: 3
Flags: W
LayerCount: 6
Fore
SplineSet
320 1160 m 1,0,-1
 550 1160 l 1,1,-1
 550 140 l 1,2,-1
 290 140 l 2,3,4
 260 140 260 140 240 120 c 128,-1,5
 220 100 220 100 220 70 c 128,-1,6
 220 40 220 40 240 20 c 128,-1,7
 260 0 260 0 290 0 c 2,8,-1
 950 0 l 2,9,10
 980 0 980 0 1000 20 c 128,-1,11
 1020 40 1020 40 1020 70 c 128,-1,12
 1020 100 1020 100 1000 120 c 128,-1,13
 980 140 980 140 950 140 c 2,14,-1
 690 140 l 1,15,-1
 690 1230 l 2,16,17
 690 1260 690 1260 670 1280 c 128,-1,18
 650 1300 650 1300 620 1300 c 2,19,-1
 320 1300 l 1,20,-1
 -1010 1300 l 2,21,22
 -1040 1300 -1040 1300 -1060 1280 c 128,-1,23
 -1080 1260 -1080 1260 -1080 1230 c 128,-1,24
 -1080 1200 -1080 1200 -1060 1180 c 128,-1,25
 -1040 1160 -1040 1160 -1010 1160 c 2,26,-1
 -920 1160 l 1,27,-1
 -920 140 l 1,28,-1
 -1010 140 l 2,29,30
 -1040 140 -1040 140 -1060 120 c 128,-1,31
 -1080 100 -1080 100 -1080 70 c 128,-1,32
 -1080 40 -1080 40 -1060 20 c 128,-1,33
 -1040 0 -1040 0 -1010 0 c 2,34,-1
 -600 0 l 2,35,36
 -570 0 -570 0 -550 20 c 128,-1,37
 -530 40 -530 40 -530 70 c 128,-1,38
 -530 100 -530 100 -550 120 c 128,-1,39
 -570 140 -570 140 -600 140 c 2,40,-1
 -780 140 l 1,41,-1
 -780 610 l 1,42,-1
 -450 610 l 1,43,-1
 -450 540 l 2,44,45
 -450 511 -450 511 -429.5 490.5 c 128,-1,46
 -409 470 -409 470 -380 470 c 0,47,48
 -350 470 -350 470 -330 490 c 128,-1,49
 -310 510 -310 510 -310 540 c 2,50,-1
 -310 820 l 2,51,52
 -310 849 -310 849 -330.5 869.5 c 128,-1,53
 -351 890 -351 890 -380 890 c 128,-1,54
 -409 890 -409 890 -429.5 869.5 c 128,-1,55
 -450 849 -450 849 -450 820 c 2,56,-1
 -450 750 l 1,57,-1
 -780 750 l 1,58,-1
 -780 1160 l 1,59,-1
 320 1160 l 1,0,-1
EndSplineSet
Validated: 9
Layer: 2
SplineSet
320 1160 m 5
 550 1160 l 5
 550 140 l 5
 290 140 l 6
 250 140 220 110.333007812 220 70 c 132
 220 29.6650390625 249.666992188 0 290 0 c 6
 950 0 l 6
 990.334960938 0 1020 29.6669921875 1020 70 c 132
 1020 110.334960938 990 140 950 140 c 6
 690 140 l 5
 690 1230 l 133
 690 1270.33496094 660.333007812 1300 620 1300 c 5
 320 1300 l 5
 -1010 1300 l 5
 -1050.33007812 1300 -1080 1270.33300781 -1080 1230 c 132
 -1080 1189.66503906 -1050.328125 1160 -1010 1160 c 5
 -920 1160 l 5
 -920 140 l 5
 -1010 140 l 6
 -1050 140 -1080 110.333007812 -1080 70 c 132
 -1080 29.6650390625 -1050.32714844 0 -1010 0 c 6
 -600 0 l 6
 -559.665039062 0 -530 29.6669921875 -530 70 c 132
 -530 110.334960938 -560 140 -600 140 c 6
 -780 140 l 5
 -780 610 l 5
 -450 610 l 5
 -450 540 l 5
 -450 501 -419 470 -380 470 c 4
 -339.666015625 470 -310 499.666992188 -310 540 c 5
 -310 820 l 5
 -310 859 -341 890 -380 890 c 4
 -419 890 -450 859 -450 820 c 5
 -450 750 l 5
 -780 750 l 5
 -780 1160 l 5
 320 1160 l 5
EndSplineSet
EndChar

StartChar: T_l.liga.ss10
Encoding: 337 -1 137
Width: 1200
GlyphClass: 3
Flags: W
LayerCount: 6
Fore
SplineSet
320 1160 m 1,0,-1
 550 1160 l 1,1,-1
 550 140 l 1,2,-1
 290 140 l 2,3,4
 260 140 260 140 240 120 c 128,-1,5
 220 100 220 100 220 70 c 128,-1,6
 220 40 220 40 240 20 c 128,-1,7
 260 0 260 0 290 0 c 2,8,-1
 950 0 l 2,9,10
 980 0 980 0 1000 20 c 128,-1,11
 1020 40 1020 40 1020 70 c 128,-1,12
 1020 100 1020 100 1000 120 c 128,-1,13
 980 140 980 140 950 140 c 2,14,-1
 690 140 l 1,15,-1
 690 1230 l 2,16,17
 690 1260 690 1260 670 1280 c 128,-1,18
 650 1300 650 1300 620 1300 c 2,19,-1
 320 1300 l 1,20,-1
 -1010 1300 l 2,21,22
 -1040 1300 -1040 1300 -1060 1280 c 128,-1,23
 -1080 1260 -1080 1260 -1080 1230 c 2,24,-1
 -1080 1030 l 2,25,26
 -1080 1001 -1080 1001 -1059.5 980.5 c 128,-1,27
 -1039 960 -1039 960 -1010 960 c 128,-1,28
 -981 960 -981 960 -960.5 980.5 c 128,-1,29
 -940 1001 -940 1001 -940 1030 c 2,30,-1
 -940 1160 l 1,31,-1
 -670 1160 l 1,32,-1
 -670 140 l 1,33,-1
 -850 140 l 2,34,35
 -880 140 -880 140 -900 120 c 128,-1,36
 -920 100 -920 100 -920 70 c 128,-1,37
 -920 40 -920 40 -900 20 c 128,-1,38
 -880 0 -880 0 -850 0 c 2,39,-1
 -350 0 l 2,40,41
 -320 0 -320 0 -300 20 c 128,-1,42
 -280 40 -280 40 -280 70 c 128,-1,43
 -280 100 -280 100 -300 120 c 128,-1,44
 -320 140 -320 140 -350 140 c 2,45,-1
 -530 140 l 1,46,-1
 -530 1160 l 1,47,-1
 320 1160 l 1,0,-1
EndSplineSet
Validated: 9
Layer: 2
SplineSet
320 1160 m 5
 550 1160 l 5
 550 140 l 5
 290 140 l 6
 250 140 220 110.333007812 220 70 c 132
 220 29.6650390625 249.666992188 0 290 0 c 6
 950 0 l 6
 990.334960938 0 1020 29.6669921875 1020 70 c 132
 1020 110.334960938 990 140 950 140 c 6
 690 140 l 5
 690 1230 l 133
 690 1270.33496094 660.333007812 1300 620 1300 c 5
 320 1300 l 5
 -1010 1300 l 5
 -1050.33398438 1300 -1080 1270.33300781 -1080 1230 c 5
 -1080 1030 l 5
 -1080 991 -1049 960 -1010 960 c 4
 -971 960 -940 991 -940 1030 c 5
 -940 1160 l 5
 -670 1160 l 5
 -670 140 l 5
 -850 140 l 5
 -890.330078125 140 -920 110.333007812 -920 70 c 132
 -920 29.6650390625 -890.326171875 0 -850 0 c 6
 -350 0 l 6
 -309.666015625 0 -280 29.6669921875 -280 70 c 132
 -280 110.334960938 -309.66796875 140 -350 140 c 5
 -530 140 l 5
 -530 1160 l 5
 320 1160 l 5
EndSplineSet
EndChar

StartChar: a
Encoding: 97 97 138
Width: 1200
GlyphClass: 2
Flags: W
AnchorPoint: "Anchor-1" 600 0 basechar 0
AnchorPoint: "Anchor-0" 584 1053 basechar 0
LayerCount: 6
Fore
SplineSet
345 795 m 4,0,1
 332 790 332 790 320 790 c 4,2,3
 291 790 291 790 270.5 810.5 c 132,-1,4
 250 831 250 831 250 860 c 4,5,6
 250 882 250 882 262 899.5 c 132,-1,7
 274 917 274 917 294 925 c 4,8,9
 436 980 436 980 560 980 c 4,10,11
 736 980 736 980 838 899 c 132,-1,12
 940 818 940 818 940 640 c 6,13,14
 940 640 940 640 940 140 c 5,15,-1
 1010 140 l 6,16,17
 1039 140 1039 140 1059.5 119.5 c 132,-1,18
 1080 99 1080 99 1080 70 c 132,-1,19
 1080 41 1080 41 1059.5 20.5 c 132,-1,20
 1039 0 1039 0 1010 0 c 6,21,22
 1010 0 1010 0 870 0 c 6,23,24
 841 0 841 0 820.5 20.5 c 132,-1,25
 800 41 800 41 800 70 c 6,26,27
 800 70 800 70 800 104.326171875 c 5,28,29
 732.562044838 47.7692322901 732.562044838 47.7692322901 655.938154401 13.8846161451 c 132,-1,30
 579.314263964 -20 579.314263964 -20 510 -20 c 4,31,32
 364 -20 364 -20 272 69.5 c 132,-1,33
 180 159 180 159 180 290 c 132,-1,34
 180 421 180 421 272 510.5 c 132,-1,35
 364 600 364 600 510 600 c 4,36,37
 605 600 605 600 667 588 c 132,-1,38
 729 576 729 576 800 548 c 5,39,40
 800 548 800 548 800 640 c 6,41,42
 800 742 800 742 749.5 791 c 132,-1,43
 699 840 699 840 560 840 c 4,44,45
 459 840 459 840 345 795 c 4,0,1
800 281.426757812 m 1,46,47
 800 281.426757812 800 281.426757812 800 406 c 1,48,49
 726 460 726 460 510 460 c 0,50,51
 422 460 422 460 371 411.5 c 128,-1,52
 320 363 320 363 320 290 c 128,-1,53
 320 217 320 217 371 168.5 c 128,-1,54
 422 120 422 120 510 120 c 0,55,56
 578.580810893 120 578.580810893 120 666.830953138 170.002430831 c 128,-1,57
 755.081095382 220.004861663 755.081095382 220.004861663 800 281.426757812 c 1,46,47
EndSplineSet
Validated: 1
Layer: 2
SplineSet
345 795 m 4
 415.6875 822.78125 485.616948374 840 560 840 c 4
 757.040604952 840 800 764.016127983 800 640 c 13
 800 548 l 5
 713 582 645.003703653 600 510 600 c 4
 311 600 180 461 180 290 c 4
 180 119 311 -20 510 -20 c 4
 605.372017591 -20 713.376801921 31.6795002992 800 104.326171875 c 5
 800 70 l 6
 800 31 831 0 870 0 c 6
 1010 0 l 6
 1049 0 1080 31 1080 70 c 4
 1080 109 1049 140 1010 140 c 6
 940 140 l 5
 940 640 l 21
 940 889 780 980 560 980 c 4
 478.077392182 980 387.712890625 961.180664062 294 925 c 4
 268 915 250 889.786132812 250 860 c 4
 250 821 281 790 320 790 c 4
 328.833007812 790 337.254882812 792.086914062 345 795 c 4
800 281.426757812 m 5
 741.30981193 201.174074286 603.139469302 120 510 120 c 4
 389 120 320 196 320 290 c 4
 320 384 389 460 510 460 c 4
 644 460 751 442 800 406 c 5
 800 281.426757812 l 5
EndSplineSet
Substitution2: "'cv01' Character Variants 01 lookup 361 subtable" a.cv01
Substitution2: "Single Substitution lookup 12 subtable" ordfeminine
AlternateSubs2: "'aalt' Access All Alternates lookup 1 subtable" a.cv01 ordfeminine
EndChar

StartChar: ae
Encoding: 230 230 148
Width: 1200
GlyphClass: 2
Flags: W
AnchorPoint: "Anchor-0" 617 1053 basechar 0
LayerCount: 6
Fore
SplineSet
530 281 m 1,0,1
 530 281 530 281 530 427 c 1,2,3
 512 427 512 427 419.5 436 c 128,-1,4
 327 445 327 445 250 445 c 4,5,6
 163 445 163 445 116.5 404.5 c 128,-1,7
 70 364 70 364 70 290 c 128,-1,8
 70 216 70 216 116.5 168 c 128,-1,9
 163 120 163 120 250 120 c 0,10,11
 318 120 318 120 401 169.5 c 128,-1,12
 484 219 484 219 530 281 c 1,0,1
574 158 m 1,13,14
 528 94 528 94 487 57.5 c 128,-1,15
 446 21 446 21 388 0.5 c 128,-1,16
 330 -20 330 -20 250 -20 c 0,17,18
 105 -20 105 -20 17.5 69 c 128,-1,19
 -70 158 -70 158 -70 290 c 128,-1,20
 -70 422 -70 422 17.5 503.5 c 128,-1,21
 105 585 105 585 250 585 c 4,22,23
 328 585 328 585 422 577.5 c 128,-1,24
 516 570 516 570 530 570 c 1,25,26
 530 570 530 570 530 640 c 2,27,28
 530 742 530 742 479.5 791 c 128,-1,29
 429 840 429 840 290 840 c 0,30,31
 202 840 202 840 85 795 c 0,32,33
 72 790 72 790 60 790 c 0,34,35
 31 790 31 790 10.5 810.5 c 128,-1,36
 -10 831 -10 831 -10 860 c 0,37,38
 -10 908 -10 908 34 925 c 0,39,40
 178 980 178 980 290 980 c 0,41,42
 512 980 512 980 604 849 c 1,43,44
 703 980 703 980 888 980 c 0,45,46
 1268 980 1268 980 1268 496 c 0,47,48
 1268 470 1268 470 1246 449 c 0,49,50
 1226 430 1226 430 1198 430 c 2,51,52
 1198 430 1198 430 650 430 c 1,53,54
 665 269 665 269 717.5 195 c 128,-1,55
 770 121 770 121 888 121 c 0,56,57
 930 121 930 121 968 132.5 c 128,-1,58
 1006 144 1006 144 1032.5 159 c 128,-1,59
 1059 174 1059 174 1116 210 c 0,60,61
 1132 220 1132 220 1153 220 c 0,62,63
 1182 220 1182 220 1202.5 199.5 c 128,-1,64
 1223 179 1223 179 1223 150 c 0,65,66
 1223 112 1223 112 1190 90 c 0,67,68
 1095 28 1095 28 1034 4 c 128,-1,69
 973 -20 973 -20 888 -20 c 0,70,71
 671 -20 671 -20 574 158 c 1,13,14
1121 570 m 1,72,73
 1096 713 1096 713 1046.5 776 c 128,-1,74
 997 839 997 839 888 839 c 128,-1,75
 779 839 779 839 729.5 776 c 128,-1,76
 680 713 680 713 655 570 c 1,77,-1
 1121 570 l 1,72,73
EndSplineSet
Validated: 1
Layer: 2
SplineSet
574 158 m 1
 638 40 737 -20 888 -20 c 0
 1009 -20 1076 16 1190 90 c 1
 1210 102 1223 125 1223 150 c 0
 1223 189 1192 220 1153 220 c 0
 1139 220 1127 217 1116 210 c 1
 1023 151 976 121 888 121 c 0
 724 121 669 225 650 430 c 1
 1198 430 l 1
 1236 430 1266 459 1268 496 c 1
 1261 816 1138 980 888 980 c 0
 758 980 670 936 604 849 c 1
 539 942 432 980 290 980 c 0
 208 980 128 961 34 925 c 0
 8 915 -10 890 -10 860 c 0
 -10 821 21 790 60 790 c 0
 69 790 77 792 85 795 c 0
 156 823 216 840 290 840 c 0
 487 840 530 764 530 640 c 1
 530 570 l 1
 480 570 385 585 250 585 c 0
 51 585 -70 461 -70 290 c 0
 -70 119 51 -20 250 -20 c 0
 413 -20 488 38 574 158 c 1
530 281 m 1
 471 201 343 120 250 120 c 0
 129 120 70 196 70 290 c 0
 70 384 129 445 250 445 c 0
 384 445 475 427 530 427 c 1
 530 281 l 1
1121 570 m 1
 1090 748 1041 839 888 839 c 0
 735 839 686 748 655 570 c 1
 1121 570 l 1
EndSplineSet
Layer: 3
SplineSet
869 1075 m 4
 989 1075 1076.33333333 1029 1131 937 c 132
 1185.66666667 845 1213 719 1213 559 c 4
 1213 522.333333333 1211.66666667 491 1209 465 c 5
 671 465 l 5
 680.333333333 345.666666667 702.666666667 258 738 202 c 132
 773.333333333 146 826.333333333 118 897 118 c 4
 935.666666667 118 970.166666667 125 1000.5 139 c 132
 1030.83333333 153 1062.33333333 172.333333333 1095 197 c 5
 1173 82 l 5
 1133 50.6666666667 1090.83333333 25.3333333333 1046.5 6 c 132
 1002.16666667 -13.3333333333 951.666666667 -23 895 -23 c 4
 824.333333333 -23 764.5 -7.33333333333 715.5 24 c 132
 666.5 55.3333333333 623.666666667 103.666666667 587 169 c 5
 545 99 502.166666667 49.5 458.5 20.5 c 132
 414.833333333 -8.5 359.666666667 -23 293 -23 c 4
 199.666666667 -23 125.5 6.66666666667 70.5 66 c 132
 15.5 125.333333333 -12 204 -12 302 c 4
 -12 411.333333333 24.3333333333 495.166666667 97 553.5 c 132
 169.666666667 611.833333333 276.333333333 641 417 641 c 6
 507 641 l 5
 507 727 l 6
 507 800.333333333 491.166666667 853.333333333 459.5 886 c 132
 427.833333333 918.666666667 383 935 325 935 c 4
 289.666666667 935 257 930.666666667 227 922 c 132
 197 913.333333333 160.333333333 899.666666667 117 881 c 5
 71 1008 l 5
 115.666666667 1028.66666667 161.166666667 1045 207.5 1057 c 132
 253.833333333 1069 298.333333333 1075 341 1075 c 4
 418.333333333 1075 477.166666667 1059.16666667 517.5 1027.5 c 132
 557.833333333 995.833333333 587.666666667 953.333333333 607 900 c 5
 627.666666667 954 660 996.666666667 704 1028 c 132
 748 1059.33333333 803 1075 869 1075 c 4
864 936 m 4
 804 936 759 910.833333333 729 860.5 c 132
 699 810.166666667 679.666666667 722.333333333 671 597 c 5
 1049 597 l 5
 1047 707.666666667 1032.83333333 791.833333333 1006.5 849.5 c 132
 980.166666667 907.166666667 932.666666667 936 864 936 c 4
507 525 m 5
 423 525 l 6
 327 525 260.666666667 505.5 224 466.5 c 132
 187.333333333 427.5 169 375.666666667 169 311 c 4
 169 243.666666667 182.5 192.833333333 209.5 158.5 c 132
 236.5 124.166666667 272.333333333 107 317 107 c 260
 361.666666667 107 400.5 122.833333333 433.5 154.5 c 132
 466.5 186.166666667 499.333333333 232.666666667 532 294 c 5
 524 329.333333333 517.833333333 366.333333333 513.5 405 c 132
 509.166666667 443.666666667 507 483.666666667 507 525 c 5
EndSplineSet
EndChar

StartChar: b
Encoding: 98 98 150
Width: 1200
GlyphClass: 2
Flags: W
AnchorPoint: "Anchor-1" 600 0 basechar 0
AnchorPoint: "Anchor-0" 600 1477 basechar 0
LayerCount: 6
Fore
SplineSet
1080 480 m 128,-1,1
 1080 622 1080 622 1038.5 732.5 c 128,-1,2
 997 843 997 843 906 911.5 c 128,-1,3
 815 980 815 980 685 980 c 0,4,5
 603 980 603 980 537.5 943 c 128,-1,6
 472 906 472 906 410 839 c 1,7,-1
 410 1370 l 2,8,9
 410 1399 410 1399 389.5 1419.5 c 128,-1,10
 369 1440 369 1440 340 1440 c 2,11,-1
 180 1440 l 2,12,13
 151 1440 151 1440 130.5 1419.5 c 128,-1,14
 110 1399 110 1399 110 1370 c 128,-1,15
 110 1341 110 1341 130.5 1320.5 c 128,-1,16
 151 1300 151 1300 180 1300 c 2,17,-1
 270 1300 l 1,18,-1
 270 140 l 1,19,-1
 180 140 l 2,20,21
 151 140 151 140 130.5 119.5 c 128,-1,22
 110 99 110 99 110 70 c 128,-1,23
 110 41 110 41 130.5 20.5 c 128,-1,24
 151 0 151 0 180 0 c 2,25,-1
 340 0 l 2,26,27
 369 0 369 0 389.5 20.5 c 128,-1,28
 410 41 410 41 410 70 c 2,29,-1
 410 121 l 1,30,31
 472 54 472 54 537.5 17 c 128,-1,32
 603 -20 603 -20 685 -20 c 0,33,34
 815 -20 815 -20 906 48.5 c 128,-1,35
 997 117 997 117 1038.5 227.5 c 128,-1,0
 1080 338 1080 338 1080 480 c 128,-1,1
410 330 m 1,36,-1
 410 630 l 1,37,38
 447 721 447 721 523.5 780.5 c 128,-1,39
 600 840 600 840 685 840 c 0,40,41
 792 840 792 840 866 735 c 128,-1,42
 940 630 940 630 940 480 c 128,-1,43
 940 330 940 330 866 225 c 128,-1,44
 792 120 792 120 685 120 c 0,45,46
 600 120 600 120 523.5 179.5 c 128,-1,47
 447 239 447 239 410 330 c 1,36,-1
EndSplineSet
Validated: 9
Layer: 2
SplineSet
410 330 m 5
 410 630 l 5
 458 749 569.982421875 840 685 840 c 7
 829 840 940 679 940 480 c 4
 940 281 829 120 685 120 c 7
 569.982421875 120 458 211 410 330 c 5
1080 480 m 4
 1080 756 954 980 685 980 c 7
 567 980 483 917 410 839 c 5
 410 1370 l 6
 410 1409 379 1440 340 1440 c 5
 180 1440 l 5
 141 1440 110 1409 110 1370 c 4
 110 1331 141 1300 180 1300 c 5
 270 1300 l 5
 270 140 l 5
 180 140 l 5
 141 140 110 109 110 70 c 4
 110 31 141 0 180 0 c 5
 340 0 l 5
 379 0 410 31 410 70 c 5
 410 121 l 5
 483 43 567 -20 685 -20 c 7
 954 -20 1080 204 1080 480 c 4
EndSplineSet
EndChar

StartChar: c
Encoding: 99 99 151
Width: 1200
GlyphClass: 2
Flags: W
LayerCount: 6
Fore
SplineSet
881 891 m 5,0,1
 764 980 764 980 600 980 c 4,2,3
 504 980 504 980 421 948 c 132,-1,4
 338 916 338 916 275 855 c 132,-1,5
 212 794 212 794 176 697.5 c 132,-1,6
 140 601 140 601 140 480 c 132,-1,7
 140 359 140 359 176 262.5 c 132,-1,8
 212 166 212 166 275 105 c 132,-1,9
 338 44 338 44 421 12 c 132,-1,10
 504 -20 504 -20 600 -20 c 4,11,12
 774 -20 774 -20 967 105 c 4,13,14
 1000 125 1000 125 1000 165 c 4,15,16
 1000 194 1000 194 979.5 214.5 c 132,-1,17
 959 235 959 235 930 235 c 4,18,19
 909 235 909 235 893 225 c 4,20,21
 729 121 729 121 600 121 c 4,22,23
 461 121 461 121 370.5 215 c 132,-1,24
 280 309 280 309 280 481 c 4,25,26
 280 652 280 652 370.5 745.5 c 132,-1,27
 461 839 461 839 600 839 c 4,28,29
 692 839 692 839 766 796.5 c 132,-1,30
 840 754 840 754 880 673 c 5,31,-1
 879 639 l 6,32,33
 879 610 879 610 899.5 589.5 c 132,-1,34
 920 569 920 569 949 569 c 132,-1,35
 978 569 978 569 998.5 589.5 c 132,-1,36
 1019 610 1019 610 1019 639 c 6,37,-1
 1020 888 l 6,38,39
 1020 917 1020 917 999.5 937.5 c 132,-1,40
 979 958 979 958 950 958 c 4,41,42
 924 958 924 958 904.5 941 c 132,-1,43
 885 924 885 924 881 899 c 5,44,-1
 881 891 l 5,0,1
EndSplineSet
Layer: 2
SplineSet
881 891 m 5
 803.006835938 950.125976562 706.700107152 980 600 980 c 4
 346 980 140 811 140 480 c 4
 140 149 346 -20 600 -20 c 4
 720.932678224 -20 853 31 967 105 c 5
 987 117 1000 140 1000 165 c 4
 1000 204 969 235 930 235 c 4
 916 235 904 232 893 225 c 5
 800 166 688 121 600 121 c 4
 423 121 280 242 280 481 c 4
 280 718 423 839 600 839 c 4
 719.995153245 839 825.227946575 783.026051988 880 673 c 5
 879 639 l 5
 879 600 910 569 949 569 c 4
 988 569 1019 600 1019 639 c 5
 1020 888 l 5
 1020 927 989 958 950 958 c 4
 914.747070312 958 886.193359375 932.670898438 881 899 c 5
 881 891 l 5
EndSplineSet
EndChar

StartChar: d
Encoding: 100 100 157
Width: 1200
GlyphClass: 2
Flags: W
AnchorPoint: "Anchor-2" 600 527 basechar 0
AnchorPoint: "Anchor-1" 600 0 basechar 0
AnchorPoint: "Anchor-0" 600 1477 basechar 0
LayerCount: 6
Fore
SplineSet
930 1370 m 2,0,1
 930 1399 930 1399 909.5 1419.5 c 128,-1,2
 889 1440 889 1440 860 1440 c 2,3,-1
 700 1440 l 2,4,5
 671 1440 671 1440 650.5 1419.5 c 128,-1,6
 630 1399 630 1399 630 1370 c 128,-1,7
 630 1341 630 1341 650.5 1320.5 c 128,-1,8
 671 1300 671 1300 700 1300 c 2,9,-1
 790 1300 l 1,10,-1
 790 839 l 1,11,12
 728 906 728 906 662.5 943 c 128,-1,13
 597 980 597 980 515 980 c 0,14,15
 385 980 385 980 294 911.5 c 128,-1,16
 203 843 203 843 161.5 732.5 c 128,-1,17
 120 622 120 622 120 480 c 128,-1,18
 120 338 120 338 161.5 227.5 c 128,-1,19
 203 117 203 117 294 48.5 c 128,-1,20
 385 -20 385 -20 515 -20 c 0,21,22
 597 -20 597 -20 662.5 17 c 128,-1,23
 728 54 728 54 790 121 c 1,24,-1
 790 70 l 2,25,26
 790 41 790 41 810.5 20.5 c 128,-1,27
 831 0 831 0 860 0 c 2,28,-1
 1020 0 l 2,29,30
 1049 0 1049 0 1069.5 20.5 c 128,-1,31
 1090 41 1090 41 1090 70 c 128,-1,32
 1090 99 1090 99 1069.5 119.5 c 128,-1,33
 1049 140 1049 140 1020 140 c 2,34,-1
 930 140 l 1,35,-1
 930 1370 l 2,0,1
794 330 m 5,36,37
 757 239 757 239 680.5 179.5 c 132,-1,38
 604 120 604 120 519 120 c 4,39,40
 412 120 412 120 338 225 c 132,-1,41
 264 330 264 330 264 480 c 132,-1,42
 264 630 264 630 338 735 c 132,-1,43
 412 840 412 840 519 840 c 4,44,45
 604 840 604 840 680.5 780.5 c 132,-1,46
 757 721 757 721 794 630 c 5,47,48
 794 630 794 630 794 330 c 5,36,37
EndSplineSet
Validated: 9
Layer: 2
SplineSet
930 1370 m 1
 930 1409 899 1440 860 1440 c 1
 860 1440 l 1
 700 1440 l 5
 661 1440 630 1409 630 1370 c 0
 630 1331 661 1300 700 1300 c 1
 790 1300 l 25
 790 839 l 1
 717 917 633 980 515 980 c 3
 246 980 120 756 120 480 c 0
 120 204 246 -20 515 -20 c 3
 633 -20 717 43 790 121 c 1
 790 70 l 1
 790 31 821 0 860 0 c 1
 1020 0 l 1
 1059 0 1090 31 1090 70 c 0
 1090 109 1059 140 1020 140 c 1
 930 140 l 1
 930 1370 l 1
794 330 m 1
 794 630 l 1
 746 749 634.017578125 840 519 840 c 3
 375 840 264 679 264 480 c 0
 264 281 375 120 519 120 c 3
 634.017578125 120 746 211 794 330 c 1
EndSplineSet
EndChar

StartChar: eth
Encoding: 240 240 158
Width: 1200
GlyphClass: 1
Flags: W
LayerCount: 6
Fore
SplineSet
662 1153 m 5,0,-1
 367 1082 l 6,1,2
 357 1080 357 1080 350 1080 c 4,3,4
 321 1080 321 1080 300.5 1100.5 c 132,-1,5
 280 1121 280 1121 280 1150 c 4,6,7
 280 1175 280 1175 295 1194 c 132,-1,8
 310 1213 310 1213 333 1218 c 6,9,-1
 566 1274 l 5,10,11
 547 1295 547 1295 522 1319 c 4,12,13
 500 1341 500 1341 500 1370 c 132,-1,14
 500 1399 500 1399 520.5 1419.5 c 132,-1,15
 541 1440 541 1440 570 1440 c 4,16,17
 597 1440 597 1440 618 1421 c 4,18,19
 668 1374 668 1374 719 1310 c 5,20,-1
 978 1373 l 6,21,22
 988 1375 988 1375 995 1375 c 4,23,24
 1024 1375 1024 1375 1044.5 1354.5 c 132,-1,25
 1065 1334 1065 1334 1065 1305 c 4,26,27
 1065 1280 1065 1280 1050 1261 c 132,-1,28
 1035 1242 1035 1242 1012 1237 c 6,29,-1
 805 1187 l 5,30,31
 995 872 995 872 995 480 c 4,32,33
 995 338 995 338 953.5 227.5 c 132,-1,34
 912 117 912 117 821 48.5 c 132,-1,35
 730 -20 730 -20 600 -20 c 132,-1,36
 470 -20 470 -20 379 48.5 c 132,-1,37
 288 117 288 117 246.5 227.5 c 132,-1,38
 205 338 205 338 205 480 c 132,-1,39
 205 622 205 622 246.5 732.5 c 132,-1,40
 288 843 288 843 379 911.5 c 132,-1,41
 470 980 470 980 600 980 c 4,42,43
 694 980 694 980 772 942 c 5,44,45
 727 1057 727 1057 662 1153 c 5,0,-1
600 120 m 4,46,47
 708 120 708 120 783.5 225.5 c 132,-1,48
 859 331 859 331 859 480 c 132,-1,49
 859 629 859 629 783.5 734.5 c 132,-1,50
 708 840 708 840 600 840 c 4,51,52
 493 840 493 840 421 735.5 c 132,-1,53
 349 631 349 631 349 480 c 132,-1,54
 349 329 349 329 421 224.5 c 132,-1,55
 493 120 493 120 600 120 c 4,46,47
EndSplineSet
Validated: 1
Layer: 2
SplineSet
662 1153 m 5
 367 1082 l 5
 362 1081 356 1080 350 1080 c 4
 311 1080 280 1111 280 1150 c 4
 280 1183 302 1211 333 1218 c 5
 566 1274 l 5
 552 1290 537 1305 522 1319 c 5
 509 1332 500 1350 500 1370 c 4
 500 1409 531 1440 570 1440 c 4
 589 1440 605 1433 618 1421 c 5
 654 1387 687 1350 719 1310 c 5
 978 1373 l 5
 983 1374 989 1375 995 1375 c 4
 1034 1375 1065 1344 1065 1305 c 4
 1065 1272 1043 1244 1012 1237 c 5
 805 1187 l 5
 925 988 995 744 995 480 c 5
 995 204 869 -20 600 -20 c 7
 331 -20 205 204 205 480 c 4
 205 756 331 980 600 980 c 7
 666 980 723 966 772 942 c 5
 742 1018 705 1089 662 1153 c 5
600 120 m 7
 744 120 859 281 859 480 c 4
 859 679 744 840 600 840 c 7
 456 840 349 679 349 480 c 4
 349 281 456 120 600 120 c 7
EndSplineSet
EndChar

StartChar: dcroat
Encoding: 347 273 160
Width: 1200
GlyphClass: 2
Flags: W
AnchorPoint: "Anchor-2" 605 527 basechar 0
AnchorPoint: "Anchor-1" 605 0 basechar 0
AnchorPoint: "Anchor-0" 605 1477 basechar 0
LayerCount: 6
Fore
SplineSet
1004 1329 m 1,0,-1
 1161 1329 l 1,1,-1
 1161 1195 l 1,2,-1
 1004 1195 l 1,3,-1
 1004 0 l 1,4,-1
 856 0 l 1,5,-1
 840 139 l 1,6,7
 782 55 782 55 705.5 16 c 128,-1,8
 629 -23 629 -23 542 -23 c 0,9,10
 404 -23 404 -23 315.5 46 c 128,-1,11
 227 115 227 115 184 238.5 c 128,-1,12
 141 362 141 362 141 525 c 0,13,14
 141 683 141 683 190 807.5 c 128,-1,15
 239 932 239 932 331.5 1003.5 c 128,-1,16
 424 1075 424 1075 554 1075 c 0,17,18
 729 1075 729 1075 836 951 c 1,19,-1
 836 1195 l 1,20,-1
 493 1195 l 1,21,-1
 493 1329 l 1,22,-1
 836 1329 l 1,23,-1
 836 1498 l 1,24,-1
 1004 1477 l 1,25,-1
 1004 1329 l 1,0,-1
597 940 m 0,26,27
 466 940 466 940 395 837 c 128,-1,28
 324 734 324 734 324 525 c 0,29,30
 324 113 324 113 577 113 c 0,31,32
 666 113 666 113 729.5 163.5 c 128,-1,33
 793 214 793 214 836 279 c 1,34,-1
 836 805 l 1,35,36
 793 869 793 869 731.5 904.5 c 128,-1,37
 670 940 670 940 597 940 c 0,26,27
EndSplineSet
Validated: 1
EndChar

StartChar: e
Encoding: 101 101 161
Width: 1200
GlyphClass: 2
Flags: W
AnchorPoint: "Anchor-1" 600 0 basechar 0
AnchorPoint: "Anchor-0" 621 1053 basechar 0
LayerCount: 6
Fore
SplineSet
982 90.0400390625 m 1,0,1
 899.74785013 36.7202377528 899.74785013 36.7202377528 797.207166446 8.36011887639 c 128,-1,2
 694.666482761 -20 694.666482761 -20 600 -20 c 0,3,4
 504 -20 504 -20 421 12 c 128,-1,5
 338 44 338 44 275 105 c 128,-1,6
 212 166 212 166 176 262.5 c 128,-1,7
 140 359 140 359 140 480 c 128,-1,8
 140 601 140 601 176 697.5 c 128,-1,9
 212 794 212 794 275 855 c 128,-1,10
 338 916 338 916 421 948 c 128,-1,11
 504 980 504 980 600 980 c 0,12,13
 796 980 796 980 925.5 853.5 c 128,-1,14
 1055 727 1055 727 1060 496 c 0,15,16
 1058 468 1058 468 1038 449 c 128,-1,17
 1018 430 1018 430 990 430 c 2,18,-1
 282 430 l 1,19,20
 296 281 296 281 384 201 c 128,-1,21
 472 121 472 121 600 121 c 0,22,23
 670.315904394 121 670.315904394 121 755.920870118 144.43412875 c 128,-1,24
 841.525835843 167.8682575 841.525835843 167.8682575 908 210.040039062 c 0,25,26
 923.714285714 220.040039062 923.714285714 220.040039062 945 220.040039062 c 0,27,28
 974.25 220.040039062 974.25 220.040039062 994.625 199.665039062 c 128,-1,29
 1015 179.290039062 1015 179.290039062 1015 150.040039062 c 0,30,31
 1015 109.840039062 1015 109.840039062 982 90.0400390625 c 1,0,1
913 570 m 1,32,33
 890 699 890 699 804.5 769 c 128,-1,34
 719 839 719 839 600 839 c 128,-1,35
 481 839 481 839 395.5 769 c 128,-1,36
 310 699 310 699 287 570 c 1,37,-1
 913 570 l 1,32,33
EndSplineSet
Validated: 1
Layer: 2
SplineSet
982 90.0400390625 m 5
 868.39453125 16.3955078125 720.932678224 -20 600 -20 c 4
 346 -20 140 149 140 480 c 4
 140 811 346 980 600 980 c 4
 850 980 1053 816 1060 496 c 5
 1058 459 1028 430 990 430 c 5
 282 430 l 5
 301 225 436 121 600 121 c 4
 688 121 815 151.040039062 908 210.040039062 c 5
 919 217.040039062 931 220.040039062 945 220.040039062 c 4
 984 220.040039062 1015 189.040039062 1015 150.040039062 c 4
 1015 125.040039062 1002 102.040039062 982 90.0400390625 c 5
913 570 m 5
 882 748 753 839 600 839 c 4
 447 839 318 748 287 570 c 5
 913 570 l 5
EndSplineSet
Layer: 3
SplineSet
333 467 m 5
 337.666666667 345 369.833333333 256.166666667 429.5 200.5 c 132
 489.166666667 144.833333333 559.666666667 117 641 117 c 4
 695 117 743.666666667 125 787 141 c 132
 830.333333333 157 875.333333333 180.666666667 922 212 c 5
 1001 101 l 5
 952.333333333 62.3333333333 896.333333333 32 833 10 c 132
 769.666666667 -12 705 -23 639 -23 c 4
 536.333333333 -23 449.166666667 0 377.5 46 c 132
 305.833333333 92 251.166666667 156.166666667 213.5 238.5 c 132
 175.833333333 320.833333333 157 416.333333333 157 525 c 4
 157 631.666666667 175.833333333 726.333333333 213.5 809 c 132
 251.166666667 891.666666667 304.5 956.666666667 373.5 1004 c 132
 442.5 1051.33333333 523.666666667 1075 617 1075 c 4
 749.666666667 1075 854.166666667 1029 930.5 937 c 132
 1006.83333333 845 1045 719 1045 559 c 4
 1045 541 1044.5 524 1043.5 508 c 132
 1042.5 492 1041.66666667 478.333333333 1041 467 c 5
 333 467 l 5
619 937 m 4
 541 937 475.666666667 909.333333333 423 854 c 132
 370.333333333 798.666666667 340.666666667 713 334 597 c 5
 883 597 l 5
 881 709.666666667 856.333333333 794.5 809 851.5 c 132
 761.666666667 908.5 698.333333333 937 619 937 c 4
EndSplineSet
Layer: 5
SplineSet
1054.14257812 494.625 m 4
 1054.14257812 448.659179688 1038.03515625 429.5 993.01953125 429.5 c 6
 290.59375 429.5 l 5
 297.0703125 297.158203125 360.876953125 114.217773438 600.088867188 114.217773438 c 4
 655.923828125 114.217773438 797.287109375 121.8125 929.956054688 202.61328125 c 4
 998.104492188 244.118164062 1032.78515625 136.15625 1021.15527344 95.998046875 c 4
 1016.19140625 78.8583984375 1009.40527344 55.416015625 897.454101562 14.591796875 c 4
 823.391601562 -12.416015625 727.57421875 -38.08984375 600.088867188 -38.08984375 c 4
 481.98046875 -38.08984375 137.302734375 2.2783203125 137.302734375 468.365234375 c 4
 137.302734375 765.385742188 320.783203125 976.758789062 600.088867188 976.758789062 c 4
 707.508789062 976.758789062 1029.4921875 939.420898438 1054.14257812 494.625 c 4
893.087890625 576.556640625 m 5
 869.115234375 716.21484375 789.454101562 824.450195312 600.088867188 824.450195312 c 4
 514.052734375 824.450195312 345.828125 795.421875 300.296875 576.556640625 c 5
 893.087890625 576.556640625 l 5
EndSplineSet
EndChar

StartChar: eogonek
Encoding: 352 281 170
Width: 1200
GlyphClass: 2
Flags: W
AnchorPoint: "Anchor-1" 600 0 basechar 0
AnchorPoint: "Anchor-0" 621 1053 basechar 0
LayerCount: 6
Fore
SplineSet
333 467 m 1,0,1
 340 284 340 284 429.5 200.5 c 128,-1,2
 519 117 519 117 641 117 c 0,3,4
 722 117 722 117 787 141 c 128,-1,5
 852 165 852 165 922 212 c 1,6,-1
 1001 101 l 1,7,8
 911 30 911 30 793 -2 c 1,9,10
 692 -47 692 -47 640 -85.5 c 128,-1,11
 588 -124 588 -124 569.5 -159 c 128,-1,12
 551 -194 551 -194 551 -229 c 0,13,14
 551 -274 551 -274 575 -299.5 c 128,-1,15
 599 -325 599 -325 662 -325 c 0,16,17
 718 -325 718 -325 786 -311 c 1,18,-1
 768 -445 l 1,19,20
 738 -451 738 -451 709.5 -455 c 128,-1,21
 681 -459 681 -459 642 -459 c 0,22,23
 528 -459 528 -459 463 -402 c 128,-1,24
 398 -345 398 -345 398 -262 c 0,25,26
 398 -104 398 -104 597 -22 c 1,27,28
 386 -7 386 -7 271.5 142 c 128,-1,29
 157 291 157 291 157 525 c 0,30,31
 157 685 157 685 213.5 809 c 128,-1,32
 270 933 270 933 373.5 1004 c 128,-1,33
 477 1075 477 1075 617 1075 c 0,34,35
 816 1075 816 1075 930.5 937 c 128,-1,36
 1045 799 1045 799 1045 559 c 0,37,38
 1045 532 1045 532 1043.5 508 c 128,-1,39
 1042 484 1042 484 1041 467 c 1,40,-1
 333 467 l 1,0,1
619 937 m 0,41,42
 502 937 502 937 423 854 c 128,-1,43
 344 771 344 771 334 597 c 1,44,-1
 883 597 l 1,45,46
 880 766 880 766 809 851.5 c 128,-1,47
 738 937 738 937 619 937 c 0,41,42
EndSplineSet
Validated: 1
EndChar

StartChar: f
Encoding: 102 102 171
Width: 1200
GlyphClass: 2
Flags: W
HStem: 0 21G<439 607> 839 132<188 439 607 946> 1360 138<665.936 1061.69>
VStem: 439 168<0 839 971 1302.99>
AnchorPoint: "Anchor-1" 523 0 basechar 0
AnchorPoint: "Anchor-0" 740 1477 basechar 0
LayerCount: 6
Fore
SplineSet
600 1121 m 6,0,1
 600 1121 600 1121 600 960 c 5,2,-1
 920 960 l 6,3,4
 950 960 950 960 970 940 c 132,-1,5
 990 920 990 920 990 890 c 132,-1,6
 990 860 990 860 970 840 c 132,-1,7
 950 820 950 820 920 820 c 6,8,-1
 600 820 l 5,9,-1
 600 140 l 5,10,-1
 920 140 l 6,11,12
 950 140 950 140 970 120 c 132,-1,13
 990 100 990 100 990 70 c 132,-1,14
 990 40 990 40 970 20 c 132,-1,15
 950 -0 950 -0 920 0 c 6,16,-1
 280 0 l 6,17,18
 250 0 250 0 230 20 c 132,-1,19
 210 40 210 40 210 70 c 132,-1,20
 210 100 210 100 230 120 c 132,-1,21
 250 140 250 140 280 140 c 6,22,-1
 460 140 l 5,23,-1
 460 820 l 5,24,-1
 280 820 l 6,25,26
 250 820 250 820 230 840 c 132,-1,27
 210 860 210 860 210 890 c 132,-1,28
 210 920 210 920 230 940 c 132,-1,29
 250 960 250 960 280 960 c 6,30,-1
 460 960 l 5,31,-1
 460 1121 l 6,32,33
 460 1200 460 1200 477.5 1260.5 c 132,-1,34
 495 1321 495 1321 524 1358.5 c 132,-1,35
 553 1396 553 1396 595 1419 c 132,-1,36
 637 1442 637 1442 681.5 1451 c 132,-1,37
 726 1460 726 1460 780 1460 c 4,38,39
 880 1460 880 1460 991 1427 c 4,40,41
 1013 1420 1013 1420 1026.5 1402 c 132,-1,42
 1040 1384 1040 1384 1040 1360 c 4,43,44
 1040 1331 1040 1331 1019.5 1310.5 c 132,-1,45
 999 1290 999 1290 970 1290 c 4,46,47
 958 1290 958 1290 949 1293 c 4,48,49
 858 1320 858 1320 780 1320 c 4,50,51
 671 1320 671 1320 635.5 1272 c 132,-1,52
 600 1224 600 1224 600 1121 c 6,0,1
EndSplineSet
Validated: 1
Layer: 2
SplineSet
600 960 m 1
 920 960 l 1
 960 960 990 930.334960938 990 890 c 128
 990 849.666992188 960 820 920 820 c 2
 600 820 l 1
 600 140 l 1
 920 140 l 2
 960 140 990 110.334960938 990 70 c 128
 990 29.6669921875 960.334960938 0 920 0 c 2
 280 0 l 2
 239.666992188 0 210 29.6650390625 210 70 c 128
 210 110.333007812 240 140 280 140 c 2
 460 140 l 1
 460 820 l 1
 280 820 l 2
 240 820 210 849.665039062 210 890 c 128
 210 930.333007812 240 960 280 960 c 2
 460 960 l 1
 460 1121 l 21
 460 1394.00195312 612 1460 780 1460 c 3
 843.198242188 1460 917 1449 991 1427 c 1
 1020 1418 1040 1392 1040 1360 c 0
 1040 1321 1009 1290 970 1290 c 0
 963 1290 955 1291 949 1293 c 1
 893.354492188 1309.47558594 835.625976562 1320 780 1320 c 3
 623.997070312 1320 600 1243 600 1121 c 5
 600 960 l 1
EndSplineSet
Substitution2: "Single Substitution lookup 352 subtable" f.spacer
Substitution2: "Single Substitution lookup 350 subtable" f.spacer
Substitution2: "Single Substitution lookup 348 subtable" f.spacer
Substitution2: "Single Substitution lookup 346 subtable" f.spacer
Substitution2: "'aalt' Access All Alternates lookup 0 subtable" f.spacer
EndChar

StartChar: g
Encoding: 103 103 172
Width: 1200
GlyphClass: 2
Flags: W
AnchorPoint: "Anchor-0" 613 1053 basechar 0
LayerCount: 6
Fore
SplineSet
790 121 m 5,0,1
 728 54 728 54 662.5 17 c 132,-1,2
 597 -20 597 -20 515 -20 c 4,3,4
 385 -20 385 -20 294 48.5 c 132,-1,5
 203 117 203 117 161.5 227.5 c 132,-1,6
 120 338 120 338 120 480 c 132,-1,7
 120 622 120 622 161.5 732.5 c 132,-1,8
 203 843 203 843 294 911.5 c 132,-1,9
 385 980 385 980 515 980 c 4,10,11
 597 980 597 980 662.5 943 c 132,-1,12
 728 906 728 906 790 839 c 5,13,-1
 790 890 l 6,14,15
 790 919 790 919 810.5 939.5 c 132,-1,16
 831 960 831 960 860 960 c 6,17,18
 860 960 860 960 1020 960 c 6,19,20
 1049 960 1049 960 1069.5 939.5 c 132,-1,21
 1090 919 1090 919 1090 890 c 132,-1,22
 1090 861 1090 861 1069.5 840.5 c 132,-1,23
 1049 820 1049 820 1020 820 c 6,24,-1
 930 820 l 5,25,-1
 930 -120 l 6,26,27
 930 -298 930 -298 828 -379 c 132,-1,28
 726 -460 726 -460 550 -460 c 4,29,30
 426 -460 426 -460 284 -405 c 4,31,32
 264 -397 264 -397 252 -379.5 c 132,-1,33
 240 -362 240 -362 240 -340 c 4,34,35
 240 -311 240 -311 260.5 -290.5 c 132,-1,36
 281 -270 281 -270 310 -270 c 4,37,38
 322 -270 322 -270 335 -275 c 4,39,40
 449 -320 449 -320 550 -320 c 4,41,42
 689 -320 689 -320 739.5 -271 c 132,-1,43
 790 -222 790 -222 790 -120 c 6,44,-1
 790 121 l 5,0,1
794 330 m 5,45,-1
 794 630 l 5,46,47
 757 721 757 721 680.5 780.5 c 132,-1,48
 604 840 604 840 519 840 c 4,49,50
 412 840 412 840 338 735 c 132,-1,51
 264 630 264 630 264 480 c 132,-1,52
 264 330 264 330 338 225 c 132,-1,53
 412 120 412 120 519 120 c 4,54,55
 604 120 604 120 680.5 179.5 c 132,-1,56
 757 239 757 239 794 330 c 5,45,-1
EndSplineSet
Validated: 1
Layer: 2
SplineSet
790 121 m 1
 717 43 633 -20 515 -20 c 3
 246 -20 120 204 120 480 c 0
 120 756 246 980 515 980 c 3
 633 980 717 917 790 839 c 1
 790 890 l 17
 790 929 821 960 860 960 c 1
 860 960 l 1
 1020 960 l 1
 1059 960 1090 929 1090 890 c 0
 1090 851 1059 820 1020 820 c 1
 930 820 l 1
 930 -120 l 1
 930 -369 770 -460 550 -460 c 7
 468.077148438 -460 377.712890625 -441.180664062 284 -405 c 1
 258 -395 240 -369.786132812 240 -340 c 0
 240 -301 271 -270 310 -270 c 0
 318.833007812 -270 327.254882812 -272.086914062 335 -275 c 1
 405.6875 -302.78125 475.6171875 -320 550 -320 c 3
 747.041015625 -320 790 -244.016601562 790 -120 c 1
 790 121 l 1
794 330 m 1
 794 630 l 1
 746 749 634.017578125 840 519 840 c 3
 375 840 264 679 264 480 c 0
 264 281 375 120 519 120 c 3
 634.017578125 120 746 211 794 330 c 1
EndSplineSet
Substitution2: "'cv02' Character Variants 02 lookup 362 subtable" g.cv02
Substitution2: "'aalt' Access All Alternates lookup 0 subtable" g.cv02
EndChar

StartChar: h
Encoding: 104 104 177
Width: 1200
GlyphClass: 2
Flags: W
AnchorPoint: "Anchor-2" 600 527 basechar 0
AnchorPoint: "Anchor-1" 600 0 basechar 0
AnchorPoint: "Anchor-0" 600 1477 basechar 0
LayerCount: 6
Fore
SplineSet
1060 0 m 2,0,1
 1089 0 1089 0 1109.5 20.5 c 128,-1,2
 1130 41 1130 41 1130 70 c 128,-1,3
 1130 99 1130 99 1109.5 119.5 c 128,-1,4
 1089 140 1089 140 1060 140 c 2,5,-1
 970 140 l 1,6,-1
 970 664 l 2,7,8
 970 818 970 818 887 899 c 128,-1,9
 804 980 804 980 650 980 c 0,10,11
 601 980 601 980 556.5 961 c 128,-1,12
 512 942 512 942 480 910.5 c 128,-1,13
 448 879 448 879 427.5 850.5 c 128,-1,14
 407 822 407 822 390 790 c 1,15,-1
 390 1370 l 2,16,17
 390 1399 390 1399 369.5 1419.5 c 128,-1,18
 349 1440 349 1440 320 1440 c 2,19,-1
 160 1440 l 2,20,21
 131 1440 131 1440 110.5 1419.5 c 128,-1,22
 90 1399 90 1399 90 1370 c 128,-1,23
 90 1341 90 1341 110.5 1320.5 c 128,-1,24
 131 1300 131 1300 160 1300 c 2,25,-1
 250 1300 l 1,26,-1
 250 140 l 1,27,-1
 160 140 l 2,28,29
 131 140 131 140 110.5 119.5 c 128,-1,30
 90 99 90 99 90 70 c 128,-1,31
 90 41 90 41 110.5 20.5 c 128,-1,32
 131 0 131 0 160 0 c 2,33,-1
 480 0 l 2,34,35
 509 0 509 0 529.5 20.5 c 128,-1,36
 550 41 550 41 550 70 c 128,-1,37
 550 99 550 99 529.5 119.5 c 128,-1,38
 509 140 509 140 480 140 c 2,39,-1
 390 140 l 1,40,-1
 390 492 l 2,41,42
 390 626 390 626 466 733 c 128,-1,43
 542 840 542 840 640 840 c 0,44,45
 737 840 737 840 783.5 801 c 128,-1,46
 830 762 830 762 830 664 c 2,47,-1
 830 140 l 1,48,-1
 740 140 l 2,49,50
 711 140 711 140 690.5 119.5 c 128,-1,51
 670 99 670 99 670 70 c 128,-1,52
 670 41 670 41 690.5 20.5 c 128,-1,53
 711 0 711 0 740 0 c 2,54,-1
 1060 0 l 2,0,1
EndSplineSet
Validated: 9
Layer: 2
SplineSet
1060 0 m 5
 1099 0 1130 31 1130 70 c 4
 1130 109 1099 140 1060 140 c 5
 970 140 l 5
 970 664 l 6
 970 870 855 980 650 980 c 4
 510 980 427 861 390 790 c 5
 390 1370 l 6
 390 1409 359 1440 320 1440 c 5
 160 1440 l 5
 121 1440 90 1409 90 1370 c 4
 90 1331 121 1300 160 1300 c 5
 250 1300 l 5
 250 140 l 5
 160 140 l 5
 121 140 90 109 90 70 c 4
 90 31 121 0 160 0 c 5
 480 0 l 5
 519 0 550 31 550 70 c 4
 550 109 519 140 480 140 c 5
 390 140 l 5
 390 492 l 6
 390 670 508 840 640 840 c 4
 763 840 830 801 830 664 c 6
 830 140 l 5
 740 140 l 5
 701 140 670 109 670 70 c 4
 670 31 701 0 740 0 c 5
 1060 0 l 5
EndSplineSet
EndChar

StartChar: hbar
Encoding: 357 295 178
Width: 1200
GlyphClass: 2
Flags: W
AnchorPoint: "Anchor-2" 600 527 basechar 0
AnchorPoint: "Anchor-1" 600 0 basechar 0
AnchorPoint: "Anchor-0" 600 1477 basechar 0
LayerCount: 6
Fore
SplineSet
280 140 m 1,0,-1
 190 140 l 2,1,2
 161 140 161 140 140.5 119.5 c 128,-1,3
 120 99 120 99 120 70 c 128,-1,4
 120 41 120 41 140.5 20.5 c 128,-1,5
 161 0 161 0 190 0 c 2,6,-1
 510 0 l 2,7,8
 539 0 539 0 559.5 20.5 c 128,-1,9
 580 41 580 41 580 70 c 128,-1,10
 580 99 580 99 559.5 119.5 c 128,-1,11
 539 140 539 140 510 140 c 2,12,-1
 420 140 l 1,13,-1
 420 492 l 2,14,15
 420 626 420 626 496 733 c 128,-1,16
 572 840 572 840 670 840 c 0,17,18
 767 840 767 840 813.5 801 c 128,-1,19
 860 762 860 762 860 664 c 2,20,-1
 860 140 l 1,21,-1
 770 140 l 2,22,23
 741 140 741 140 720.5 119.5 c 128,-1,24
 700 99 700 99 700 70 c 128,-1,25
 700 41 700 41 720.5 20.5 c 128,-1,26
 741 0 741 0 770 0 c 2,27,-1
 1090 0 l 2,28,29
 1119 0 1119 0 1139.5 20.5 c 128,-1,30
 1160 41 1160 41 1160 70 c 128,-1,31
 1160 99 1160 99 1139.5 119.5 c 128,-1,32
 1119 140 1119 140 1090 140 c 2,33,-1
 1000 140 l 1,34,-1
 1000 664 l 2,35,36
 1000 818 1000 818 917 899 c 128,-1,37
 834 980 834 980 680 980 c 0,38,39
 631 980 631 980 586.5 961 c 128,-1,40
 542 942 542 942 510 910.5 c 128,-1,41
 478 879 478 879 457.5 850.5 c 128,-1,42
 437 822 437 822 420 790 c 1,43,-1
 420 1073 l 1,44,-1
 772 1157 l 2,45,46
 795 1162 795 1162 810 1181 c 128,-1,47
 825 1200 825 1200 825 1225 c 0,48,49
 825 1254 825 1254 804.5 1274.5 c 128,-1,50
 784 1295 784 1295 755 1295 c 0,51,52
 748 1295 748 1295 738 1293 c 2,53,-1
 420 1217 l 1,54,-1
 420 1370 l 2,55,56
 420 1399 420 1399 399.5 1419.5 c 128,-1,57
 379 1440 379 1440 350 1440 c 2,58,-1
 190 1440 l 2,59,60
 161 1440 161 1440 140.5 1419.5 c 128,-1,61
 120 1399 120 1399 120 1370 c 128,-1,62
 120 1341 120 1341 140.5 1320.5 c 128,-1,63
 161 1300 161 1300 190 1300 c 2,64,-1
 280 1300 l 1,65,-1
 280 1183 l 1,66,-1
 93 1138 l 2,67,68
 70 1133 70 1133 55 1114 c 128,-1,69
 40 1095 40 1095 40 1070 c 0,70,71
 40 1041 40 1041 60.5 1020.5 c 128,-1,72
 81 1000 81 1000 110 1000 c 0,73,74
 117 1000 117 1000 127 1002 c 2,75,-1
 280 1039 l 1,76,-1
 280 140 l 1,0,-1
EndSplineSet
Validated: 9
Layer: 2
SplineSet
280 140 m 1
 190 140 l 1
 151 140 120 109 120 70 c 0
 120 31 151 0 190 0 c 1
 510 0 l 1
 549 0 580 31 580 70 c 0
 580 109 549 140 510 140 c 1
 420 140 l 1
 420 492 l 2
 420 670 538 840 670 840 c 0
 793 840 860 801 860 664 c 2
 860 140 l 1
 770 140 l 1
 731 140 700 109 700 70 c 0
 700 31 731 0 770 0 c 1
 1090 0 l 1
 1129 0 1160 31 1160 70 c 0
 1160 109 1129 140 1090 140 c 1
 1000 140 l 1
 1000 664 l 2
 1000 870 885 980 680 980 c 0
 540 980 457 861 420 790 c 1
 420 1073 l 1
 772 1157 l 5
 803 1164 825 1192 825 1225 c 4
 825 1264 794 1295 755 1295 c 4
 749 1295 743 1294 738 1293 c 5
 420 1217 l 1
 420 1370 l 1
 420 1409 389 1440 350 1440 c 1
 190 1440 l 1
 151 1440 120 1409 120 1370 c 0
 120 1331 151 1300 190 1300 c 1
 280 1300 l 1
 280 1183 l 1
 93 1138 l 5
 62 1131 40 1103 40 1070 c 4
 40 1031 71 1000 110 1000 c 4
 116 1000 122 1001 127 1002 c 5
 280 1039 l 1
 280 140 l 1
EndSplineSet
EndChar

StartChar: i
Encoding: 105 105 180
Width: 1200
GlyphClass: 2
Flags: W
HStem: 0 133<241 566 734 1031> 920 133<251 566> 1309 237<514.067 688.448>
VStem: 479 244<1344.58 1510.93> 566 168<133 920>
AnchorPoint: "Anchor-1" 600 0 basechar 0
LayerCount: 6
Fore
SplineSet
190 890 m 132,-1,1
 190 920 190 920 210 940 c 132,-1,2
 230 960 230 960 260 960 c 6,3,4
 260 960 260 960 600 960 c 6,5,6
 630 960 630 960 650 940 c 132,-1,7
 670 920 670 920 670 890 c 6,8,9
 670 890 670 890 670 140 c 5,10,-1
 940 140 l 6,11,12
 970 140 970 140 990 120 c 132,-1,13
 1010 100 1010 100 1010 70 c 132,-1,14
 1010 40 1010 40 990 20 c 132,-1,15
 970 0 970 0 940 0 c 6,16,17
 940 0 940 0 260 0 c 6,18,19
 230 0 230 0 210 20 c 132,-1,20
 190 40 190 40 190 70 c 132,-1,21
 190 100 190 100 210 120 c 132,-1,22
 230 140 230 140 260 140 c 6,23,24
 260 140 260 140 530 140 c 5,25,-1
 530 820 l 5,26,-1
 260 820 l 6,27,28
 230 820 230 820 210 840 c 132,-1,0
 190 860 190 860 190 890 c 132,-1,1
480 1320 m 128,-1,30
 480 1370 480 1370 515 1405 c 128,-1,31
 550 1440 550 1440 600 1440 c 128,-1,32
 650 1440 650 1440 685 1405 c 128,-1,33
 720 1370 720 1370 720 1320 c 128,-1,34
 720 1270 720 1270 685 1235 c 128,-1,35
 650 1200 650 1200 600 1200 c 128,-1,36
 550 1200 550 1200 515 1235 c 128,-1,29
 480 1270 480 1270 480 1320 c 128,-1,30
EndSplineSet
Validated: 1
Layer: 2
SplineSet
480 1320 m 4
 480 1386 534 1440 600 1440 c 4
 666 1440 720 1386 720 1320 c 4
 720 1254 666 1200 600 1200 c 4
 534 1200 480 1254 480 1320 c 4
190 890 m 132
 190 849.665039062 220 820 260 820 c 6
 530 820 l 5
 530 140 l 5
 260 140 l 6
 220 140 190 110.333007812 190 70 c 132
 190 29.6650390625 219.666992188 0 260 0 c 6
 940 0 l 6
 980.334960938 0 1010 29.6669921875 1010 70 c 132
 1010 110.334960938 980 140 940 140 c 6
 670 140 l 5
 670 890 l 5
 670 930.334960938 640 960 600 960 c 6
 260 960 l 6
 220 960 190 930.333007812 190 890 c 132
EndSplineSet
Substitution2: "'cv06' Character Variants 06 lookup 366 subtable" i.cv06
Substitution2: "'cv05' Character Variants 05 lookup 365 subtable" i.cv05
Substitution2: "'cv04' Character Variants 04 lookup 364 subtable" i.cv04
Substitution2: "'cv03' Character Variants 03 lookup 363 subtable" i.cv03
Substitution2: "Single Substitution lookup 355 subtable" dotlessi
Substitution2: "Single Substitution lookup 354 subtable" dotlessi
Substitution2: "Single Substitution lookup 346 subtable" f_i.liga.ss10
Substitution2: "Single Substitution lookup 273 subtable" i.salt_low
Substitution2: "'locl' Localized Forms in Latin lookup 27 subtable" i.loclTRK
Substitution2: "'locl' Localized Forms in Latin lookup 23 subtable" i.loclTRK
Substitution2: "'locl' Localized Forms in Latin lookup 21 subtable" i.loclTRK
Substitution2: "'locl' Localized Forms in Latin lookup 18 subtable" i.loclTRK
Substitution2: "'locl' Localized Forms in Latin lookup 17 subtable" i.loclTRK
AlternateSubs2: "'aalt' Access All Alternates lookup 1 subtable" i.loclTRK i.cv03 i.cv04 i.cv05 i.cv06 i.salt_low f_i.liga.ss10
EndChar

StartChar: dotlessi
Encoding: 359 305 181
Width: 1200
GlyphClass: 2
Flags: W
AnchorPoint: "Anchor-0" 603 1053 basechar 0
LayerCount: 6
Fore
SplineSet
200 890 m 132,-1,1
 200 860 200 860 220 840 c 132,-1,2
 240 820 240 820 270 820 c 6,3,-1
 530 820 l 5,4,-1
 530 140 l 5,5,-1
 270 140 l 6,6,7
 240 140 240 140 220 120 c 132,-1,8
 200 100 200 100 200 70 c 132,-1,9
 200 40 200 40 220 20 c 132,-1,10
 240 0 240 0 270 0 c 6,11,-1
 930 0 l 6,12,13
 960 0 960 0 980 20 c 132,-1,14
 1000 40 1000 40 1000 70 c 132,-1,15
 1000 100 1000 100 980 120 c 132,-1,16
 960 140 960 140 930 140 c 6,17,-1
 670 140 l 5,18,-1
 670 890 l 6,19,20
 670 920 670 920 650 940 c 132,-1,21
 630 960 630 960 600 960 c 6,22,-1
 270 960 l 6,23,24
 240 960 240 960 220 940 c 132,-1,0
 200 920 200 920 200 890 c 132,-1,1
EndSplineSet
Validated: 9
Layer: 2
SplineSet
200 890 m 132
 200 849.665039062 230 820 270 820 c 6
 530 820 l 5
 530 140 l 5
 270 140 l 6
 230 140 200 110.333007812 200 70 c 132
 200 29.6650390625 229.666992188 0 270 0 c 6
 930 0 l 6
 970.334960938 0 1000 29.6669921875 1000 70 c 132
 1000 110.334960938 970 140 930 140 c 6
 670 140 l 5
 670 890 l 5
 670 930.334960938 640 960 600 960 c 6
 270 960 l 6
 230 960 200 930.333007812 200 890 c 132
EndSplineSet
Substitution2: "'cv06' Character Variants 06 lookup 366 subtable" dotlessi.cv06
Substitution2: "'cv05' Character Variants 05 lookup 365 subtable" dotlessi.cv05
Substitution2: "'cv04' Character Variants 04 lookup 364 subtable" dotlessi.cv04
Substitution2: "'cv03' Character Variants 03 lookup 363 subtable" dotlessi.cv03
AlternateSubs2: "'aalt' Access All Alternates lookup 1 subtable" dotlessi.cv03 dotlessi.cv04 dotlessi.cv05 dotlessi.cv06
EndChar

StartChar: ij
Encoding: 362 307 188
Width: 1200
GlyphClass: 1
Flags: W
LayerCount: 6
Fore
SplineSet
361 1322 m 132,-1,1
 361 1372 361 1372 396.5 1407 c 132,-1,2
 432 1442 432 1442 481 1442 c 132,-1,3
 530 1442 530 1442 565.5 1407 c 132,-1,4
 601 1372 601 1372 601 1322 c 132,-1,5
 601 1272 601 1272 565.5 1237 c 132,-1,6
 530 1202 530 1202 481 1202 c 132,-1,7
 432 1202 432 1202 396.5 1237 c 132,-1,0
 361 1272 361 1272 361 1322 c 132,-1,1
551 820 m 5,8,-1
 951 820 l 5,9,-1
 951 -121 l 6,10,11
 951 -224 951 -224 915.5 -272 c 132,-1,12
 880 -320 880 -320 771 -320 c 4,13,14
 693 -320 693 -320 602 -293 c 4,15,16
 593 -290 593 -290 581 -290 c 4,17,18
 552 -290 552 -290 531.5 -310.5 c 132,-1,19
 511 -331 511 -331 511 -360 c 4,20,21
 511 -384 511 -384 524.5 -402 c 132,-1,22
 538 -420 538 -420 560 -427 c 4,23,24
 671 -460 671 -460 771 -460 c 4,25,26
 825 -460 825 -460 869.5 -451 c 132,-1,27
 914 -442 914 -442 956 -419 c 132,-1,28
 998 -396 998 -396 1027 -358.5 c 132,-1,29
 1056 -321 1056 -321 1073.5 -260.5 c 132,-1,30
 1091 -200 1091 -200 1091 -121 c 6,31,-1
 1091 890 l 6,32,33
 1091 920 1091 920 1071 940 c 132,-1,34
 1051 960 1051 960 1021 960 c 6,35,-1
 481 960 l 5,36,-1
 141 960 l 6,37,38
 111 960 111 960 91 940 c 132,-1,39
 71 920 71 920 71 890 c 132,-1,40
 71 860 71 860 91 840 c 132,-1,41
 111 820 111 820 141 820 c 6,42,-1
 411 820 l 5,43,-1
 411 140 l 5,44,-1
 141 140 l 6,45,46
 111 140 111 140 91 120 c 132,-1,47
 71 100 71 100 71 70 c 132,-1,48
 71 40 71 40 91 20 c 132,-1,49
 111 0 111 0 141 0 c 6,50,-1
 821 0 l 6,51,52
 851 0 851 0 871 20 c 132,-1,53
 891 40 891 40 891 70 c 132,-1,54
 891 100 891 100 871 120 c 132,-1,55
 851 140 851 140 821 140 c 6,56,-1
 551 140 l 5,57,-1
 551 820 l 5,8,-1
901 1320 m 132,-1,59
 901 1370 901 1370 936.5 1405 c 132,-1,60
 972 1440 972 1440 1021 1440 c 132,-1,61
 1070 1440 1070 1440 1105.5 1405 c 132,-1,62
 1141 1370 1141 1370 1141 1320 c 132,-1,63
 1141 1270 1141 1270 1105.5 1235 c 132,-1,64
 1070 1200 1070 1200 1021 1200 c 132,-1,65
 972 1200 972 1200 936.5 1235 c 132,-1,58
 901 1270 901 1270 901 1320 c 132,-1,59
EndSplineSet
Validated: 9
Layer: 2
SplineSet
361 1322 m 4
 361 1388 415 1442 481 1442 c 4
 547 1442 601 1388 601 1322 c 4
 601 1256 547 1202 481 1202 c 4
 415 1202 361 1256 361 1322 c 4
551 820 m 5
 951 820 l 5
 951 -121 l 5
 951 -243 927.002929688 -320 771 -320 c 7
 715.374023438 -320 657.645507812 -309.475585938 602 -293 c 5
 596 -291 588 -290 581 -290 c 4
 542 -290 511 -321 511 -360 c 4
 511 -392 531 -418 560 -427 c 5
 634 -449 707.801757812 -460 771 -460 c 7
 939 -460 1091 -394.001953125 1091 -121 c 7
 1091 890 l 5
 1091 930.334960938 1061 960 1021 960 c 6
 481 960 l 6
 141 960 l 6
 101 960 71 930.333007812 71 890 c 132
 71 849.665039062 101 820 141 820 c 6
 411 820 l 5
 411 140 l 5
 141 140 l 6
 101 140 71 110.333007812 71 70 c 132
 71 29.6650390625 100.666992188 0 141 0 c 6
 821 0 l 6
 861.334960938 0 891 29.6669921875 891 70 c 132
 891 110.334960938 861 140 821 140 c 6
 551 140 l 5
 551 820 l 5
901 1320 m 4
 901 1386 955 1440 1021 1440 c 4
 1087 1440 1141 1386 1141 1320 c 4
 1141 1254 1087 1200 1021 1200 c 4
 955 1200 901 1254 901 1320 c 4
EndSplineSet
EndChar

StartChar: j
Encoding: 106 106 192
Width: 1200
GlyphClass: 2
Flags: W
AnchorPoint: "Anchor-0" 735 1053 basechar 0
LayerCount: 6
Fore
SplineSet
700 -121 m 6,0,-1
 700 820 l 5,1,-1
 430 820 l 6,2,3
 400 820 400 820 380 840 c 132,-1,4
 360 860 360 860 360 890 c 132,-1,5
 360 920 360 920 380 940 c 132,-1,6
 400 960 400 960 430 960 c 6,7,-1
 770 960 l 6,8,9
 800 960 800 960 820 940 c 132,-1,10
 840 920 840 920 840 890 c 6,11,-1
 840 -121 l 6,12,13
 840 -200 840 -200 822.5 -260.5 c 132,-1,14
 805 -321 805 -321 776 -358.5 c 132,-1,15
 747 -396 747 -396 705 -419 c 132,-1,16
 663 -442 663 -442 618.5 -451 c 132,-1,17
 574 -460 574 -460 520 -460 c 4,18,19
 420 -460 420 -460 309 -427 c 4,20,21
 287 -420 287 -420 273.5 -402 c 132,-1,22
 260 -384 260 -384 260 -360 c 4,23,24
 260 -331 260 -331 280.5 -310.5 c 132,-1,25
 301 -290 301 -290 330 -290 c 4,26,27
 342 -290 342 -290 351 -293 c 4,28,29
 442 -320 442 -320 520 -320 c 4,30,31
 629 -320 629 -320 664.5 -272 c 132,-1,32
 700 -224 700 -224 700 -121 c 6,0,-1
650 1320 m 132,-1,34
 650 1370 650 1370 685 1405 c 132,-1,35
 720 1440 720 1440 770 1440 c 132,-1,36
 820 1440 820 1440 855 1405 c 132,-1,37
 890 1370 890 1370 890 1320 c 132,-1,38
 890 1270 890 1270 855 1235 c 132,-1,39
 820 1200 820 1200 770 1200 c 132,-1,40
 720 1200 720 1200 685 1235 c 132,-1,33
 650 1270 650 1270 650 1320 c 132,-1,34
EndSplineSet
Validated: 1
Layer: 2
SplineSet
700 -121 m 5
 700 820 l 5
 430 820 l 6
 390 820 360 849.665039062 360 890 c 132
 360 930.333007812 390 960 430 960 c 6
 770 960 l 6
 809.999023438 960 840 930.334960938 840 890 c 5
 840 -121 l 7
 840 -394.001953125 688 -460 520 -460 c 7
 456.801757812 -460 383 -449 309 -427 c 5
 280 -418 260 -392 260 -360 c 4
 260 -321 291 -290 330 -290 c 4
 337 -290 345 -291 351 -293 c 5
 406.645507812 -309.475585938 464.374023438 -320 520 -320 c 7
 676.002929688 -320 700 -243 700 -121 c 5
650 1320 m 4
 650 1386 704 1440 770 1440 c 4
 836 1440 890 1386 890 1320 c 4
 890 1254 836 1200 770 1200 c 4
 704 1200 650 1254 650 1320 c 4
EndSplineSet
Substitution2: "Single Substitution lookup 348 subtable" f_j.liga.ss10
Substitution2: "Single Substitution lookup 273 subtable" j.salt_low
AlternateSubs2: "'aalt' Access All Alternates lookup 1 subtable" j.salt_low f_j.liga.ss10
EndChar

StartChar: uni0237
Encoding: 366 567 193
Width: 1200
GlyphClass: 2
Flags: W
AnchorPoint: "Anchor-0" 735 1053 basechar 0
LayerCount: 6
Fore
SplineSet
650 -121 m 6,0,-1
 650 820 l 5,1,-1
 390 820 l 6,2,3
 360 820 360 820 340 840 c 132,-1,4
 320 860 320 860 320 890 c 132,-1,5
 320 920 320 920 340 940 c 132,-1,6
 360 960 360 960 390 960 c 6,7,-1
 720 960 l 6,8,9
 750 960 750 960 770 940 c 132,-1,10
 790 920 790 920 790 890 c 6,11,-1
 790 -121 l 6,12,13
 790 -200 790 -200 772.5 -260.5 c 132,-1,14
 755 -321 755 -321 726 -358.5 c 132,-1,15
 697 -396 697 -396 655 -419 c 132,-1,16
 613 -442 613 -442 568.5 -451 c 132,-1,17
 524 -460 524 -460 470 -460 c 4,18,19
 370 -460 370 -460 259 -427 c 4,20,21
 237 -420 237 -420 223.5 -402 c 132,-1,22
 210 -384 210 -384 210 -360 c 4,23,24
 210 -331 210 -331 230.5 -310.5 c 132,-1,25
 251 -290 251 -290 280 -290 c 4,26,27
 292 -290 292 -290 301 -293 c 4,28,29
 392 -320 392 -320 470 -320 c 4,30,31
 579 -320 579 -320 614.5 -272 c 132,-1,32
 650 -224 650 -224 650 -121 c 6,0,-1
EndSplineSet
Validated: 1
Layer: 2
SplineSet
650 -121 m 5
 650 820 l 5
 390 820 l 6
 350 820 320 849.665039062 320 890 c 132
 320 930.333007812 350 960 390 960 c 6
 720 960 l 6
 759.999641415 960 790 930.334960938 790 890 c 5
 790 -121 l 7
 790 -394.001953125 638 -460 470 -460 c 7
 406.801757812 -460 333 -449 259 -427 c 5
 230 -418 210 -392 210 -360 c 4
 210 -321 241 -290 280 -290 c 4
 287 -290 295 -291 301 -293 c 5
 356.645507812 -309.475585938 414.374023438 -320 470 -320 c 7
 626.002929688 -320 650 -243 650 -121 c 5
EndSplineSet
EndChar

StartChar: k
Encoding: 107 107 195
Width: 1200
GlyphClass: 2
Flags: W
HStem: 0 21G<212 380 898.983 1138> 1033 20G<845.502 1083>
VStem: 212 168<0 1477>
DStem2: 609 579 399 575 0.674511 -0.738265<0 635.205> 399 575 609 579 0.707107 0.707107<151.321 667.509>
AnchorPoint: "Anchor-1" 611 0 basechar 0
AnchorPoint: "Anchor-0" 600 1477 basechar 0
LayerCount: 6
Fore
SplineSet
390 274 m 5,0,-1
 580 464 l 5,1,-1
 796 140 l 5,2,-1
 720 140 l 6,3,4
 691 140 691 140 670.5 119.5 c 132,-1,5
 650 99 650 99 650 70 c 132,-1,6
 650 41 650 41 670.5 20.5 c 132,-1,7
 691 0 691 0 720 0 c 6,8,-1
 1040 0 l 6,9,10
 1069 0 1069 0 1089.5 20.5 c 132,-1,11
 1110 41 1110 41 1110 70 c 132,-1,12
 1110 99 1110 99 1089.5 119.5 c 132,-1,13
 1069 140 1069 140 1040 140 c 6,14,-1
 964 140 l 5,15,-1
 681 565 l 5,16,-1
 936 820 l 5,17,-1
 1000 820 l 6,18,19
 1029 820 1029 820 1049.5 840.5 c 132,-1,20
 1070 861 1070 861 1070 890 c 132,-1,21
 1070 919 1070 919 1049.5 939.5 c 132,-1,22
 1029 960 1029 960 1000 960 c 6,23,-1
 680 960 l 6,24,25
 651 960 651 960 630.5 939.5 c 132,-1,26
 610 919 610 919 610 890 c 132,-1,27
 610 861 610 861 630.5 840.5 c 132,-1,28
 651 820 651 820 680 820 c 6,29,-1
 740 820 l 5,30,-1
 390 470 l 5,31,-1
 390 1370 l 6,32,33
 387 1378 387 1378 380.5 1389.5 c 132,-1,34
 374 1401 374 1401 355.5 1420.5 c 132,-1,35
 337 1440 337 1440 320 1440 c 6,36,-1
 160 1440 l 6,37,38
 131 1440 131 1440 110.5 1419.5 c 132,-1,39
 90 1399 90 1399 90 1370 c 132,-1,40
 90 1341 90 1341 110.5 1320.5 c 132,-1,41
 131 1300 131 1300 160 1300 c 6,42,-1
 250 1300 l 5,43,-1
 250 140 l 5,44,-1
 160 140 l 6,45,46
 131 140 131 140 110.5 119.5 c 132,-1,47
 90 99 90 99 90 70 c 132,-1,48
 90 41 90 41 110.5 20.5 c 132,-1,49
 131 0 131 0 160 0 c 6,50,-1
 480 0 l 6,51,52
 509 0 509 0 529.5 20.5 c 132,-1,53
 550 41 550 41 550 70 c 132,-1,54
 550 99 550 99 529.5 119.5 c 132,-1,55
 509 140 509 140 480 140 c 6,56,-1
 390 140 l 5,57,-1
 390 274 l 5,0,-1
EndSplineSet
Validated: 9
Layer: 2
SplineSet
390 274 m 5
 580 464 l 5
 796 140 l 5
 720 140 l 5
 681 140 650 109 650 70 c 4
 650 31 681 0 720 0 c 5
 1040 0 l 5
 1079 0 1110 31 1110 70 c 4
 1110 109 1079 140 1040 140 c 5
 964 140 l 5
 681 565 l 5
 936 820 l 5
 1000 820 l 5
 1039 820 1070 851 1070 890 c 4
 1070 929 1039 960 1000 960 c 5
 680 960 l 5
 641 960 610 929 610 890 c 4
 610 851 641 820 680 820 c 5
 740 820 l 5
 390 470 l 5
 390 1370 l 5
 390 1370 359 1440 320 1440 c 5
 160 1440 l 5
 121 1440 90 1409 90 1370 c 4
 90 1331 121 1300 160 1300 c 5
 250 1300 l 5
 250 140 l 5
 160 140 l 5
 121 140 90 109 90 70 c 4
 90 31 121 0 160 0 c 5
 480 0 l 5
 519 0 550 31 550 70 c 4
 550 109 519 140 480 140 c 5
 390 140 l 5
 390 274 l 5
EndSplineSet
Layer: 3
SplineSet
701 565 m 1053
600 464 m 1053
EndSplineSet
EndChar

StartChar: kgreenlandic
Encoding: 369 312 197
Width: 1200
GlyphClass: 2
Flags: W
AnchorPoint: "Anchor-1" 600 0 basechar 0
AnchorPoint: "Anchor-0" 600 1053 basechar 0
LayerCount: 6
Fore
SplineSet
1072 1053 m 1,0,-1
 594 576 l 1,1,-1
 1127 0 l 1,2,-1
 905 0 l 1,3,-1
 387 565 l 1,4,-1
 854 1053 l 1,5,-1
 1072 1053 l 1,0,-1
369 1053 m 1,6,-1
 369 0 l 1,7,-1
 201 0 l 1,8,-1
 201 1053 l 1,9,-1
 369 1053 l 1,6,-1
EndSplineSet
Validated: 1
EndChar

StartChar: l
Encoding: 108 108 198
Width: 1200
GlyphClass: 2
Flags: W
HStem: -23 140<654.665 970.924> 1344 133<120 443>
VStem: 443 168<153.74 1344>
AnchorPoint: "Anchor-2" 1121 766 basechar 0
AnchorPoint: "Anchor-1" 721 0 basechar 0
AnchorPoint: "Anchor-0" 530 1477 basechar 0
LayerCount: 6
Fore
SplineSet
690 1370 m 6,0,-1
 690 140 l 5,1,-1
 950 140 l 6,2,3
 980 140 980 140 1000 120 c 132,-1,4
 1020 100 1020 100 1020 70 c 132,-1,5
 1020 40 1020 40 1000 20 c 132,-1,6
 980 0 980 0 950 0 c 6,7,-1
 290 0 l 6,8,9
 260 0 260 0 240 20 c 132,-1,10
 220 40 220 40 220 70 c 132,-1,11
 220 100 220 100 240 120 c 132,-1,12
 260 140 260 140 290 140 c 6,13,-1
 550 140 l 5,14,-1
 550 1300 l 5,15,-1
 320 1300 l 6,16,17
 290 1300 290 1300 270 1320 c 132,-1,18
 250 1340 250 1340 250 1370 c 132,-1,19
 250 1400 250 1400 270 1420 c 132,-1,20
 290 1440 290 1440 320 1440 c 6,21,-1
 620 1440 l 6,22,23
 650 1440 650 1440 670 1420 c 132,-1,24
 690 1400 690 1400 690 1370 c 6,0,-1
EndSplineSet
Validated: 1
Layer: 2
SplineSet
690 1370 m 129
 690 140 l 5
 950 140 l 6
 990 140 1020 110.334960938 1020 70 c 132
 1020 29.6669921875 990.334960938 0 950 0 c 6
 290 0 l 6
 249.666992188 0 220 29.6650390625 220 70 c 132
 220 110.333007812 250 140 290 140 c 6
 550 140 l 5
 550 1300 l 1
 320 1300 l 2
 280 1300 250 1329.66503906 250 1370 c 128
 250 1410.33300781 279.671875 1440 320 1440 c 2
 620 1440 l 1
 660.333007812 1440 690 1410.33496094 690 1370 c 129
EndSplineSet
Substitution2: "'cv10' Character Variants 10 lookup 370 subtable" l.cv10
Substitution2: "'cv09' Character Variants 09 lookup 369 subtable" l.cv09
Substitution2: "'cv08' Character Variants 08 lookup 368 subtable" l.cv08
Substitution2: "'cv07' Character Variants 07 lookup 367 subtable" l.cv07
Substitution2: "Single Substitution lookup 350 subtable" f_l.liga.ss10
Substitution2: "Single Substitution lookup 344 subtable" F_l.liga.ss10
Substitution2: "Single Substitution lookup 342 subtable" T_l.liga.ss10
Substitution2: "Single Substitution lookup 273 subtable" l.salt_low
AlternateSubs2: "'aalt' Access All Alternates lookup 1 subtable" F_l.liga.ss10 T_l.liga.ss10 l.cv07 l.cv08 l.cv09 l.cv10 l.salt_low f_l.liga.ss10
EndChar

StartChar: lslash
Encoding: 374 322 203
Width: 1200
GlyphClass: 2
Flags: W
AnchorPoint: "Anchor-2" 1121 766 basechar 0
AnchorPoint: "Anchor-1" 721 0 basechar 0
AnchorPoint: "Anchor-0" 530 1477 basechar 0
LayerCount: 6
Fore
SplineSet
787 978 m 1,0,-1
 858 869 l 1,1,-1
 611 717 l 1,2,-1
 611 260 l 2,3,4
 611 182 611 182 659.5 149.5 c 128,-1,5
 708 117 708 117 785 117 c 0,6,7
 832 117 832 117 875.5 127 c 128,-1,8
 919 137 919 137 962 154 c 1,9,-1
 1007 31 l 1,10,11
 964 10 964 10 900.5 -6.5 c 128,-1,12
 837 -23 837 -23 757 -23 c 0,13,14
 617 -23 617 -23 530 54.5 c 128,-1,15
 443 132 443 132 443 269 c 2,16,-1
 443 614 l 1,17,-1
 304 529 l 1,18,-1
 233 638 l 1,19,-1
 443 767 l 1,20,-1
 443 1344 l 1,21,-1
 120 1344 l 1,22,-1
 120 1477 l 1,23,-1
 611 1477 l 1,24,-1
 611 870 l 1,25,-1
 787 978 l 1,0,-1
EndSplineSet
Validated: 1
Substitution2: "'cv10' Character Variants 10 lookup 370 subtable" lslash.cv10
Substitution2: "'cv09' Character Variants 09 lookup 369 subtable" lslash.cv09
Substitution2: "'cv08' Character Variants 08 lookup 368 subtable" lslash.cv08
Substitution2: "'cv07' Character Variants 07 lookup 367 subtable" lslash.cv07
AlternateSubs2: "'aalt' Access All Alternates lookup 1 subtable" lslash.cv07 lslash.cv08 lslash.cv09 lslash.cv10
EndChar

StartChar: m
Encoding: 109 109 204
Width: 1200
GlyphClass: 2
Flags: W
HStem: 0 21G<101 256 521 678 943 1099> 944 131<337.831 507.811 754.911 930.582> 1033 20G<101 234.639>
VStem: 101 155<0 874.108> 101 132<931 1053> 521 157<0 872.744> 943 156<0 898.612>
AnchorPoint: "Anchor-1" 600 0 basechar 0
AnchorPoint: "Anchor-0" 600 1053 basechar 0
LayerCount: 6
Fore
SplineSet
664 779 m 17,0,1
 650 889 650 889 603 935 c 128,-1,2
 556 981 556 981 476 981 c 0,3,4
 422 981 422 981 368 923.5 c 128,-1,5
 314 866 314 866 300 805 c 1,6,-1
 300 890 l 2,7,8
 300 919 300 919 279.5 939.5 c 128,-1,9
 259 960 259 960 230 960 c 2,10,-1
 90 960 l 2,11,12
 61 960 61 960 40.5 939.5 c 128,-1,13
 20 919 20 919 20 890 c 128,-1,14
 20 861 20 861 40.5 840.5 c 128,-1,15
 61 820 61 820 90 820 c 2,16,-1
 160 820 l 1,17,-1
 160 140 l 1,18,-1
 90 140 l 2,19,20
 61 140 61 140 40.5 119.5 c 128,-1,21
 20 99 20 99 20 70 c 128,-1,22
 20 41 20 41 40.5 20.5 c 128,-1,23
 61 0 61 0 90 0 c 2,24,-1
 370 0 l 2,25,26
 399 0 399 0 419.5 20.5 c 128,-1,27
 440 41 440 41 440 70 c 128,-1,28
 440 99 440 99 419.5 119.5 c 128,-1,29
 399 140 399 140 370 140 c 2,30,-1
 300 140 l 1,31,-1
 300 492 l 2,32,33
 300 568 300 568 320.5 647.5 c 128,-1,34
 341 727 341 727 380.5 784 c 128,-1,35
 420 841 420 841 466 841 c 0,36,37
 488 841 488 841 501.5 825 c 128,-1,38
 515 809 515 809 521 778.5 c 128,-1,39
 527 748 527 748 528.5 723.5 c 128,-1,40
 530 699 530 699 530 664 c 2,41,-1
 530 70 l 2,42,43
 530 41 530 41 550.5 20.5 c 128,-1,44
 571 0 571 0 600 0 c 2,45,-1
 740 0 l 2,46,47
 769 0 769 0 789.5 20.5 c 128,-1,48
 810 41 810 41 810 70 c 128,-1,49
 810 99 810 99 789.5 119.5 c 128,-1,50
 769 140 769 140 740 140 c 2,51,-1
 670 140 l 1,52,-1
 670 492 l 2,53,54
 670 568 670 568 690.5 647.5 c 128,-1,55
 711 727 711 727 750.5 784 c 128,-1,56
 790 841 790 841 836 841 c 0,57,58
 858 841 858 841 871.5 825 c 128,-1,59
 885 809 885 809 891 778.5 c 128,-1,60
 897 748 897 748 898.5 723.5 c 128,-1,61
 900 699 900 699 900 664 c 2,62,-1
 900 70 l 2,63,64
 900 41 900 41 920.5 20.5 c 128,-1,65
 941 0 941 0 970 0 c 2,66,-1
 1110 0 l 2,67,68
 1139 0 1139 0 1159.5 20.5 c 128,-1,69
 1180 41 1180 41 1180 70 c 128,-1,70
 1180 99 1180 99 1159.5 119.5 c 128,-1,71
 1139 140 1139 140 1110 140 c 2,72,-1
 1040 140 l 1,73,-1
 1040 664 l 2,74,75
 1040 840 1040 840 992.5 910.5 c 128,-1,76
 945 981 945 981 847 981 c 0,77,78
 793 981 793 981 740 924 c 128,-1,79
 687 867 687 867 671 805 c 2,80,-1
 664 779 l 17,0,1
EndSplineSet
Validated: 9
Layer: 2
SplineSet
664 779 m 17
 643.870117188 931.76171875 577.838013278 981 476 981 c 0
 400 981 317 882 300 805 c 1
 300 890 l 2
 300 928.952268398 269 960 230 960 c 1
 90 960 l 1
 51 960 20 929 20 890 c 0
 20 851 51 820 90 820 c 1
 160 820 l 1
 160 140 l 1
 90 140 l 1
 51 140 20 109 20 70 c 0
 20 31 51 0 90 0 c 1
 370 0 l 1
 409 0 440 31 440 70 c 0
 440 109 409 140 370 140 c 1
 300 140 l 1
 300 492 l 2
 300 640 368 841 466 841 c 0
 527 841 530 737 530 664 c 26
 530 70 l 1
 530 31 561 0 600 0 c 1
 740 0 l 1
 779 0 810 31 810 70 c 0
 810 109 779 140 740 140 c 1
 670 140 l 1
 670 492 l 1
 670 640 738 841 836 841 c 0
 897 841 900 737 900 664 c 30
 900 70 l 5
 900 31 931 0 970 0 c 5
 1110 0 l 5
 1149 0 1180 31 1180 70 c 4
 1180 109 1149 140 1110 140 c 5
 1040 140 l 5
 1040 664 l 6
 1040 908 971 981 847 981 c 0
 771 981 691 881 671 805 c 2
 664 779 l 17
EndSplineSet
EndChar

StartChar: n
Encoding: 110 110 205
Width: 1200
GlyphClass: 2
Flags: W
AnchorPoint: "Anchor-1" 602 0 basechar 0
AnchorPoint: "Anchor-0" 600 1053 basechar 0
LayerCount: 6
Fore
SplineSet
1060 0 m 6,0,1
 1089 0 1089 0 1109.5 20.5 c 132,-1,2
 1130 41 1130 41 1130 70 c 132,-1,3
 1130 99 1130 99 1109.5 119.5 c 132,-1,4
 1089 140 1089 140 1060 140 c 6,5,-1
 970 140 l 5,6,-1
 970 664 l 6,7,8
 970 818 970 818 887 899 c 132,-1,9
 804 980 804 980 650 980 c 4,10,11
 601 980 601 980 556.5 961 c 132,-1,12
 512 942 512 942 480 910.5 c 132,-1,13
 448 879 448 879 427.5 850.5 c 132,-1,14
 407 822 407 822 390 790 c 5,15,-1
 390 890 l 6,16,17
 390 919 390 919 369.5 939.5 c 132,-1,18
 349 960 349 960 320 960 c 6,19,-1
 160 960 l 6,20,21
 131 960 131 960 110.5 939.5 c 132,-1,22
 90 919 90 919 90 890 c 132,-1,23
 90 861 90 861 110.5 840.5 c 132,-1,24
 131 820 131 820 160 820 c 6,25,-1
 250 820 l 5,26,-1
 250 140 l 5,27,-1
 160 140 l 6,28,29
 131 140 131 140 110.5 119.5 c 132,-1,30
 90 99 90 99 90 70 c 132,-1,31
 90 41 90 41 110.5 20.5 c 132,-1,32
 131 0 131 0 160 0 c 6,33,-1
 480 0 l 6,34,35
 509 0 509 0 529.5 20.5 c 132,-1,36
 550 41 550 41 550 70 c 132,-1,37
 550 99 550 99 529.5 119.5 c 132,-1,38
 509 140 509 140 480 140 c 6,39,-1
 390 140 l 5,40,-1
 390 492 l 6,41,42
 390 626 390 626 466 733 c 132,-1,43
 542 840 542 840 640 840 c 4,44,45
 737 840 737 840 783.5 801 c 132,-1,46
 830 762 830 762 830 664 c 6,47,-1
 830 140 l 5,48,-1
 740 140 l 6,49,50
 711 140 711 140 690.5 119.5 c 132,-1,51
 670 99 670 99 670 70 c 132,-1,52
 670 41 670 41 690.5 20.5 c 132,-1,53
 711 0 711 0 740 0 c 6,54,-1
 1060 0 l 6,0,1
EndSplineSet
Validated: 9
Layer: 2
SplineSet
1060 0 m 5
 1099 0 1130 31 1130 70 c 4
 1130 109 1099 140 1060 140 c 5
 970 140 l 5
 970 664 l 6
 970 870 855 980 650 980 c 4
 510 980 427 861 390 790 c 5
 390 890 l 6
 390 929 359 960 320 960 c 5
 160 960 l 5
 121 960 90 929 90 890 c 4
 90 851 121 820 160 820 c 5
 250 820 l 5
 250 140 l 5
 160 140 l 5
 121 140 90 109 90 70 c 4
 90 31 121 0 160 0 c 5
 480 0 l 5
 519 0 550 31 550 70 c 4
 550 109 519 140 480 140 c 5
 390 140 l 5
 390 492 l 6
 390 670 508 840 640 840 c 4
 763 840 830 801 830 664 c 6
 830 140 l 5
 740 140 l 5
 701 140 670 109 670 70 c 4
 670 31 701 0 740 0 c 5
 1060 0 l 5
EndSplineSet
EndChar

StartChar: napostrophe
Encoding: 376 329 207
Width: 1200
GlyphClass: 2
Flags: W
AnchorPoint: "Anchor-1" 619 0 basechar 0
AnchorPoint: "Anchor-0" 617 1053 basechar 0
LayerCount: 6
Fore
SplineSet
127 1503 m 256,0,1
 173 1503 173 1503 204.5 1472.5 c 128,-1,2
 236 1442 236 1442 236 1396 c 0,3,4
 236 1372 236 1372 226 1341 c 128,-1,5
 216 1310 216 1310 183 1241 c 2,6,-1
 101 1068 l 1,7,-1
 1 1068 l 1,8,-1
 61 1305 l 1,9,10
 41 1323 41 1323 28 1346 c 128,-1,11
 15 1369 15 1369 15 1396 c 0,12,13
 15 1442 15 1442 48 1472.5 c 128,-1,14
 81 1503 81 1503 127 1503 c 256,0,1
218 0 m 1,15,-1
 218 1053 l 1,16,-1
 362 1053 l 1,17,-1
 374 907 l 1,18,19
 439 988 439 988 535 1031.5 c 128,-1,20
 631 1075 631 1075 722 1075 c 0,21,22
 878 1075 878 1075 948.5 993 c 128,-1,23
 1019 911 1019 911 1019 765 c 2,24,-1
 1019 0 l 1,25,-1
 851 0 l 1,26,-1
 851 641 l 2,27,28
 851 749 851 749 839 815 c 128,-1,29
 827 881 827 881 788.5 912 c 128,-1,30
 750 943 750 943 670 943 c 0,31,32
 608 943 608 943 554 916 c 128,-1,33
 500 889 500 889 457 848.5 c 128,-1,34
 414 808 414 808 386 767 c 1,35,-1
 386 0 l 1,36,-1
 218 0 l 1,15,-1
EndSplineSet
Validated: 1
Ligature2: "'locl' Localized Forms in Latin lookup 28 subtable" quotesingle n
Ligature2: "'locl' Localized Forms in Latin lookup 28 subtable" quoteright n
EndChar

StartChar: eng
Encoding: 379 331 211
Width: 1200
GlyphClass: 1
Flags: W
LayerCount: 6
Fore
SplineSet
1001 57 m 2,0,1
 1001 -92 1001 -92 967 -180 c 128,-1,2
 933 -268 933 -268 864 -321.5 c 128,-1,3
 795 -375 795 -375 692 -421 c 1,4,-1
 629 -299 l 1,5,6
 698 -267 698 -267 743.5 -231.5 c 128,-1,7
 789 -196 789 -196 811 -132.5 c 128,-1,8
 833 -69 833 -69 833 46 c 2,9,-1
 833 641 l 2,10,11
 833 749 833 749 821.5 815 c 128,-1,12
 810 881 810 881 771 912 c 128,-1,13
 732 943 732 943 651 943 c 0,14,15
 591 943 591 943 537 916 c 128,-1,16
 483 889 483 889 440 849 c 128,-1,17
 397 809 397 809 369 767 c 1,18,-1
 369 0 l 1,19,-1
 201 0 l 1,20,-1
 201 1053 l 1,21,-1
 344 1053 l 1,22,-1
 357 907 l 1,23,24
 421 988 421 988 516.5 1031.5 c 128,-1,25
 612 1075 612 1075 705 1075 c 0,26,27
 859 1075 859 1075 930 993 c 128,-1,28
 1001 911 1001 911 1001 765 c 2,29,-1
 1001 57 l 2,0,1
EndSplineSet
Validated: 1
EndChar

StartChar: o
Encoding: 111 111 212
Width: 1210
GlyphClass: 2
Flags: W
AnchorPoint: "Anchor-1" 610 0 basechar 0
AnchorPoint: "Anchor-0" 610 1053 basechar 0
LayerCount: 6
Fore
SplineSet
180 480 m 128,-1,1
 180 235 180 235 292 107.5 c 128,-1,2
 404 -20 404 -20 600 -20 c 128,-1,3
 796 -20 796 -20 908 107.5 c 128,-1,4
 1020 235 1020 235 1020 480 c 128,-1,5
 1020 725 1020 725 908 852.5 c 128,-1,6
 796 980 796 980 600 980 c 128,-1,7
 404 980 404 980 292 852.5 c 128,-1,0
 180 725 180 725 180 480 c 128,-1,1
320 480 m 128,-1,9
 320 656 320 656 394.5 748 c 128,-1,10
 469 840 469 840 600 840 c 128,-1,11
 731 840 731 840 805.5 748 c 128,-1,12
 880 656 880 656 880 480 c 128,-1,13
 880 304 880 304 805.5 212 c 128,-1,14
 731 120 731 120 600 120 c 128,-1,15
 469 120 469 120 394.5 212 c 128,-1,8
 320 304 320 304 320 480 c 128,-1,9
EndSplineSet
Validated: 9
Layer: 2
SplineSet
180 480 m 132
 180 146.666666667 344 -20 600 -20 c 132
 856 -20 1020 146.666992188 1020 480 c 132
 1020 813.333007812 856 980 600 980 c 132
 344 980 180 813.333007812 180 480 c 132
320 480 m 132
 320 720 429 840 600 840 c 132
 771 840 880 720 880 480 c 132
 880 240 771 120 600 120 c 132
 429 120 320 240 320 480 c 132
EndSplineSet
Substitution2: "Single Substitution lookup 12 subtable" ordmasculine
Substitution2: "'aalt' Access All Alternates lookup 0 subtable" ordmasculine
EndChar

StartChar: oslash
Encoding: 248 248 220
Width: 1200
GlyphClass: 2
Flags: W
AnchorPoint: "Anchor-0" 600 1053 basechar 0
LayerCount: 6
Fore
SplineSet
962 1048 m 2,0,-1
 362 -152 l 2,1,2
 342 -190 342 -190 300 -190 c 0,3,4
 271 -190 271 -190 250.5 -169.5 c 128,-1,5
 230 -149 230 -149 230 -120 c 0,6,7
 230 -104 230 -104 238 -88 c 2,8,-1
 838 1112 l 2,9,10
 858 1150 858 1150 900 1150 c 0,11,12
 929 1150 929 1150 949.5 1129.5 c 128,-1,13
 970 1109 970 1109 970 1080 c 0,14,15
 970 1064 970 1064 962 1048 c 2,0,-1
180 480 m 128,-1,17
 180 725 180 725 292 852.5 c 128,-1,18
 404 980 404 980 600 980 c 128,-1,19
 796 980 796 980 908 852.5 c 128,-1,20
 1020 725 1020 725 1020 480 c 128,-1,21
 1020 235 1020 235 908 107.5 c 128,-1,22
 796 -20 796 -20 600 -20 c 128,-1,23
 404 -20 404 -20 292 107.5 c 128,-1,16
 180 235 180 235 180 480 c 128,-1,17
320 480 m 128,-1,25
 320 304 320 304 394.5 212 c 128,-1,26
 469 120 469 120 600 120 c 128,-1,27
 731 120 731 120 805.5 212 c 128,-1,28
 880 304 880 304 880 480 c 128,-1,29
 880 656 880 656 805.5 748 c 128,-1,30
 731 840 731 840 600 840 c 128,-1,31
 469 840 469 840 394.5 748 c 128,-1,24
 320 656 320 656 320 480 c 128,-1,25
EndSplineSet
Validated: 5
Layer: 2
SplineSet
962 1048 m 5
 362 -152 l 5
 350 -175 327 -190 300 -190 c 4
 261 -190 230 -159 230 -120 c 4
 230 -108 233 -98 238 -88 c 5
 838 1112 l 5
 850 1135 873 1150 900 1150 c 4
 939 1150 970 1119 970 1080 c 4
 970 1068 967 1058 962 1048 c 5
180 480 m 128
 180 813.333007812 344 980 600 980 c 128
 856 980 1020 813.333007812 1020 480 c 128
 1020 146.666992188 856 -20 600 -20 c 128
 344 -20 180 146.666666667 180 480 c 128
320 480 m 128
 320 240 429 120 600 120 c 128
 771 120 880 240 880 480 c 128
 880 720 771 840 600 840 c 128
 429 840 320 720 320 480 c 128
EndSplineSet
Layer: 3
SplineSet
602 1075 m 4
 636 1075 668.666666667 1072 700 1066 c 5
 776 1308 l 5
 917 1267 l 5
 833 1015 l 5
 903.666666667 972.333333333 958 909 996 825 c 132
 1034 741 1053 641.666666667 1053 527 c 4
 1053 419.666666667 1035.66666667 324.666666667 1001 242 c 132
 966.333333333 159.333333333 915.333333333 94.5 848 47.5 c 132
 780.666666667 0.5 698 -23 600 -23 c 4
 564.666666667 -23 531 -19.6666666667 499 -13 c 5
 426 -261 l 5
 286 -219 l 5
 370 36 l 5
 298.666666667 79.3333333333 243.666666667 143.166666667 205 227.5 c 132
 166.333333333 311.833333333 147 411 147 525 c 4
 147 633 164.333333333 728.5 199 811.5 c 132
 233.666666667 894.5 284.833333333 959.166666667 352.5 1005.5 c 132
 420.166666667 1051.83333333 503.333333333 1075 602 1075 c 4
602 937 m 4
 511.333333333 937 443 903.5 397 836.5 c 132
 351 769.5 328 665.666666667 328 525 c 4
 328 433.666666667 336.666666667 359 354 301 c 132
 371.333333333 243 397.333333333 199 432 169 c 5
 668 931 l 5
 648 935 626 937 602 937 c 4
872 527 m 4
 872 618.333333333 863.333333333 693 846 751 c 132
 828.666666667 809 803.333333333 852.666666667 770 882 c 5
 534 122 l 5
 554 118 576 116 600 116 c 4
 690.666666667 116 758.666666667 149.5 804 216.5 c 132
 849.333333333 283.5 872 387 872 527 c 4
EndSplineSet
EndChar

StartChar: oe
Encoding: 384 339 223
Width: 1200
GlyphClass: 1
Flags: W
LayerCount: 6
Fore
SplineSet
899 1075 m 0,0,1
 1073 1075 1073 1075 1151.5 937 c 128,-1,2
 1230 799 1230 799 1230 559 c 0,3,4
 1230 532 1230 532 1228.5 508 c 128,-1,5
 1227 484 1227 484 1226 465 c 1,6,-1
 700 465 l 1,7,8
 714 286 714 286 764.5 202 c 128,-1,9
 815 118 815 118 919 118 c 0,10,11
 976 118 976 118 1019 139 c 128,-1,12
 1062 160 1062 160 1112 197 c 1,13,-1
 1189 82 l 1,14,15
 1129 35 1129 35 1065 6 c 128,-1,16
 1001 -23 1001 -23 917 -23 c 0,17,18
 807 -23 807 -23 732 30 c 128,-1,19
 657 83 657 83 617 180 c 1,20,21
 579 89 579 89 515.5 33 c 128,-1,22
 452 -23 452 -23 334 -23 c 0,23,24
 217 -23 217 -23 142 45 c 128,-1,25
 67 113 67 113 31 236.5 c 128,-1,26
 -5 360 -5 360 -5 525 c 0,27,28
 -5 687 -5 687 30 811.5 c 128,-1,29
 65 936 65 936 140 1005.5 c 128,-1,30
 215 1075 215 1075 334 1075 c 0,31,32
 458 1075 458 1075 521 1018.5 c 128,-1,33
 584 962 584 962 619 869 c 1,34,35
 655 958 655 958 720.5 1016.5 c 128,-1,36
 786 1075 786 1075 899 1075 c 0,0,1
355 940 m 0,37,38
 257 940 257 940 215.5 837.5 c 128,-1,39
 174 735 174 735 174 525 c 0,40,41
 174 309 174 309 215.5 212 c 128,-1,42
 257 115 257 115 355 115 c 256,43,44
 453 115 453 115 492 208.5 c 128,-1,45
 531 302 531 302 531 527 c 0,46,47
 531 737 531 737 491 838.5 c 128,-1,48
 451 940 451 940 355 940 c 0,37,38
893 936 m 0,49,50
 803 936 803 936 758 860.5 c 128,-1,51
 713 785 713 785 700 597 c 1,52,-1
 1066 597 l 1,53,54
 1062 763 1062 763 1026.5 849.5 c 128,-1,55
 991 936 991 936 893 936 c 0,49,50
EndSplineSet
Validated: 1
EndChar

StartChar: p
Encoding: 112 112 224
Width: 1200
GlyphClass: 2
Flags: W
AnchorPoint: "Anchor-1" 600 0 basechar 0
AnchorPoint: "Anchor-0" 600 1053 basechar 0
LayerCount: 6
Fore
SplineSet
180 -440 m 6,0,1
 151 -440 151 -440 130.5 -419.5 c 132,-1,2
 110 -399 110 -399 110 -370 c 132,-1,3
 110 -341 110 -341 130.5 -320.5 c 132,-1,4
 151 -300 151 -300 180 -300 c 6,5,-1
 270 -300 l 5,6,-1
 270 820 l 5,7,-1
 180 820 l 6,8,9
 151 820 151 820 130.5 840.5 c 132,-1,10
 110 861 110 861 110 890 c 132,-1,11
 110 919 110 919 130.5 939.5 c 132,-1,12
 151 960 151 960 180 960 c 6,13,-1
 340 960 l 6,14,15
 369 960 369 960 389.5 939.5 c 132,-1,16
 410 919 410 919 410 890 c 6,17,-1
 410 839 l 5,18,19
 472 906 472 906 537.5 943 c 132,-1,20
 603 980 603 980 685 980 c 4,21,22
 815 980 815 980 906 911.5 c 132,-1,23
 997 843 997 843 1038.5 732.5 c 132,-1,24
 1080 622 1080 622 1080 480 c 132,-1,25
 1080 338 1080 338 1038.5 227.5 c 132,-1,26
 997 117 997 117 906 48.5 c 132,-1,27
 815 -20 815 -20 685 -20 c 4,28,29
 603 -20 603 -20 537.5 17 c 132,-1,30
 472 54 472 54 410 121 c 5,31,-1
 410 -300 l 5,32,-1
 590 -300 l 6,33,34
 620 -300 620 -300 640 -320 c 132,-1,35
 660 -340 660 -340 660 -370 c 132,-1,36
 660 -400 660 -400 640 -420 c 132,-1,37
 620 -440 620 -440 590 -440 c 6,38,-1
 180 -440 l 6,0,1
410 630 m 1,39,-1
 410 330 l 1,40,41
 447 239 447 239 523.5 179.5 c 128,-1,42
 600 120 600 120 685 120 c 0,43,44
 792 120 792 120 866 225 c 128,-1,45
 940 330 940 330 940 480 c 128,-1,46
 940 630 940 630 866 735 c 128,-1,47
 792 840 792 840 685 840 c 0,48,49
 600 840 600 840 523.5 780.5 c 128,-1,50
 447 721 447 721 410 630 c 1,39,-1
EndSplineSet
Validated: 1
Layer: 2
SplineSet
180 -440 m 5
 141 -440 110 -409 110 -370 c 4
 110 -331 141 -300 180 -300 c 5
 270 -300 l 5
 270 820 l 5
 180 820 l 5
 141 820 110 851 110 890 c 4
 110 929 141 960 180 960 c 5
 340 960 l 5
 379 960 410 929 410 890 c 5
 410 839 l 5
 483 917 567 980 685 980 c 7
 954 980 1080 756 1080 480 c 4
 1080 204 954 -20 685 -20 c 7
 567 -20 483 43 410 121 c 5
 410 -300 l 5
 590 -300 l 21
 630 -300 660 -329.665039062 660 -370 c 132
 660 -410.333007812 630.334960938 -440 590 -440 c 5
 180 -440 l 5
410 630 m 5
 410 330 l 5
 458 211 569.982421875 120 685 120 c 7
 829 120 940 281 940 480 c 4
 940 679 829 840 685 840 c 7
 569.982421875 840 458 749 410 630 c 5
EndSplineSet
EndChar

StartChar: thorn
Encoding: 254 254 225
Width: 1200
GlyphClass: 2
Flags: W
AnchorPoint: "Anchor-1" 600 -399 basechar 0
AnchorPoint: "Anchor-0" 600 1477 basechar 0
LayerCount: 6
Fore
SplineSet
675 0 m 2,0,-1
 450 0 l 1,1,-1
 450 -250 l 1,2,-1
 630 -250 l 2,3,4
 660 -250 660 -250 680 -270 c 128,-1,5
 700 -290 700 -290 700 -320 c 128,-1,6
 700 -350 700 -350 680 -370 c 128,-1,7
 660 -390 660 -390 630 -390 c 2,8,-1
 220 -390 l 2,9,10
 191 -390 191 -390 170.5 -369.5 c 128,-1,11
 150 -349 150 -349 150 -320 c 128,-1,12
 150 -291 150 -291 170.5 -270.5 c 128,-1,13
 191 -250 191 -250 220 -250 c 2,14,-1
 310 -250 l 1,15,-1
 310 1159 l 1,16,-1
 228 1160 l 2,17,18
 199 1160 199 1160 178.5 1180.5 c 128,-1,19
 158 1201 158 1201 158 1230 c 128,-1,20
 158 1259 158 1259 178.5 1279.5 c 128,-1,21
 199 1300 199 1300 228 1300 c 2,22,-1
 630 1300 l 2,23,24
 660 1300 660 1300 680 1280 c 128,-1,25
 700 1260 700 1260 700 1230 c 128,-1,26
 700 1200 700 1200 680 1180 c 128,-1,27
 660 1160 660 1160 630 1160 c 2,28,-1
 450 1160 l 1,29,-1
 450 910 l 1,30,-1
 675 910 l 2,31,32
 835 910 835 910 947.5 776.5 c 128,-1,33
 1060 643 1060 643 1060 455 c 128,-1,34
 1060 267 1060 267 947.5 133.5 c 128,-1,35
 835 0 835 0 675 0 c 2,0,-1
675 140 m 2,36,37
 776 140 776 140 848 232.5 c 128,-1,38
 920 325 920 325 920 455 c 128,-1,39
 920 585 920 585 848 677.5 c 128,-1,40
 776 770 776 770 675 770 c 2,41,42
 675 770 675 770 450 770 c 1,43,-1
 450 140 l 1,44,-1
 675 140 l 2,36,37
EndSplineSet
Validated: 1
Layer: 2
SplineSet
675 0 m 5
 450 0 l 5
 450 -250 l 5
 630 -250 l 6
 670 -250 700 -279.665039062 700 -320 c 132
 700 -360.333007812 670.334960938 -390 630 -390 c 5
 220 -390 l 5
 181 -390 150 -359 150 -320 c 7
 150 -281 181 -250 220 -250 c 5
 310 -250 l 5
 310 1159 l 5
 228 1160 l 5
 189 1160 158 1191 158 1230 c 7
 158 1269 189 1300 228 1300 c 5
 630 1300 l 5
 670.334960938 1300 700 1270.33300781 700 1230 c 132
 700 1189.66503906 670 1160 630 1160 c 6
 450 1160 l 5
 450 910 l 5
 675 910 l 5
 888 910 1060 706 1060 455 c 4
 1060 204 888 0 675 0 c 5
675 140 m 5
 450 140 l 5
 450 770 l 5
 675 770 l 5
 810 770 920 629 920 455 c 4
 920 281 810 140 675 140 c 5
EndSplineSet
Layer: 3
SplineSet
369 1498 m 5
 369 923 l 5
 449 1024.33333333 550 1075 672 1075 c 4
 765.333333333 1075 839.833333333 1052.33333333 895.5 1007 c 132
 951.166666667 961.666666667 991.333333333 897.833333333 1016 815.5 c 132
 1040.66666667 733.166666667 1053 637 1053 527 c 4
 1053 421 1038.16666667 326.5 1008.5 243.5 c 132
 978.833333333 160.5 934 95.3333333333 874 48 c 132
 814 0.666666666667 738.333333333 -23 647 -23 c 4
 531.666666667 -23 439 17.6666666667 369 99 c 5
 369 -403 l 5
 201 -424 l 5
 201 1477 l 5
 369 1498 l 5
632 940 m 4
 574 940 522.666666667 922.5 478 887.5 c 132
 433.333333333 852.5 397 813.666666667 369 771 c 5
 369 249 l 5
 396.333333333 208.333333333 430.833333333 176.166666667 472.5 152.5 c 132
 514.166666667 128.833333333 560 117 610 117 c 4
 697.333333333 117 763 150.333333333 807 217 c 132
 851 283.666666667 873 387.333333333 873 528 c 4
 873 802.666666667 792.666666667 940 632 940 c 4
EndSplineSet
EndChar

StartChar: q
Encoding: 113 113 226
Width: 1200
GlyphClass: 2
Flags: W
AnchorPoint: "Anchor-1" 600 0 basechar 0
AnchorPoint: "Anchor-0" 600 1053 basechar 0
LayerCount: 6
Fore
SplineSet
1020 -440 m 6,0,1
 1049 -440 1049 -440 1069.5 -419.5 c 132,-1,2
 1090 -399 1090 -399 1090 -370 c 132,-1,3
 1090 -341 1090 -341 1069.5 -320.5 c 132,-1,4
 1049 -300 1049 -300 1020 -300 c 6,5,-1
 930 -300 l 5,6,-1
 930 820 l 5,7,-1
 1020 820 l 6,8,9
 1049 820 1049 820 1069.5 840.5 c 132,-1,10
 1090 861 1090 861 1090 890 c 132,-1,11
 1090 919 1090 919 1069.5 939.5 c 132,-1,12
 1049 960 1049 960 1020 960 c 6,13,-1
 860 960 l 6,14,15
 831 960 831 960 810.5 939.5 c 132,-1,16
 790 919 790 919 790 890 c 6,17,-1
 790 839 l 5,18,19
 728 906 728 906 662.5 943 c 132,-1,20
 597 980 597 980 515 980 c 4,21,22
 385 980 385 980 294 911.5 c 132,-1,23
 203 843 203 843 161.5 732.5 c 132,-1,24
 120 622 120 622 120 480 c 132,-1,25
 120 338 120 338 161.5 227.5 c 132,-1,26
 203 117 203 117 294 48.5 c 132,-1,27
 385 -20 385 -20 515 -20 c 4,28,29
 597 -20 597 -20 662.5 17 c 132,-1,30
 728 54 728 54 790 121 c 5,31,-1
 790 -300 l 5,32,-1
 610 -300 l 6,33,34
 580 -300 580 -300 560 -320 c 132,-1,35
 540 -340 540 -340 540 -370 c 132,-1,36
 540 -400 540 -400 560 -420 c 132,-1,37
 580 -440 580 -440 610 -440 c 6,38,-1
 1020 -440 l 6,0,1
790 630 m 1,39,-1
 790 330 l 1,40,41
 753 239 753 239 676.5 179.5 c 128,-1,42
 600 120 600 120 515 120 c 0,43,44
 408 120 408 120 334 225 c 128,-1,45
 260 330 260 330 260 480 c 128,-1,46
 260 630 260 630 334 735 c 128,-1,47
 408 840 408 840 515 840 c 0,48,49
 600 840 600 840 676.5 780.5 c 128,-1,50
 753 721 753 721 790 630 c 1,39,-1
EndSplineSet
Validated: 9
Layer: 2
SplineSet
1020 -440 m 5
 1059 -440 1090 -409 1090 -370 c 4
 1090 -331 1059 -300 1020 -300 c 5
 930 -300 l 5
 930 820 l 5
 1020 820 l 5
 1059 820 1090 851 1090 890 c 4
 1090 929 1059 960 1020 960 c 5
 860 960 l 5
 821 960 790 929 790 890 c 5
 790 839 l 5
 717 917 633 980 515 980 c 7
 246 980 120 756 120 480 c 4
 120 204 246 -20 515 -20 c 7
 633 -20 717 43 790 121 c 5
 790 -300 l 5
 610 -300 l 21
 570 -300 540 -329.665039062 540 -370 c 132
 540 -410.333007812 569.665039062 -440 610 -440 c 5
 1020 -440 l 5
790 630 m 1
 790 330 l 1
 742 211 630.017578125 120 515 120 c 3
 371 120 260 281 260 480 c 0
 260 679 371 840 515 840 c 3
 630.017578125 840 742 749 790 630 c 1
EndSplineSet
EndChar

StartChar: r
Encoding: 114 114 227
Width: 1200
GlyphClass: 2
Flags: W
LayerCount: 6
Fore
SplineSet
937 774 m 4,0,1
 880 840 880 840 830 840 c 4,2,3
 783 840 783 840 742 819.5 c 132,-1,4
 701 799 701 799 671.5 767 c 132,-1,5
 642 735 642 735 614 687 c 132,-1,6
 586 639 586 639 567.5 594 c 132,-1,7
 549 549 549 549 530 491 c 5,8,-1
 530 140 l 5,9,-1
 710 140 l 6,10,11
 740 140 740 140 760 120 c 132,-1,12
 780 100 780 100 780 70 c 132,-1,13
 780 40 780 40 760 20 c 132,-1,14
 740 0 740 0 710 0 c 6,15,-1
 300 0 l 6,16,17
 270 0 270 0 250 20 c 132,-1,18
 230 40 230 40 230 70 c 132,-1,19
 230 100 230 100 250 120 c 132,-1,20
 270 140 270 140 300 140 c 6,21,-1
 390 140 l 5,22,-1
 390 820 l 5,23,-1
 300 820 l 6,24,25
 270 820 270 820 250 840 c 132,-1,26
 230 860 230 860 230 890 c 132,-1,27
 230 920 230 920 250 940 c 132,-1,28
 270 960 270 960 300 960 c 6,29,-1
 460 960 l 6,30,31
 490 960 490 960 510 940 c 132,-1,32
 530 920 530 920 530 890 c 6,33,-1
 530 741 l 5,34,35
 565 846 565 846 641 913 c 132,-1,36
 717 980 717 980 830 980 c 4,37,38
 948 980 948 980 1043 865 c 4,39,40
 1060 845 1060 845 1060 820 c 4,41,42
 1060 791 1060 791 1039.5 770.5 c 132,-1,43
 1019 750 1019 750 990 750 c 4,44,45
 958 750 958 750 937 774 c 4,0,1
EndSplineSet
Validated: 1
Layer: 2
SplineSet
937 774 m 5
 913 802 872.011903075 840 830 840 c 7
 668.98828125 840 587.30859375 662.022460938 530 491 c 5
 530 140 l 5
 710 140 l 6
 750 140 780 110.334960938 780 70 c 132
 780 29.6669921875 750.334960938 0 710 0 c 6
 300 0 l 6
 259.666992188 0 230 29.6650390625 230 70 c 132
 230 110.333007812 260 140 300 140 c 6
 390 140 l 5
 390 820 l 5
 300 820 l 6
 260 820 230 849.665039062 230 890 c 132
 230 930.333007812 260 960 300 960 c 6
 460 960 l 6
 500 960 530 930.334960938 530 890 c 5
 530 741 l 5
 572.556640625 868 668.98828125 980 830 980 c 7
 926 980 998.422851562 919.223632812 1043 865 c 5
 1053.10644531 852.87890625 1060 837.219726562 1060 820 c 4
 1060 781 1029 750 990 750 c 4
 968.697265625 750 949.780273438 759.25 937 774 c 5
EndSplineSet
Substitution2: "'ss01' Style Set 1 lookup 317 subtable" r.ss01
Substitution2: "'salt' Stylistic Alternatives lookup 316 subtable" r.ss01
Substitution2: "'aalt' Access All Alternates lookup 0 subtable" r.ss01
EndChar

StartChar: s
Encoding: 115 115 231
Width: 1200
GlyphClass: 2
Flags: W
AnchorPoint: "Anchor-1" 593 0 basechar 0
AnchorPoint: "Anchor-0" 615 1053 basechar 0
LayerCount: 6
Fore
SplineSet
795 722 m 1,0,1
 756 769 756 769 702.5 804.5 c 128,-1,2
 649 840 649 840 590 840 c 0,3,4
 390 840 390 840 390 710 c 0,5,6
 390 671 390 671 414 645 c 128,-1,7
 438 619 438 619 477.5 607 c 128,-1,8
 517 595 517 595 567.5 584 c 128,-1,9
 618 573 618 573 670 564.5 c 128,-1,10
 722 556 722 556 772.5 536 c 128,-1,11
 823 516 823 516 862.5 487.5 c 128,-1,12
 902 459 902 459 926 406 c 128,-1,13
 950 353 950 353 950 280 c 0,14,15
 950 227 950 227 932.5 177.5 c 128,-1,16
 915 128 915 128 877 82 c 128,-1,17
 839 36 839 36 767.5 8 c 128,-1,18
 696 -20 696 -20 600 -20 c 0,19,20
 515 -20 515 -20 463.5 5.5 c 128,-1,21
 412 31 412 31 360 83 c 1,22,-1
 360 70 l 2,23,24
 360 41 360 41 339.5 20.5 c 128,-1,25
 319 0 319 0 290 0 c 128,-1,26
 261 0 261 0 240.5 20.5 c 128,-1,27
 220 41 220 41 220 70 c 2,28,-1
 220 370 l 2,29,30
 220 399 220 399 240.5 419.5 c 128,-1,31
 261 440 261 440 290 440 c 128,-1,32
 319 440 319 440 339.5 419.5 c 128,-1,33
 360 399 360 399 360 370 c 2,34,-1
 360 277 l 1,35,36
 380 208 380 208 449.5 164 c 128,-1,37
 519 120 519 120 600 120 c 0,38,39
 699 120 699 120 754.5 160.5 c 128,-1,40
 810 201 810 201 810 280 c 0,41,42
 810 334 810 334 779 367 c 128,-1,43
 748 400 748 400 698.5 415 c 128,-1,44
 649 430 649 430 589.5 440 c 128,-1,45
 530 450 530 450 470.5 464.5 c 128,-1,46
 411 479 411 479 361.5 503.5 c 128,-1,47
 312 528 312 528 281 580.5 c 128,-1,48
 250 633 250 633 250 710 c 0,49,50
 250 840 250 840 340.5 910 c 128,-1,51
 431 980 431 980 590 980 c 0,52,53
 707 980 707 980 797 901 c 1,54,55
 801 926 801 926 820.5 943 c 128,-1,56
 840 960 840 960 866 960 c 0,57,58
 895 960 895 960 915.5 939.5 c 128,-1,59
 936 919 936 919 936 890 c 2,60,-1
 935 691 l 2,61,62
 935 662 935 662 914.5 641.5 c 128,-1,63
 894 621 894 621 865 621 c 128,-1,64
 836 621 836 621 815.5 641.5 c 128,-1,65
 795 662 795 662 795 691 c 2,66,-1
 795 722 l 1,0,1
EndSplineSet
Validated: 1
Layer: 2
SplineSet
795 722 m 5
 754.266601562 771.415039062 677.520626431 840 590 840 c 131
 486 840 390 813.019415646 390 710 c 131
 390 489.270507812 950 685.713867188 950 280 c 131
 950 148.997070312 869 -20 600 -20 c 128
 475.507843342 -20 418.366210938 25.0068359375 360 83 c 1
 360 70 l 1
 360 31 329 0 290 0 c 0
 251 0 220 31 220 70 c 1
 220 370 l 1
 220 409 251 440 290 440 c 0
 329 440 360 409 360 370 c 1
 360 277 l 1
 387.33984375 183.817382812 494.420228402 120 600 120 c 131
 729 120 810 171.981445312 810 280 c 131
 810 545.798828125 250 328.224609375 250 710 c 131
 250 885.00285712 380.940199943 980 590 980 c 131
 679.387723044 980 747.389648438 944.362304688 797 901 c 5
 802.193359375 934.670898438 830.747327321 960 866 960 c 4
 905 960 936 929 936 890 c 5
 935 691 l 5
 935 652 904 621 865 621 c 4
 826 621 795 652 795 691 c 5
 795 722 l 5
EndSplineSet
EndChar

StartChar: germandbls
Encoding: 223 223 237
Width: 1200
GlyphClass: 1
Flags: W
LayerCount: 6
Fore
SplineSet
593 1498 m 0,0,1
 748 1498 748 1498 844.5 1418 c 128,-1,2
 941 1338 941 1338 941 1211 c 0,3,4
 941 1137 941 1137 906.5 1089.5 c 128,-1,5
 872 1042 872 1042 827.5 1007 c 128,-1,6
 783 972 783 972 748.5 938 c 128,-1,7
 714 904 714 904 714 857 c 0,8,9
 714 805 714 805 754.5 767.5 c 128,-1,10
 795 730 795 730 855 694.5 c 128,-1,11
 915 659 915 659 975 613.5 c 128,-1,12
 1035 568 1035 568 1075.5 501.5 c 128,-1,13
 1116 435 1116 435 1116 334 c 0,14,15
 1116 218 1116 218 1064.5 138.5 c 128,-1,16
 1013 59 1013 59 928 18 c 128,-1,17
 843 -23 843 -23 743 -23 c 0,18,19
 663 -23 663 -23 600 -5.5 c 128,-1,20
 537 12 537 12 485 46 c 1,21,-1
 553 161 l 1,22,23
 590 140 590 140 637 126.5 c 128,-1,24
 684 113 684 113 727 113 c 0,25,26
 828 113 828 113 886.5 165.5 c 128,-1,27
 945 218 945 218 945 325 c 0,28,29
 945 402 945 402 904.5 452 c 128,-1,30
 864 502 864 502 805 540 c 128,-1,31
 746 578 746 578 687 616.5 c 128,-1,32
 628 655 628 655 588 706.5 c 128,-1,33
 548 758 548 758 548 837 c 0,34,35
 548 894 548 894 571.5 933.5 c 128,-1,36
 595 973 595 973 629.5 1002.5 c 128,-1,37
 664 1032 664 1032 699 1059 c 128,-1,38
 734 1086 734 1086 757.5 1118 c 128,-1,39
 781 1150 781 1150 781 1194 c 0,40,41
 781 1231 781 1231 764 1270 c 128,-1,42
 747 1309 747 1309 705.5 1336 c 128,-1,43
 664 1363 664 1363 592 1363 c 0,44,45
 480 1363 480 1363 420 1298 c 128,-1,46
 360 1233 360 1233 360 1078 c 2,47,-1
 360 0 l 1,48,-1
 192 0 l 1,49,-1
 192 1067 l 2,50,51
 192 1279 192 1279 298.5 1388.5 c 128,-1,52
 405 1498 405 1498 593 1498 c 0,0,1
EndSplineSet
Validated: 1
EndChar

StartChar: t
Encoding: 116 116 238
Width: 1200
GlyphClass: 2
Flags: W
AnchorPoint: "Anchor-2" 600 527 basechar 0
AnchorPoint: "Anchor-1" 743 0 basechar 0
AnchorPoint: "Anchor-0" 485 1304 basechar 0
LayerCount: 6
Fore
SplineSet
620 1230 m 2,0,-1
 620 960 l 1,1,-1
 940 960 l 2,2,3
 970 960 970 960 990 940 c 128,-1,4
 1010 920 1010 920 1010 890 c 128,-1,5
 1010 860 1010 860 990 840 c 128,-1,6
 970 820 970 820 940 820 c 2,7,-1
 620 820 l 1,8,-1
 620 319 l 2,9,10
 620 216 620 216 655.5 168 c 128,-1,11
 691 120 691 120 800 120 c 0,12,13
 878 120 878 120 969 147 c 0,14,15
 978 150 978 150 990 150 c 0,16,17
 1019 150 1019 150 1039.5 129.5 c 128,-1,18
 1060 109 1060 109 1060 80 c 0,19,20
 1060 56 1060 56 1046.5 38 c 128,-1,21
 1033 20 1033 20 1011 13 c 0,22,23
 900 -20 900 -20 800 -20 c 0,24,25
 746 -20 746 -20 701.5 -11 c 128,-1,26
 657 -2 657 -2 615 21 c 128,-1,27
 573 44 573 44 544 81.5 c 128,-1,28
 515 119 515 119 497.5 179.5 c 128,-1,29
 480 240 480 240 480 319 c 2,30,-1
 480 820 l 1,31,-1
 210 820 l 2,32,33
 180 820 180 820 160 840 c 128,-1,34
 140 860 140 860 140 890 c 128,-1,35
 140 920 140 920 160 940 c 128,-1,36
 180 960 180 960 210 960 c 2,37,-1
 480 960 l 1,38,-1
 480 1230 l 2,39,40
 480 1259 480 1259 500.5 1279.5 c 128,-1,41
 521 1300 521 1300 550 1300 c 128,-1,42
 579 1300 579 1300 599.5 1279.5 c 128,-1,43
 620 1259 620 1259 620 1230 c 2,0,-1
EndSplineSet
Validated: 1
Layer: 2
SplineSet
620 1230 m 5
 620 960 l 5
 940 960 l 6
 980 960 1010 930.333007812 1010 890 c 132
 1010 849.665039062 980 820 940 820 c 6
 620 820 l 5
 620 820 620 382 620 319 c 5
 620 197 643.997070312 120 800 120 c 7
 855.625976562 120 913.354492188 130.524414062 969 147 c 5
 975 149 983 150 990 150 c 4
 1029 150 1060 119 1060 80 c 4
 1060 48 1040 22 1011 13 c 5
 937 -9 863.198242188 -20 800 -20 c 7
 632 -20 480 45.998046875 480 319 c 4
 480 820 l 5
 210 820 l 6
 170 820 140 849.666992188 140 890 c 132
 140 930.334960938 170 960 210 960 c 6
 480 960 l 5
 480 1230 l 5
 480 1269 511 1300 550 1300 c 4
 589 1300 620 1269 620 1230 c 5
EndSplineSet
Substitution2: "Single Substitution lookup 352 subtable" f_t.liga.ss10
Substitution2: "'aalt' Access All Alternates lookup 0 subtable" f_t.liga.ss10
EndChar

StartChar: tbar
Encoding: 393 359 239
Width: 1200
GlyphClass: 2
Flags: W
AnchorPoint: "Anchor-2" 600 527 basechar 0
AnchorPoint: "Anchor-1" 743 0 basechar 0
AnchorPoint: "Anchor-0" 485 1304 basechar 0
LayerCount: 6
Fore
SplineSet
620 580 m 5,0,-1
 940 580 l 6,1,2
 970 580 970 580 990 600 c 132,-1,3
 1010 620 1010 620 1010 650 c 132,-1,4
 1010 680 1010 680 990 700 c 132,-1,5
 970 720 970 720 940 720 c 6,6,-1
 620 720 l 5,7,-1
 620 880 l 1,8,-1
 940 880 l 2,9,10
 970 880 970 880 990 900 c 128,-1,11
 1010 920 1010 920 1010 950 c 128,-1,12
 1010 980 1010 980 990 1000 c 128,-1,13
 970 1020 970 1020 940 1020 c 2,14,-1
 620 1020 l 1,15,-1
 620 1290 l 2,16,17
 620 1319 620 1319 599.5 1339.5 c 128,-1,18
 579 1360 579 1360 550 1360 c 128,-1,19
 521 1360 521 1360 500.5 1339.5 c 128,-1,20
 480 1319 480 1319 480 1290 c 2,21,-1
 480 1020 l 1,22,-1
 210 1020 l 2,23,24
 180 1020 180 1020 160 1000 c 128,-1,25
 140 980 140 980 140 950 c 128,-1,26
 140 920 140 920 160 900 c 128,-1,27
 180 880 180 880 210 880 c 2,28,-1
 480 880 l 1,29,-1
 480 720 l 5,30,-1
 210 720 l 6,31,32
 180 720 180 720 160 700 c 132,-1,33
 140 680 140 680 140 650 c 132,-1,34
 140 620 140 620 160 600 c 132,-1,35
 180 580 180 580 210 580 c 6,36,-1
 480 580 l 5,37,-1
 480 319 l 2,38,39
 480 240 480 240 497.5 179.5 c 128,-1,40
 515 119 515 119 544 81.5 c 128,-1,41
 573 44 573 44 615 21 c 128,-1,42
 657 -2 657 -2 701.5 -11 c 128,-1,43
 746 -20 746 -20 800 -20 c 0,44,45
 900 -20 900 -20 1011 13 c 0,46,47
 1033 20 1033 20 1046.5 38 c 128,-1,48
 1060 56 1060 56 1060 80 c 0,49,50
 1060 109 1060 109 1039.5 129.5 c 128,-1,51
 1019 150 1019 150 990 150 c 0,52,53
 978 150 978 150 969 147 c 0,54,55
 878 120 878 120 800 120 c 0,56,57
 691 120 691 120 655.5 168 c 128,-1,58
 620 216 620 216 620 319 c 2,59,-1
 620 580 l 5,0,-1
EndSplineSet
Validated: 9
Layer: 2
SplineSet
620 580 m 5
 940 580 l 6
 980 580 1010 609.665039062 1010 650 c 132
 1010 690.333007812 980 720 940 720 c 6
 620 720 l 5
 620 880 l 5
 940 880 l 6
 980 880 1010 909.665039062 1010 950 c 132
 1010 990.333007812 980 1020 940 1020 c 6
 620 1020 l 5
 620 1290 l 5
 620 1329 589 1360 550 1360 c 4
 511 1360 480 1329 480 1290 c 5
 480 1020 l 5
 210 1020 l 6
 170 1020 140 990.334960938 140 950 c 132
 140 909.666992188 170 880 210 880 c 6
 480 880 l 5
 480 720 l 5
 210 720 l 6
 170 720 140 690.334960938 140 650 c 132
 140 609.666992188 170 580 210 580 c 6
 480 580 l 5
 480 319 l 4
 480 45.998046875 632 -20 800 -20 c 7
 863.198242188 -20 937 -9 1011 13 c 5
 1040 22 1060 48 1060 80 c 4
 1060 119 1029 150 990 150 c 4
 983 150 975 149 969 147 c 5
 913.354492188 130.524414062 855.625976562 120 800 120 c 7
 643.997070312 120 620 197 620 319 c 5
 620 580 l 5
EndSplineSet
EndChar

StartChar: u
Encoding: 117 117 243
Width: 1200
GlyphClass: 2
Flags: W
AnchorPoint: "Anchor-0" 740 1053 basechar 0
LayerCount: 6
Fore
SplineSet
830 70 m 2,0,1
 830 41 830 41 850.5 20.5 c 128,-1,2
 871 0 871 0 900 0 c 2,3,-1
 1070 0 l 2,4,5
 1099 0 1099 0 1119.5 20.5 c 128,-1,6
 1140 41 1140 41 1140 70 c 128,-1,7
 1140 99 1140 99 1119.5 119.5 c 128,-1,8
 1099 140 1099 140 1070 140 c 2,9,-1
 970 140 l 1,10,-1
 970 820 l 1,11,-1
 970 890 l 2,12,13
 970 919 970 919 949.5 939.5 c 128,-1,14
 929 960 929 960 900 960 c 2,15,-1
 730 960 l 2,16,17
 701 960 701 960 680.5 939.5 c 128,-1,18
 660 919 660 919 660 890 c 128,-1,19
 660 861 660 861 680.5 840.5 c 128,-1,20
 701 820 701 820 730 820 c 2,21,-1
 830 820 l 1,22,-1
 830 468 l 2,23,24
 830 334 830 334 754 227 c 128,-1,25
 678 120 678 120 580 120 c 0,26,27
 483 120 483 120 436.5 159 c 128,-1,28
 390 198 390 198 390 296 c 2,29,-1
 390 890 l 2,30,31
 390 919 390 919 369.5 939.5 c 128,-1,32
 349 960 349 960 320 960 c 2,33,-1
 150 960 l 2,34,35
 121 960 121 960 100.5 939.5 c 128,-1,36
 80 919 80 919 80 890 c 128,-1,37
 80 861 80 861 100.5 840.5 c 128,-1,38
 121 820 121 820 150 820 c 2,39,-1
 250 820 l 1,40,-1
 250 296 l 2,41,42
 250 142 250 142 333 61 c 128,-1,43
 416 -20 416 -20 570 -20 c 0,44,45
 619 -20 619 -20 663.5 -1 c 128,-1,46
 708 18 708 18 740 49.5 c 128,-1,47
 772 81 772 81 792.5 109.5 c 128,-1,48
 813 138 813 138 830 170 c 1,49,-1
 830 70 l 2,0,1
EndSplineSet
Validated: 9
Layer: 2
SplineSet
830 70 m 6
 830 31 861 0 900 0 c 5
 1070 0 l 5
 1109 0 1140 31 1140 70 c 4
 1140 109 1109 140 1070 140 c 5
 970 140 l 5
 970 820 l 5
 970 890 l 5
 970 929 939 960 900 960 c 5
 730 960 l 5
 691 960 660 929 660 890 c 4
 660 851 691 820 730 820 c 5
 830 820 l 5
 830 468 l 6
 830 290 712 120 580 120 c 4
 457 120 390 159 390 296 c 6
 390 890 l 5
 390 929 359 960 320 960 c 5
 150 960 l 5
 111 960 80 929 80 890 c 4
 80 851 111 820 150 820 c 5
 250 820 l 5
 250 296 l 6
 250 90 365 -20 570 -20 c 4
 710 -20 793 99 830 170 c 5
 830 70 l 6
EndSplineSet
EndChar

StartChar: v
Encoding: 118 118 254
Width: 1200
GlyphClass: 2
Flags: W
AnchorPoint: "Anchor-1" 600 0 basechar 0
AnchorPoint: "Anchor-0" 600 1053 basechar 0
LayerCount: 6
Fore
SplineSet
620 -20 m 2,0,1
 642 -20 642 -20 660 -7.5 c 128,-1,2
 678 5 678 5 686 25 c 2,3,-1
 984 820 l 1,4,-1
 1080 820 l 2,5,6
 1109 820 1109 820 1129.5 840.5 c 128,-1,7
 1150 861 1150 861 1150 890 c 128,-1,8
 1150 919 1150 919 1129.5 939.5 c 128,-1,9
 1109 960 1109 960 1080 960 c 2,10,-1
 740 960 l 2,11,12
 711 960 711 960 690.5 939.5 c 128,-1,13
 670 919 670 919 670 890 c 128,-1,14
 670 861 670 861 690.5 840.5 c 128,-1,15
 711 820 711 820 740 820 c 2,16,-1
 835 820 l 1,17,-1
 600 193 l 1,18,-1
 365 820 l 1,19,-1
 460 820 l 2,20,21
 489 820 489 820 509.5 840.5 c 128,-1,22
 530 861 530 861 530 890 c 128,-1,23
 530 919 530 919 509.5 939.5 c 128,-1,24
 489 960 489 960 460 960 c 2,25,-1
 120 960 l 2,26,27
 91 960 91 960 70.5 939.5 c 128,-1,28
 50 919 50 919 50 890 c 128,-1,29
 50 861 50 861 70.5 840.5 c 128,-1,30
 91 820 91 820 120 820 c 2,31,-1
 216 820 l 1,32,-1
 514 25 l 2,33,34
 522 5 522 5 540 -7.5 c 128,-1,35
 558 -20 558 -20 580 -20 c 2,36,-1
 620 -20 l 2,0,1
EndSplineSet
Validated: 9
Layer: 2
SplineSet
620 -20 m 1
 650.166992188 -20 676.05078125 -1.4521484375 686 25 c 1
 984 820 l 5
 1080 820 l 5
 1119 820 1150 851 1150 890 c 5
 1150 929 1119 960 1080 960 c 5
 740 960 l 5
 701 960 670 929 670 890 c 5
 670 851 701 820 740 820 c 5
 835 820 l 5
 600 193 l 1
 365 820 l 5
 460 820 l 5
 499 820 530 851 530 890 c 5
 530 929 499 960 460 960 c 5
 120 960 l 5
 81 960 50 929 50 890 c 5
 50 851 81 820 120 820 c 5
 216 820 l 5
 514 25 l 1
 523.94921875 -1.4521484375 549.833348633 -20 580 -20 c 1
 620 -20 l 1
EndSplineSet
EndChar

StartChar: w
Encoding: 119 119 255
Width: 1200
GlyphClass: 2
Flags: W
AnchorPoint: "Anchor-1" 600 0 basechar 0
AnchorPoint: "Anchor-0" 600 1053 basechar 0
LayerCount: 6
Fore
SplineSet
620 700 m 2,0,-1
 580 700 l 2,1,2
 556 700 556 700 538 686.5 c 128,-1,3
 520 673 520 673 513 651 c 2,4,-1
 388 251 l 1,5,-1
 280 820 l 1,6,-1
 380 820 l 2,7,8
 410 820 410 820 430 840 c 128,-1,9
 450 860 450 860 450 890 c 128,-1,10
 450 920 450 920 430 940 c 128,-1,11
 410 960 410 960 380 960 c 2,12,13
 380 960 380 960 60 960 c 2,14,15
 30 960 30 960 10 940 c 128,-1,16
 -10 920 -10 920 -10 890 c 128,-1,17
 -10 860 -10 860 10 840 c 128,-1,18
 30 820 30 820 60 820 c 2,19,-1
 140 820 l 1,20,-1
 291 37 l 2,21,22
 296 12 296 12 315.5 -4 c 128,-1,23
 335 -20 335 -20 360 -20 c 2,24,-1
 400 -20 l 2,25,26
 424 -20 424 -20 442.5 -6 c 128,-1,27
 461 8 461 8 467 30 c 2,28,-1
 600 458 l 1,29,-1
 733 30 l 2,30,31
 739 8 739 8 757.5 -6 c 128,-1,32
 776 -20 776 -20 800 -20 c 2,33,-1
 840 -20 l 2,34,35
 865 -20 865 -20 884.5 -4 c 128,-1,36
 904 12 904 12 909 37 c 2,37,-1
 1060 820 l 1,38,-1
 1140 820 l 2,39,40
 1170 820 1170 820 1190 840 c 128,-1,41
 1210 860 1210 860 1210 890 c 128,-1,42
 1210 920 1210 920 1190 940 c 128,-1,43
 1170 960 1170 960 1140 960 c 2,44,-1
 820 960 l 2,45,46
 790 960 790 960 770 940 c 128,-1,47
 750 920 750 920 750 890 c 128,-1,48
 750 860 750 860 770 840 c 128,-1,49
 790 820 790 820 820 820 c 2,50,-1
 920 820 l 1,51,-1
 812 251 l 1,52,-1
 687 651 l 2,53,54
 680 673 680 673 662 686.5 c 128,-1,55
 644 700 644 700 620 700 c 2,0,-1
EndSplineSet
Validated: 9
Layer: 2
SplineSet
620 700 m 5
 580 700 l 5
 548 700 522 680 513 651 c 5
 388 251 l 5
 280 820 l 5
 380 820 l 5
 420 820 450 850 450 890 c 133
 450 930 420 960 380 960 c 5
 60 960 l 5
 20 960 -10 930 -10 890 c 133
 -10 850 20 820 60 820 c 5
 140 820 l 5
 291 37 l 5
 297 4 326 -20 360 -20 c 5
 400 -20 l 5
 432.034460436 -20 458.506835938 0.9150390625 467 30 c 5
 600 458 l 5
 733 30 l 5
 741.493164062 0.9150390625 767.965820312 -20 800 -20 c 5
 840 -20 l 5
 874 -20 903 4 909 37 c 5
 1060 820 l 5
 1140 820 l 5
 1180 820 1210 850 1210 890 c 133
 1210 930 1180 960 1140 960 c 5
 820 960 l 5
 780 960 750 930 750 890 c 133
 750 850 780 820 820 820 c 5
 920 820 l 5
 812 251 l 5
 687 651 l 5
 678 680 652 700 620 700 c 5
EndSplineSet
Substitution2: "Single Substitution lookup 134 subtable" w.spacer
Substitution2: "Single Substitution lookup 133 subtable" w.spacer
Substitution2: "Single Substitution lookup 132 subtable" w_w_w.liga
AlternateSubs2: "'aalt' Access All Alternates lookup 1 subtable" w.spacer w_w_w.liga
EndChar

StartChar: x
Encoding: 120 120 260
Width: 1200
GlyphClass: 2
Flags: W
AnchorPoint: "Anchor-1" 600 0 basechar 0
AnchorPoint: "Anchor-0" 600 1053 basechar 0
LayerCount: 6
Fore
SplineSet
600 592 m 5,0,-1
 406 820 l 5,1,-1
 480 820 l 6,2,3
 509 820 509 820 529.5 840.5 c 132,-1,4
 550 861 550 861 550 890 c 132,-1,5
 550 919 550 919 529.5 939.5 c 132,-1,6
 509 960 509 960 480 960 c 6,7,-1
 160 960 l 6,8,9
 131 960 131 960 110.5 939.5 c 132,-1,10
 90 919 90 919 90 890 c 132,-1,11
 90 861 90 861 110.5 840.5 c 132,-1,12
 131 820 131 820 160 820 c 6,13,-1
 234 820 l 5,14,-1
 514 492 l 5,15,-1
 214 140 l 5,16,-1
 140 140 l 6,17,18
 111 140 111 140 90.5 119.5 c 132,-1,19
 70 99 70 99 70 70 c 132,-1,20
 70 41 70 41 90.5 20.5 c 132,-1,21
 111 0 111 0 140 0 c 6,22,-1
 460 0 l 6,23,24
 489 0 489 0 509.5 20.5 c 132,-1,25
 530 41 530 41 530 70 c 132,-1,26
 530 99 530 99 509.5 119.5 c 132,-1,27
 489 140 489 140 460 140 c 6,28,-1
 386 140 l 5,29,-1
 600 391 l 5,30,-1
 814 140 l 5,31,-1
 739 140 l 6,32,33
 710 140 710 140 689.5 119.5 c 132,-1,34
 669 99 669 99 669 70 c 132,-1,35
 669 41 669 41 689.5 20.5 c 132,-1,36
 710 0 710 0 739 0 c 6,37,-1
 1060 0 l 6,38,39
 1089 0 1089 0 1109.5 20.5 c 132,-1,40
 1130 41 1130 41 1130 70 c 132,-1,41
 1130 99 1130 99 1109.5 119.5 c 132,-1,42
 1089 140 1089 140 1060 140 c 6,43,-1
 986 140 l 5,44,-1
 686 492 l 5,45,-1
 966 820 l 5,46,-1
 1040 820 l 6,47,48
 1069 820 1069 820 1089.5 840.5 c 132,-1,49
 1110 861 1110 861 1110 890 c 132,-1,50
 1110 919 1110 919 1089.5 939.5 c 132,-1,51
 1069 960 1069 960 1040 960 c 6,52,-1
 719 960 l 6,53,54
 690 960 690 960 669.5 939.5 c 132,-1,55
 649 919 649 919 649 890 c 132,-1,56
 649 861 649 861 669.5 840.5 c 132,-1,57
 690 820 690 820 719 820 c 6,58,-1
 794 820 l 5,59,-1
 600 592 l 5,0,-1
EndSplineSet
Validated: 9
Layer: 2
SplineSet
600 592 m 5
 406 820 l 5
 480 820 l 5
 519 820 550 851 550 890 c 7
 550 929 519 960 480 960 c 5
 160 960 l 5
 121 960 90 929 90 890 c 7
 90 851 121 820 160 820 c 5
 234 820 l 5
 514 492 l 5
 214 140 l 5
 140 140 l 5
 101 140 70 109 70 70 c 7
 70 31 101 0 140 0 c 5
 460 0 l 5
 499 0 530 31 530 70 c 7
 530 109 499 140 460 140 c 5
 386 140 l 5
 600 391 l 5
 814 140 l 5
 739 140 l 5
 700 140 669 109 669 70 c 7
 669 31 700 0 739 0 c 5
 1060 0 l 5
 1099 0 1130 31 1130 70 c 7
 1130 109 1099 140 1060 140 c 5
 986 140 l 5
 686 492 l 5
 966 820 l 5
 1040 820 l 5
 1079 820 1110 851 1110 890 c 7
 1110 929 1079 960 1040 960 c 5
 719 960 l 5
 680 960 649 929 649 890 c 7
 649 851 680 820 719 820 c 5
 794 820 l 5
 600 592 l 5
EndSplineSet
Substitution2: "Single Substitution lookup 259 subtable" x.multiply.tosf
Substitution2: "Single Substitution lookup 258 subtable" x.multiply
Substitution2: "Single Substitution lookup 257 subtable" x.multiply.tosf
Substitution2: "Single Substitution lookup 256 subtable" x.multiply
AlternateSubs2: "'aalt' Access All Alternates lookup 1 subtable" x.multiply x.multiply.tosf
EndChar

